SplineFontDB: 3.2
FontName: IRAban
FullName: IRAban
FamilyName: IRAban
Weight: Book
Copyright: Copyright (c) 2022, Information Technology Organization of Iran (ito.gov.ir)
Version: 1.001
ItalicAngle: 0
UnderlinePosition: -100
UnderlineWidth: 60
Ascent: 1638
Descent: 410
InvalidEm: 0
sfntRevision: 0x00010042
LayerCount: 2
Layer: 0 1 "Back" 1
Layer: 1 1 "Fore" 0
XUID: [1021 420 722297922 13023845]
StyleMap: 0x0040
FSType: 0
OS2Version: 3
OS2_WeightWidthSlopeOnly: 0
OS2_UseTypoMetrics: 0
CreationTime: 1356312387
ModificationTime: 1662559665
PfmFamily: 17
TTFWeight: 400
TTFWidth: 5
LineGap: 100
VLineGap: 0
Panose: 2 0 5 3 0 0 0 2 0 2
OS2TypoAscent: 2616
OS2TypoAOffset: 0
OS2TypoDescent: -1334
OS2TypoDOffset: 0
OS2TypoLinegap: 1500
OS2WinAscent: 2616
OS2WinAOffset: 0
OS2WinDescent: 1334
OS2WinDOffset: 0
HheadAscent: 2616
HheadAOffset: 0
HheadDescent: -1334
HheadDOffset: 0
OS2SubXSize: 1434
OS2SubYSize: 1331
OS2SubXOff: 0
OS2SubYOff: 293
OS2SupXSize: 1434
OS2SupYSize: 1331
OS2SupXOff: 0
OS2SupYOff: 930
OS2StrikeYSize: 50
OS2StrikeYPos: 250
OS2CapHeight: 2625
OS2XHeight: 596
OS2FamilyClass: 2048
OS2Vendor: 'PARS'
OS2CodePages: 20000041.00000000
OS2UnicodeRanges: 00002003.00000000.00000000.00000000
Lookup: 1 1 0 "'isol' Isolated Forms in Arabic lookup 0" { "'isol' Isolated Forms in Arabic lookup 0 subtable"  } ['isol' ('arab' <'dflt' > ) ]
Lookup: 1 1 0 "'init' Initial Forms in Arabic lookup 1" { "'init' Initial Forms in Arabic lookup 1 subtable"  } ['init' ('arab' <'dflt' > ) ]
Lookup: 1 1 0 "'fina' Terminal Forms in Arabic lookup 2" { "'fina' Terminal Forms in Arabic lookup 2 subtable"  } ['fina' ('arab' <'dflt' > ) ]
Lookup: 1 1 0 "'medi' Medial Forms in Arabic lookup 3" { "'medi' Medial Forms in Arabic lookup 3 subtable"  } ['medi' ('arab' <'dflt' > ) ]
Lookup: 4 1 0 "'ccmp' Glyph Composition/Decomposition in Arabic lookup 4" { "'ccmp' Glyph Composition/Decomposition in Arabic lookup 4 subtable"  } ['ccmp' ('arab' <'dflt' > ) ]

StartChar: quotedbl
Encoding: 34 34 4
Width: 966
Flags: W
LayerCount: 2
Fore
SplineSet
221 894 m 1,0,1
 214 923 214 923 209.5 945.5 c 128,-1,2
 205 968 205 968 202 978 c 0,3,4
 175 1087 175 1087 159.5 1165 c 128,-1,5
 144 1243 144 1243 144 1270 c 0,6,7
 144 1327 144 1327 175 1360.5 c 128,-1,8
 206 1394 206 1394 256 1394 c 0,9,10
 280 1394 280 1394 300.5 1385 c 128,-1,11
 321 1376 321 1376 336.5 1360.5 c 128,-1,12
 352 1345 352 1345 360.5 1323.5 c 128,-1,13
 369 1302 369 1302 369 1277 c 0,14,15
 369 1263 369 1263 365.5 1237 c 128,-1,16
 362 1211 362 1211 353 1167 c 128,-1,17
 344 1123 344 1123 329 1056.5 c 128,-1,18
 314 990 314 990 292 894 c 1,19,-1
 221 894 l 1,0,1
674 894 m 1,20,21
 667 921 667 921 661.5 944.5 c 128,-1,22
 656 968 656 968 654 978 c 0,23,24
 627 1088 627 1088 612 1165.5 c 128,-1,25
 597 1243 597 1243 597 1270 c 0,26,27
 597 1327 597 1327 628 1360.5 c 128,-1,28
 659 1394 659 1394 709 1394 c 0,29,30
 733 1394 733 1394 753.5 1385 c 128,-1,31
 774 1376 774 1376 789.5 1360.5 c 128,-1,32
 805 1345 805 1345 813.5 1323.5 c 128,-1,33
 822 1302 822 1302 822 1277 c 0,34,35
 822 1263 822 1263 817.5 1234 c 128,-1,36
 813 1205 813 1205 803.5 1158.5 c 128,-1,37
 794 1112 794 1112 779.5 1046.5 c 128,-1,38
 765 981 765 981 745 894 c 1,39,-1
 674 894 l 1,20,21
EndSplineSet
EndChar

StartChar: quotesingle
Encoding: 39 39 5
Width: 484
Flags: W
LayerCount: 2
Fore
SplineSet
207 894 m 1,0,1
 200 921 200 921 195 944.5 c 128,-1,2
 190 968 190 968 188 978 c 0,3,4
 160 1087 160 1087 145.5 1165 c 128,-1,5
 131 1243 131 1243 131 1270 c 0,6,7
 131 1327 131 1327 161.5 1360.5 c 128,-1,8
 192 1394 192 1394 242 1394 c 0,9,10
 266 1394 266 1394 286.5 1385 c 128,-1,11
 307 1376 307 1376 322.5 1360.5 c 128,-1,12
 338 1345 338 1345 346.5 1323.5 c 128,-1,13
 355 1302 355 1302 355 1277 c 0,14,15
 355 1263 355 1263 351 1236.5 c 128,-1,16
 347 1210 347 1210 338 1165.5 c 128,-1,17
 329 1121 329 1121 314.5 1054.5 c 128,-1,18
 300 988 300 988 279 894 c 1,19,-1
 207 894 l 1,0,1
EndSplineSet
EndChar

StartChar: asterisk
Encoding: 42 42 6
Width: 1126
Flags: W
LayerCount: 2
Fore
SplineSet
568 347 m 1,0,-1
 574 687 l 1,1,-1
 355 467 l 1,2,-1
 250 467 l 1,3,-1
 527 746 l 1,4,-1
 203 746 l 1,5,-1
 223 839 l 1,6,-1
 547 839 l 1,7,-1
 277 1104 l 1,8,-1
 370 1104 l 1,9,-1
 579 899 l 1,10,-1
 585 1199 l 1,11,-1
 704 1239 l 1,12,-1
 699 912 l 1,13,-1
 905 1104 l 1,14,-1
 1013 1104 l 1,15,-1
 730 839 l 1,16,-1
 1065 839 l 1,17,-1
 1043 746 l 1,18,-1
 729 746 l 1,19,-1
 1002 467 l 1,20,-1
 910 467 l 1,21,-1
 696 687 l 1,22,-1
 688 386 l 1,23,-1
 568 347 l 1,0,-1
EndSplineSet
EndChar

StartChar: plus
Encoding: 43 43 7
Width: 1253
GlyphClass: 2
Flags: W
LayerCount: 2
Fore
SplineSet
1129 578 m 1,0,-1
 707 578 l 1,1,-1
 707 141 l 1,2,-1
 517 141 l 1,3,-1
 517 578 l 1,4,-1
 109 578 l 1,5,-1
 109 765 l 1,6,-1
 517 765 l 1,7,-1
 517 1186 l 1,8,-1
 707 1186 l 1,9,-1
 707 765 l 1,10,-1
 1129 765 l 1,11,-1
 1129 578 l 1,0,-1
EndSplineSet
EndChar

StartChar: hyphen
Encoding: 45 45 8
Width: 1360
Flags: W
LayerCount: 2
Fore
SplineSet
182 721 m 1,0,-1
 1167 721 l 1,1,-1
 1167 573 l 1,2,-1
 182 573 l 1,3,-1
 182 721 l 1,0,-1
EndSplineSet
EndChar

StartChar: period
Encoding: 46 46 9
Width: 723
GlyphClass: 2
Flags: W
LayerCount: 2
Fore
SplineSet
628 174 m 0,0,1
 628 100 628 100 578 49.5 c 128,-1,2
 528 -1 528 -1 454 -1 c 256,3,4
 380 -1 380 -1 330 49.5 c 128,-1,5
 280 100 280 100 280 174 c 0,6,7
 280 247 280 247 330.5 298 c 128,-1,8
 381 349 381 349 454 349 c 256,9,10
 527 349 527 349 577.5 298 c 128,-1,11
 628 247 628 247 628 174 c 0,0,1
EndSplineSet
EndChar

StartChar: slash
Encoding: 47 47 10
Width: 656
Flags: W
LayerCount: 2
Fore
SplineSet
549 1253 m 1,0,-1
 261 -107 l 1,1,-1
 134 -107 l 1,2,-1
 421 1253 l 1,3,-1
 549 1253 l 1,0,-1
EndSplineSet
EndChar

StartChar: less
Encoding: 60 60 11
Width: 992
Flags: W
LayerCount: 2
Fore
SplineSet
54 367 m 1,0,-1
 54 513 l 1,1,-1
 938 902 l 1,2,-1
 938 734 l 1,3,-1
 268 440 l 1,4,-1
 938 146 l 1,5,-1
 938 -21 l 1,6,-1
 54 367 l 1,0,-1
EndSplineSet
EndChar

StartChar: equal
Encoding: 61 61 12
Width: 969
Flags: W
LayerCount: 2
Fore
SplineSet
840 194 m 1,0,-1
 118 194 l 1,1,-1
 118 326 l 1,2,-1
 840 326 l 1,3,-1
 840 194 l 1,0,-1
840 462 m 1,4,-1
 118 462 l 1,5,-1
 118 594 l 1,6,-1
 840 594 l 1,7,-1
 840 462 l 1,4,-1
EndSplineSet
EndChar

StartChar: greater
Encoding: 62 62 13
Width: 992
Flags: W
LayerCount: 2
Fore
SplineSet
54 146 m 1,0,-1
 724 440 l 1,1,-1
 54 734 l 1,2,-1
 54 902 l 1,3,-1
 938 513 l 1,4,-1
 938 367 l 1,5,-1
 54 -21 l 1,6,-1
 54 146 l 1,0,-1
EndSplineSet
EndChar

StartChar: bracketleft
Encoding: 91 91 14
Width: 569
GlyphClass: 2
Flags: W
LayerCount: 2
Fore
SplineSet
514 -254 m 1,0,-1
 114 -254 l 1,1,-1
 114 1157 l 1,2,-1
 514 1157 l 1,3,-1
 514 1100 l 1,4,-1
 406 1100 l 2,5,6
 371 1100 371 1100 348.5 1095 c 128,-1,7
 326 1090 326 1090 313.5 1077 c 128,-1,8
 301 1064 301 1064 296.5 1041 c 128,-1,9
 292 1018 292 1018 292 981 c 2,10,-1
 292 -108 l 2,11,12
 292 -135 292 -135 295.5 -152 c 128,-1,13
 299 -169 299 -169 308.5 -179.5 c 128,-1,14
 318 -190 318 -190 334.5 -194 c 128,-1,15
 351 -198 351 -198 377 -198 c 2,16,-1
 514 -198 l 1,17,-1
 514 -254 l 1,0,-1
EndSplineSet
EndChar

StartChar: bracketright
Encoding: 93 93 15
Width: 569
GlyphClass: 2
Flags: W
LayerCount: 2
Fore
SplineSet
55 -198 m 1,0,-1
 192 -198 l 2,1,2
 217 -198 217 -198 234 -195 c 128,-1,3
 251 -192 251 -192 260 -181 c 128,-1,4
 269 -170 269 -170 272.5 -153 c 128,-1,5
 276 -136 276 -136 276 -108 c 2,6,-1
 276 981 l 2,7,8
 276 1018 276 1018 271.5 1041 c 128,-1,9
 267 1064 267 1064 255 1077 c 128,-1,10
 243 1090 243 1090 220.5 1095 c 128,-1,11
 198 1100 198 1100 163 1100 c 2,12,-1
 55 1100 l 1,13,-1
 55 1157 l 1,14,-1
 454 1157 l 1,15,-1
 454 -254 l 1,16,-1
 55 -254 l 1,17,-1
 55 -198 l 1,0,-1
EndSplineSet
EndChar

StartChar: grave
Encoding: 96 96 16
Width: 569
Flags: W
LayerCount: 2
Fore
SplineSet
345 864 m 1,0,-1
 81 1030 l 2,1,2
 59 1047 59 1047 45.5 1064.5 c 128,-1,3
 32 1082 32 1082 32 1104 c 0,4,5
 32 1128 32 1128 47.5 1142.5 c 128,-1,6
 63 1157 63 1157 91 1157 c 0,7,8
 109 1157 109 1157 124 1148.5 c 128,-1,9
 139 1140 139 1140 163 1117 c 2,10,-1
 413 864 l 1,11,-1
 345 864 l 1,0,-1
EndSplineSet
EndChar

StartChar: braceleft
Encoding: 123 123 17
Width: 673
GlyphClass: 2
Flags: W
LayerCount: 2
Fore
SplineSet
220 247 m 2,0,1
 220 292 220 292 211.5 324 c 128,-1,2
 203 356 203 356 182.5 378.5 c 128,-1,3
 162 401 162 401 126.5 416.5 c 128,-1,4
 91 432 91 432 37 446 c 1,5,6
 91 458 91 458 126.5 474 c 128,-1,7
 162 490 162 490 182.5 512.5 c 128,-1,8
 203 535 203 535 211.5 566.5 c 128,-1,9
 220 598 220 598 220 643 c 2,10,-1
 220 949 l 2,11,12
 220 1089 220 1089 305 1140 c 0,13,14
 326 1155 326 1155 350 1164.5 c 128,-1,15
 374 1174 374 1174 406 1179.5 c 128,-1,16
 438 1185 438 1185 480.5 1187.5 c 128,-1,17
 523 1190 523 1190 580 1191 c 1,18,-1
 580 1170 l 1,19,20
 528 1159 528 1159 494 1143 c 128,-1,21
 460 1127 460 1127 438.5 1102 c 128,-1,22
 417 1077 417 1077 408 1042.5 c 128,-1,23
 399 1008 399 1008 399 959 c 2,24,-1
 399 667 l 2,25,26
 399 614 399 614 390.5 577 c 128,-1,27
 382 540 382 540 358.5 515 c 128,-1,28
 335 490 335 490 296.5 474 c 128,-1,29
 258 458 258 458 198 446 c 1,30,31
 258 433 258 433 296.5 417 c 128,-1,32
 335 401 335 401 358.5 376 c 128,-1,33
 382 351 382 351 390.5 314 c 128,-1,34
 399 277 399 277 399 224 c 2,35,-1
 399 -69 l 2,36,37
 399 -117 399 -117 408.5 -152 c 128,-1,38
 418 -187 418 -187 439.5 -212 c 128,-1,39
 461 -237 461 -237 495.5 -252.5 c 128,-1,40
 530 -268 530 -268 580 -278 c 1,41,-1
 580 -297 l 1,42,43
 518 -297 518 -297 471 -294.5 c 128,-1,44
 424 -292 424 -292 390 -284 c 128,-1,45
 356 -276 356 -276 330.5 -264.5 c 128,-1,46
 305 -253 305 -253 286 -237 c 0,47,48
 252 -207 252 -207 236 -164.5 c 128,-1,49
 220 -122 220 -122 220 -59 c 2,50,-1
 220 247 l 2,0,1
EndSplineSet
EndChar

StartChar: bar
Encoding: 124 124 18
Width: 375
Flags: W
LayerCount: 2
Fore
SplineSet
113 1179 m 1,0,-1
 262 1179 l 1,1,-1
 262 -32 l 1,2,-1
 113 -32 l 1,3,-1
 113 1179 l 1,0,-1
EndSplineSet
EndChar

StartChar: asciitilde
Encoding: 126 126 19
Width: 888
Flags: W
LayerCount: 2
Fore
SplineSet
838 443 m 1,0,1
 809 403 809 403 783.5 375.5 c 128,-1,2
 758 348 758 348 733.5 330.5 c 128,-1,3
 709 313 709 313 683.5 305 c 128,-1,4
 658 297 658 297 629 297 c 0,5,6
 607 297 607 297 587.5 300.5 c 128,-1,7
 568 304 568 304 547 311 c 128,-1,8
 526 318 526 318 502.5 328.5 c 128,-1,9
 479 339 479 339 449 355 c 0,10,11
 390 386 390 386 346.5 400.5 c 128,-1,12
 303 415 303 415 258 415 c 0,13,14
 221 415 221 415 195 399 c 128,-1,15
 169 383 169 383 140 343 c 1,16,-1
 49 421 l 1,17,18
 94 498 94 498 143.5 531.5 c 128,-1,19
 193 565 193 565 261 565 c 0,20,21
 283 565 283 565 302.5 562 c 128,-1,22
 322 559 322 559 348 551 c 128,-1,23
 374 543 374 543 408 528.5 c 128,-1,24
 442 514 442 514 490 492 c 0,25,26
 519 480 519 480 540 471.5 c 128,-1,27
 561 463 561 463 577 458 c 128,-1,28
 593 453 593 453 605 451 c 128,-1,29
 617 449 617 449 629 449 c 0,30,31
 658 449 658 449 685.5 466.5 c 128,-1,32
 713 484 713 484 744 526 c 1,33,-1
 838 443 l 1,0,1
EndSplineSet
EndChar

StartChar: agrave
Encoding: 224 224 20
Width: 1075
Flags: W
LayerCount: 2
Fore
SplineSet
741 331 m 1,0,1
 720 266 720 266 690.5 213 c 128,-1,2
 661 160 661 160 626 114 c 0,3,4
 519 -19 519 -19 400 -19 c 0,5,6
 208 -19 208 -19 159 214 c 0,7,8
 133 334 133 334 157 451 c 128,-1,9
 181 568 181 568 252 683 c 0,10,11
 325 801 325 801 433 860 c 128,-1,12
 541 919 541 919 684 919 c 0,13,14
 712 919 712 919 746 918.5 c 128,-1,15
 780 918 780 918 815.5 916 c 128,-1,16
 851 914 851 914 886 912 c 128,-1,17
 921 910 921 910 952 908 c 1,18,-1
 946 646 l 1,19,-1
 946 647 l 1,20,-1
 950 254 l 2,21,22
 952 209 952 209 954.5 179.5 c 128,-1,23
 957 150 957 150 958 139 c 0,24,25
 961 114 961 114 985 114 c 0,26,27
 1053 114 1053 114 1214 346 c 1,28,-1
 1218 179 l 1,29,30
 1073 -19 1073 -19 925 -19 c 0,31,32
 785 -19 785 -19 753 126 c 0,33,34
 749 146 749 146 747 182 c 128,-1,35
 745 218 745 218 745 264 c 2,36,-1
 741 331 l 1,0,1
737 758 m 1,37,38
 688 775 688 775 647 783.5 c 128,-1,39
 606 792 606 792 561 792 c 0,40,41
 497 792 497 792 453.5 749.5 c 128,-1,42
 410 707 410 707 387 625 c 0,43,44
 362 522 362 522 357 425 c 128,-1,45
 352 328 352 328 368 248 c 0,46,47
 388 146 388 146 437 146 c 0,48,49
 493 146 493 146 589 280 c 0,50,51
 637 352 637 352 674 430 c 128,-1,52
 711 508 711 508 739 599 c 1,53,-1
 737 758 l 1,37,38
634 519 m 1,54,-1
 370 685 l 2,55,56
 348 702 348 702 334.5 719.5 c 128,-1,57
 321 737 321 737 321 759 c 0,58,59
 321 783 321 783 336.5 797.5 c 128,-1,60
 352 812 352 812 380 812 c 0,61,62
 398 812 398 812 413 803.5 c 128,-1,63
 428 795 428 795 452 772 c 2,64,-1
 702 519 l 1,65,-1
 634 519 l 1,54,-1
EndSplineSet
EndChar

StartChar: ocircumflex.001
Encoding: 65539 -1 26
Width: 1112
Flags: W
LayerCount: 2
Fore
SplineSet
416 -19 m 0,0,1
 301 -19 301 -19 205 70 c 0,2,3
 110 160 110 160 85 288 c 0,4,5
 32 528 32 528 170 726 c 0,6,7
 307 928 307 928 522 928 c 0,8,9
 643 928 643 928 742 842 c 1,10,11
 837 753 837 753 864 626 c 0,12,13
 890 499 890 499 869 388.5 c 128,-1,14
 848 278 848 278 781 179 c 0,15,16
 711 79 711 79 619.5 30 c 128,-1,17
 528 -19 528 -19 416 -19 c 0,0,1
483 98 m 0,18,19
 536 98 536 98 573.5 133 c 128,-1,20
 611 168 611 168 637 236 c 0,21,22
 665 310 665 310 668.5 393.5 c 128,-1,23
 672 477 672 477 652 574 c 0,24,25
 602 813 602 813 466 813 c 0,26,27
 365 813 365 813 313 670 c 0,28,29
 284 595 284 595 281 510.5 c 128,-1,30
 278 426 278 426 298 332 c 0,31,32
 324 213 324 213 370 155.5 c 128,-1,33
 416 98 416 98 483 98 c 0,18,19
EndSplineSet
EndChar

StartChar: dagger
Encoding: 8224 8224 30
Width: 932
Flags: W
LayerCount: 2
Fore
SplineSet
347 -231 m 1,0,-1
 567 622 l 1,1,-1
 248 592 l 1,2,-1
 297 700 l 1,3,-1
 576 668 l 1,4,-1
 607 1066 l 1,5,-1
 755 1093 l 1,6,-1
 621 668 l 1,7,-1
 941 700 l 1,8,-1
 895 592 l 1,9,-1
 612 622 l 1,10,-1
 496 -213 l 1,11,-1
 347 -231 l 1,0,-1
EndSplineSet
EndChar

StartChar: degree
Encoding: 176 176 31
Width: 409
Flags: W
LayerCount: 2
Fore
SplineSet
395 844 m 0,0,1
 344 844 344 844 307.5 880 c 128,-1,2
 271 916 271 916 271 968 c 0,3,4
 271 1021 271 1021 307.5 1057 c 128,-1,5
 344 1093 344 1093 395 1093 c 0,6,7
 447 1093 447 1093 483 1057 c 128,-1,8
 519 1021 519 1021 519 968 c 0,9,10
 519 916 519 916 483 880 c 128,-1,11
 447 844 447 844 395 844 c 0,0,1
395 888 m 256,12,13
 427 888 427 888 450.5 912 c 128,-1,14
 474 936 474 936 474 968 c 256,15,16
 474 1000 474 1000 450.5 1024 c 128,-1,17
 427 1048 427 1048 395 1048 c 256,18,19
 363 1048 363 1048 339 1024 c 128,-1,20
 315 1000 315 1000 315 968 c 256,21,22
 315 936 315 936 339 912 c 128,-1,23
 363 888 363 888 395 888 c 256,12,13
EndSplineSet
EndChar

StartChar: bullet
Encoding: 8226 8226 32
Width: 931
Flags: W
LayerCount: 2
Fore
SplineSet
817 662 m 256,0,1
 817 517 817 517 713.5 414 c 128,-1,2
 610 311 610 311 465 311 c 256,3,4
 320 311 320 311 217 414 c 128,-1,5
 114 517 114 517 114 662 c 256,6,7
 114 807 114 807 217 910 c 128,-1,8
 320 1013 320 1013 465 1013 c 256,9,10
 610 1013 610 1013 713.5 910 c 128,-1,11
 817 807 817 807 817 662 c 256,0,1
EndSplineSet
EndChar

StartChar: registered
Encoding: 174 174 33
Width: 897
Flags: W
LayerCount: 2
Fore
SplineSet
580 445 m 0,0,1
 448 445 448 445 354.5 538.5 c 128,-1,2
 261 632 261 632 261 764 c 256,3,4
 261 896 261 896 354.5 990 c 128,-1,5
 448 1084 448 1084 580 1084 c 0,6,7
 714 1084 714 1084 807 990 c 128,-1,8
 900 896 900 896 900 764 c 256,9,10
 900 632 900 632 806.5 538.5 c 128,-1,11
 713 445 713 445 580 445 c 0,0,1
580 484 m 0,12,13
 695 484 695 484 777.5 567 c 128,-1,14
 860 650 860 650 860 764 c 256,15,16
 860 878 860 878 777.5 961 c 128,-1,17
 695 1044 695 1044 580 1044 c 0,18,19
 466 1044 466 1044 383.5 961 c 128,-1,20
 301 878 301 878 301 764 c 256,21,22
 301 650 301 650 383.5 567 c 128,-1,23
 466 484 466 484 580 484 c 0,12,13
529 737 m 1,24,-1
 501 596 l 1,25,-1
 394 596 l 1,26,-1
 403 639 l 1,27,-1
 456 639 l 1,28,-1
 511 915 l 1,29,-1
 458 915 l 1,30,-1
 466 959 l 1,31,-1
 598 959 l 2,32,33
 751 959 751 959 751 875 c 0,34,35
 751 800 751 800 650 750 c 1,36,-1
 685 639 l 1,37,-1
 747 639 l 1,38,-1
 738 596 l 1,39,-1
 641 596 l 1,40,-1
 591 737 l 1,41,-1
 529 737 l 1,24,-1
538 782 m 1,42,-1
 574 782 l 2,43,44
 697 782 697 782 697 866 c 0,45,46
 697 915 697 915 607 915 c 2,47,-1
 564 915 l 1,48,-1
 538 782 l 1,42,-1
EndSplineSet
EndChar

StartChar: copyright
Encoding: 169 169 34
Width: 1244
Flags: W
LayerCount: 2
Fore
SplineSet
725 -27 m 0,0,1
 495 -27 495 -27 330.5 137 c 128,-1,2
 166 301 166 301 166 533 c 256,3,4
 166 765 166 765 330.5 929 c 128,-1,5
 495 1093 495 1093 725 1093 c 0,6,7
 958 1093 958 1093 1122 929 c 128,-1,8
 1286 765 1286 765 1286 533 c 256,9,10
 1286 301 1286 301 1122 137 c 128,-1,11
 958 -27 958 -27 725 -27 c 0,0,1
725 18 m 0,12,13
 939 18 939 18 1090 169 c 128,-1,14
 1241 320 1241 320 1241 533 c 256,15,16
 1241 746 1241 746 1090 897 c 128,-1,17
 939 1048 939 1048 725 1048 c 0,18,19
 513 1048 513 1048 362 897 c 128,-1,20
 211 746 211 746 211 533 c 256,21,22
 211 320 211 320 362 169 c 128,-1,23
 513 18 513 18 725 18 c 0,12,13
890 246 m 1,24,25
 785 213 785 213 704 213 c 0,26,27
 580 213 580 213 508 279.5 c 128,-1,28
 436 346 436 346 436 462 c 0,29,30
 436 625 436 625 541 734.5 c 128,-1,31
 646 844 646 844 805 844 c 0,32,33
 896 844 896 844 1003 814 c 1,34,-1
 967 675 l 1,35,-1
 915 684 l 1,36,-1
 923 766 l 1,37,38
 854 798 854 798 792 798 c 0,39,40
 688 798 688 798 616 700 c 128,-1,41
 544 602 544 602 544 462 c 0,42,43
 544 271 544 271 722 271 c 0,44,45
 823 271 823 271 902 307 c 1,46,-1
 890 246 l 1,24,25
EndSplineSet
EndChar

StartChar: trademark
Encoding: 8482 8482 35
Width: 1333
Flags: W
LayerCount: 2
Fore
SplineSet
440 1021 m 1,0,-1
 307 1021 l 1,1,-1
 288 923 l 1,2,-1
 225 923 l 1,3,-1
 254 1066 l 1,4,-1
 751 1066 l 1,5,-1
 723 923 l 1,6,-1
 661 923 l 1,7,-1
 679 1021 l 1,8,-1
 546 1021 l 1,9,-1
 456 569 l 1,10,-1
 554 569 l 1,11,-1
 545 524 l 1,12,-1
 243 524 l 1,13,-1
 253 569 l 1,14,-1
 350 569 l 1,15,-1
 440 1021 l 1,0,-1
1011 569 m 1,16,-1
 942 956 l 1,17,-1
 857 524 l 1,18,-1
 688 524 l 1,19,-1
 697 569 l 1,20,-1
 794 569 l 1,21,-1
 884 1021 l 1,22,-1
 787 1021 l 1,23,-1
 796 1066 l 1,24,-1
 1036 1066 l 1,25,-1
 1092 747 l 1,26,-1
 1265 1066 l 1,27,-1
 1481 1066 l 1,28,-1
 1473 1021 l 1,29,-1
 1375 1021 l 1,30,-1
 1285 569 l 1,31,-1
 1383 569 l 1,32,-1
 1373 524 l 1,33,-1
 1178 524 l 1,34,-1
 1270 985 l 1,35,-1
 1041 569 l 1,36,-1
 1011 569 l 1,16,-1
EndSplineSet
EndChar

StartChar: logicalnot
Encoding: 172 172 39
Width: 932
Flags: W
LayerCount: 2
Fore
SplineSet
177 510 m 1,0,-1
 193 590 l 1,1,-1
 975 590 l 1,2,-1
 906 248 l 1,3,-1
 814 248 l 1,4,-1
 866 510 l 1,5,-1
 177 510 l 1,0,-1
EndSplineSet
EndChar

StartChar: florin
Encoding: 402 402 40
Width: 679
Flags: W
LayerCount: 2
Fore
SplineSet
158 -231 m 1,0,-1
 210 -18 l 1,1,-1
 286 364 l 1,2,-1
 108 364 l 1,3,-1
 117 409 l 1,4,-1
 294 409 l 1,5,-1
 298 427 l 2,6,7
 330 586 330 586 463 692.5 c 128,-1,8
 596 799 596 799 761 799 c 0,9,10
 818 799 818 799 860 784 c 1,11,-1
 764 678 l 1,12,13
 712 729 712 729 643 729 c 0,14,15
 500 729 500 729 457 512 c 2,16,-1
 436 409 l 1,17,-1
 623 409 l 1,18,-1
 614 364 l 1,19,-1
 427 364 l 1,20,-1
 313 -213 l 1,21,-1
 158 -231 l 1,0,-1
EndSplineSet
EndChar

StartChar: ellipsis
Encoding: 8230 8230 41
Width: 1827
Flags: W
LayerCount: 2
Fore
SplineSet
758 113 m 0,0,1
 758 144 758 144 809.5 245.5 c 128,-1,2
 861 347 861 347 876 355 c 0,3,4
 907 369 907 369 964.5 307.5 c 128,-1,5
 1022 246 1022 246 1026 211 c 1,6,7
 1026 166 1026 166 977.5 79.5 c 128,-1,8
 929 -7 929 -7 908 -7 c 0,9,10
 899 -7 899 -7 851 26.5 c 128,-1,11
 803 60 803 60 778 79 c 0,12,13
 758 96 758 96 758 113 c 0,0,1
1308 113 m 0,14,15
 1308 144 1308 144 1359 245.5 c 128,-1,16
 1410 347 1410 347 1426 355 c 0,17,18
 1457 369 1457 369 1514.5 307.5 c 128,-1,19
 1572 246 1572 246 1575 211 c 0,20,21
 1575 166 1575 166 1527 79.5 c 128,-1,22
 1479 -7 1479 -7 1458 -7 c 0,23,24
 1449 -7 1449 -7 1401 26.5 c 128,-1,25
 1353 60 1353 60 1328 79 c 0,26,27
 1308 96 1308 96 1308 113 c 0,14,15
211 113 m 0,28,29
 211 144 211 144 262 245.5 c 128,-1,30
 313 347 313 347 329 355 c 0,31,32
 360 369 360 369 417.5 307.5 c 128,-1,33
 475 246 475 246 478 211 c 0,34,35
 478 166 478 166 430 79.5 c 128,-1,36
 382 -7 382 -7 361 -7 c 0,37,38
 352 -7 352 -7 304 26.5 c 128,-1,39
 256 60 256 60 231 79 c 0,40,41
 211 96 211 96 211 113 c 0,28,29
EndSplineSet
EndChar

StartChar: endash
Encoding: 8211 8211 42
Width: 434
Flags: W
LayerCount: 2
Fore
SplineSet
434 154 m 1,0,-1
 0 154 l 1,1,-1
 0 234 l 1,2,-1
 434 234 l 1,3,-1
 434 154 l 1,0,-1
EndSplineSet
EndChar

StartChar: emdash
Encoding: 8212 8212 43
Width: 1862
Flags: W
LayerCount: 2
Fore
SplineSet
1866 572 m 1,0,-1
 -4 572 l 1,1,-1
 -4 732 l 1,2,-1
 1866 732 l 1,3,-1
 1866 572 l 1,0,-1
EndSplineSet
EndChar

StartChar: quotedblleft
Encoding: 8220 8220 44
Width: 731
Flags: W
LayerCount: 2
Fore
SplineSet
108 1115 m 0,0,1
 109 1202 109 1202 168 1287 c 128,-1,2
 227 1372 227 1372 301 1407 c 1,3,-1
 342 1329 l 1,4,5
 321 1317 321 1317 291.5 1285 c 128,-1,6
 262 1253 262 1253 248 1202 c 1,7,8
 337 1165 337 1165 333 1091 c 0,9,10
 333 1069 333 1069 324.5 1049.5 c 128,-1,11
 316 1030 316 1030 301 1015.5 c 128,-1,12
 286 1001 286 1001 266 992.5 c 128,-1,13
 246 984 246 984 224 984 c 0,14,15
 197 984 197 984 175.5 995.5 c 128,-1,16
 154 1007 154 1007 139 1025.5 c 128,-1,17
 124 1044 124 1044 116 1067.5 c 128,-1,18
 108 1091 108 1091 108 1115 c 0,0,1
408 1115 m 0,19,20
 409 1202 409 1202 468 1287 c 128,-1,21
 527 1372 527 1372 601 1407 c 1,22,-1
 642 1329 l 1,23,24
 621 1317 621 1317 591.5 1285 c 128,-1,25
 562 1253 562 1253 548 1202 c 1,26,27
 637 1165 637 1165 633 1091 c 0,28,29
 633 1069 633 1069 624.5 1049.5 c 128,-1,30
 616 1030 616 1030 601 1015.5 c 128,-1,31
 586 1001 586 1001 566 992.5 c 128,-1,32
 546 984 546 984 524 984 c 0,33,34
 497 984 497 984 475.5 995.5 c 128,-1,35
 454 1007 454 1007 439 1025.5 c 128,-1,36
 424 1044 424 1044 416 1067.5 c 128,-1,37
 408 1091 408 1091 408 1115 c 0,19,20
EndSplineSet
EndChar

StartChar: quotedblright
Encoding: 8221 8221 45
Width: 738
Flags: W
LayerCount: 2
Fore
SplineSet
642 1276 m 0,0,1
 641 1189 641 1189 582 1104 c 128,-1,2
 523 1019 523 1019 449 984 c 1,3,-1
 408 1062 l 1,4,5
 429 1074 429 1074 458.5 1106 c 128,-1,6
 488 1138 488 1138 502 1189 c 1,7,8
 413 1226 413 1226 417 1300 c 0,9,10
 417 1322 417 1322 425.5 1341.5 c 128,-1,11
 434 1361 434 1361 449 1375.5 c 128,-1,12
 464 1390 464 1390 484 1398.5 c 128,-1,13
 504 1407 504 1407 526 1407 c 0,14,15
 553 1407 553 1407 574.5 1395.5 c 128,-1,16
 596 1384 596 1384 611 1365.5 c 128,-1,17
 626 1347 626 1347 634 1323.5 c 128,-1,18
 642 1300 642 1300 642 1276 c 0,0,1
342 1276 m 0,19,20
 341 1189 341 1189 282 1104 c 128,-1,21
 223 1019 223 1019 149 984 c 1,22,-1
 108 1062 l 1,23,24
 129 1074 129 1074 158.5 1106 c 128,-1,25
 188 1138 188 1138 202 1189 c 1,26,27
 113 1226 113 1226 117 1300 c 0,28,29
 117 1322 117 1322 125.5 1341.5 c 128,-1,30
 134 1361 134 1361 149 1375.5 c 128,-1,31
 164 1390 164 1390 184 1398.5 c 128,-1,32
 204 1407 204 1407 226 1407 c 0,33,34
 253 1407 253 1407 274.5 1395.5 c 128,-1,35
 296 1384 296 1384 311 1365.5 c 128,-1,36
 326 1347 326 1347 334 1323.5 c 128,-1,37
 342 1300 342 1300 342 1276 c 0,19,20
EndSplineSet
EndChar

StartChar: divide
Encoding: 247 247 46
Width: 1093
Flags: W
LayerCount: 2
Fore
SplineSet
933 469 m 1,0,-1
 157 469 l 1,1,-1
 157 615 l 1,2,-1
 933 615 l 1,3,-1
 933 469 l 1,0,-1
658 215 m 256,4,5
 658 160 658 160 620.5 121.5 c 128,-1,6
 583 83 583 83 527 83 c 256,7,8
 471 83 471 83 433.5 121.5 c 128,-1,9
 396 160 396 160 396 215 c 256,10,11
 396 270 396 270 434.5 308 c 128,-1,12
 473 346 473 346 527 346 c 256,13,14
 581 346 581 346 619.5 308 c 128,-1,15
 658 270 658 270 658 215 c 256,4,5
658 874 m 256,16,17
 658 819 658 819 620.5 780.5 c 128,-1,18
 583 742 583 742 527 742 c 256,19,20
 471 742 471 742 433.5 780.5 c 128,-1,21
 396 819 396 819 396 874 c 256,22,23
 396 929 396 929 434.5 967 c 128,-1,24
 473 1005 473 1005 527 1005 c 256,25,26
 581 1005 581 1005 619.5 967 c 128,-1,27
 658 929 658 929 658 874 c 256,16,17
EndSplineSet
EndChar

StartChar: lozenge
Encoding: 9674 9674 47
Width: 1118
Flags: W
LayerCount: 2
Fore
SplineSet
1003 699 m 1,0,-1
 560 197 l 1,1,-1
 117 699 l 1,2,-1
 560 1202 l 1,3,-1
 1003 699 l 1,0,-1
848 699 m 1,4,-1
 560 1036 l 1,5,-1
 271 699 l 1,6,-1
 560 364 l 1,7,-1
 848 699 l 1,4,-1
EndSplineSet
EndChar

StartChar: fraction
Encoding: 8260 8260 48
Width: 742
Flags: W
LayerCount: 2
Fore
SplineSet
740 1101 m 1,0,-1
 101 -82 l 1,1,-1
 -9 -82 l 1,2,-1
 629 1101 l 1,3,-1
 740 1101 l 1,0,-1
EndSplineSet
EndChar

StartChar: guilsinglleft
Encoding: 8249 8249 49
Width: 1117
Flags: W
LayerCount: 2
Fore
SplineSet
955 58 m 1,0,-1
 150 444 l 1,1,-1
 150 534 l 1,2,-1
 955 918 l 1,3,-1
 955 784 l 1,4,-1
 331 489 l 1,5,-1
 955 192 l 1,6,-1
 955 58 l 1,0,-1
EndSplineSet
EndChar

StartChar: daggerdbl
Encoding: 8225 8225 52
Width: 932
Flags: W
LayerCount: 2
Fore
SplineSet
349 -231 m 1,0,-1
 481 185 l 1,1,-1
 161 154 l 1,2,-1
 211 261 l 1,3,-1
 490 229 l 1,4,-1
 567 616 l 1,5,-1
 247 586 l 1,6,-1
 297 693 l 1,7,-1
 575 661 l 1,8,-1
 608 1066 l 1,9,-1
 758 1093 l 1,10,-1
 620 661 l 1,11,-1
 940 693 l 1,12,-1
 889 586 l 1,13,-1
 611 616 l 1,14,-1
 535 229 l 1,15,-1
 855 261 l 1,16,-1
 804 154 l 1,17,-1
 525 185 l 1,18,-1
 499 -213 l 1,19,-1
 349 -231 l 1,0,-1
EndSplineSet
EndChar

StartChar: middot.001
Encoding: 8729 8729 53
Width: 620
Flags: W
LayerCount: 2
Fore
SplineSet
429 516 m 1,0,-1
 190 516 l 1,1,-1
 190 789 l 1,2,-1
 429 789 l 1,3,-1
 429 516 l 1,0,-1
EndSplineSet
EndChar

StartChar: quotesinglbase
Encoding: 8218 8218 54
Width: 418
Flags: W
LayerCount: 2
Fore
SplineSet
103 128 m 1,0,-1
 247 231 l 1,1,-1
 353 90 l 1,2,3
 345 -56 345 -56 262.5 -134.5 c 128,-1,4
 180 -213 180 -213 36 -213 c 1,5,-1
 76 -168 l 1,6,7
 189 -158 189 -158 211 -18 c 1,8,-1
 103 128 l 1,0,-1
EndSplineSet
EndChar

StartChar: quotedblbase
Encoding: 8222 8222 55
Width: 684
Flags: W
LayerCount: 2
Fore
SplineSet
91 92 m 1,0,-1
 204 178 l 1,1,-1
 292 64 l 1,2,3
 270 -213 270 -213 31 -213 c 1,4,-1
 60 -168 l 1,5,6
 166 -148 166 -148 179 -16 c 1,7,-1
 91 92 l 1,0,-1
401 92 m 1,8,-1
 516 178 l 1,9,-1
 602 64 l 1,10,11
 581 -213 581 -213 341 -213 c 1,12,-1
 372 -168 l 1,13,14
 476 -148 476 -148 490 -16 c 1,15,-1
 401 92 l 1,8,-1
EndSplineSet
EndChar

StartChar: perthousand
Encoding: 8240 8240 56
Width: 1571
Flags: W
LayerCount: 2
Fore
SplineSet
385 533 m 0,0,1
 304 533 304 533 254.5 584.5 c 128,-1,2
 205 636 205 636 205 722 c 0,3,4
 205 865 205 865 286.5 965.5 c 128,-1,5
 368 1066 368 1066 483 1066 c 0,6,7
 567 1066 567 1066 617.5 1014.5 c 128,-1,8
 668 963 668 963 668 877 c 0,9,10
 668 733 668 733 585.5 633 c 128,-1,11
 503 533 503 533 385 533 c 0,0,1
311 715 m 0,12,13
 311 578 311 578 398 578 c 0,14,15
 463 578 463 578 517 671.5 c 128,-1,16
 571 765 571 765 571 881 c 0,17,18
 571 1022 571 1022 483 1022 c 0,19,20
 416 1022 416 1022 363.5 928 c 128,-1,21
 311 834 311 834 311 715 c 0,12,13
850 0 m 0,22,23
 769 0 769 0 719.5 51.5 c 128,-1,24
 670 103 670 103 670 189 c 0,25,26
 670 331 670 331 751 432 c 128,-1,27
 832 533 832 533 947 533 c 0,28,29
 1031 533 1031 533 1081.5 481.5 c 128,-1,30
 1132 430 1132 430 1132 344 c 0,31,32
 1132 200 1132 200 1049.5 100 c 128,-1,33
 967 0 967 0 850 0 c 0,22,23
776 182 m 0,34,35
 776 44 776 44 862 44 c 0,36,37
 929 44 929 44 982 138 c 128,-1,38
 1035 232 1035 232 1035 348 c 0,39,40
 1035 490 1035 490 948 490 c 0,41,42
 880 490 880 490 828 395.5 c 128,-1,43
 776 301 776 301 776 182 c 0,34,35
131 -27 m 1,44,-1
 1111 1093 l 1,45,-1
 1206 1093 l 1,46,-1
 225 -27 l 1,47,-1
 131 -27 l 1,44,-1
1376 0 m 0,48,49
 1294 0 1294 0 1244.5 51.5 c 128,-1,50
 1195 103 1195 103 1195 189 c 0,51,52
 1195 331 1195 331 1276.5 432 c 128,-1,53
 1358 533 1358 533 1473 533 c 0,54,55
 1557 533 1557 533 1607.5 481.5 c 128,-1,56
 1658 430 1658 430 1658 344 c 0,57,58
 1658 200 1658 200 1575.5 100 c 128,-1,59
 1493 0 1493 0 1376 0 c 0,48,49
1301 183 m 0,60,61
 1301 44 1301 44 1389 44 c 0,62,63
 1453 44 1453 44 1507 138 c 128,-1,64
 1561 232 1561 232 1561 347 c 0,65,66
 1561 490 1561 490 1473 490 c 0,67,68
 1406 490 1406 490 1353.5 395.5 c 128,-1,69
 1301 301 1301 301 1301 183 c 0,60,61
EndSplineSet
EndChar

StartChar: multiply
Encoding: 215 215 60
Width: 939
Flags: W
LayerCount: 2
Fore
SplineSet
476 316 m 1,0,-1
 238 82 l 1,1,-1
 117 201 l 1,2,-1
 355 437 l 1,3,-1
 114 674 l 1,4,-1
 234 800 l 1,5,-1
 476 553 l 1,6,-1
 725 804 l 1,7,-1
 843 684 l 1,8,-1
 592 435 l 1,9,-1
 838 195 l 1,10,-1
 713 73 l 1,11,-1
 476 316 l 1,0,-1
EndSplineSet
EndChar

StartChar: macron
Encoding: 175 175 61
Width: 1118
Flags: W
LayerCount: 2
Fore
SplineSet
1134 1259 m 1,0,-1
 -16 1259 l 1,1,-1
 -16 1389 l 1,2,-1
 1134 1389 l 1,3,-1
 1134 1259 l 1,0,-1
EndSplineSet
EndChar

StartChar: periodcentered
Encoding: 183 183 62
Width: 724
Flags: W
LayerCount: 2
Fore
SplineSet
482 832 m 1,0,-1
 243 832 l 1,1,-1
 243 1117 l 1,2,-1
 482 1117 l 1,3,-1
 482 832 l 1,0,-1
EndSplineSet
EndChar

StartChar: H22073
Encoding: 9633 9633 63
Width: 1237
Flags: W
LayerCount: 2
Fore
SplineSet
146 944 m 1,0,-1
 1090 944 l 1,1,-1
 1090 0 l 1,2,-1
 146 0 l 1,3,-1
 146 944 l 1,0,-1
222 868 m 1,4,-1
 222 76 l 1,5,-1
 1014 76 l 1,6,-1
 1014 868 l 1,7,-1
 222 868 l 1,4,-1
EndSplineSet
EndChar

StartChar: H18543
Encoding: 9642 9642 64
Width: 1089
Flags: W
LayerCount: 2
Fore
SplineSet
886 894 m 1,0,-1
 886 200 l 1,1,-1
 192 200 l 1,2,-1
 192 894 l 1,3,-1
 886 894 l 1,0,-1
EndSplineSet
EndChar

StartChar: H18551
Encoding: 9643 9643 65
Width: 1089
Flags: W
LayerCount: 2
Fore
SplineSet
888 930 m 1,0,-1
 888 235 l 1,1,-1
 193 235 l 1,2,-1
 193 930 l 1,3,-1
 888 930 l 1,0,-1
774 816 m 1,4,-1
 307 816 l 1,5,-1
 307 349 l 1,6,-1
 774 349 l 1,7,-1
 774 816 l 1,4,-1
EndSplineSet
EndChar

StartChar: H18533
Encoding: 9679 9679 66
Width: 1339
Flags: W
LayerCount: 2
Fore
SplineSet
204 775 m 0,0,1
 204 976 204 976 345 1117 c 128,-1,2
 486 1258 486 1258 685 1258 c 0,3,4
 885 1258 885 1258 1026 1117 c 128,-1,5
 1167 976 1167 976 1167 775 c 0,6,7
 1167 577 1167 577 1026 436 c 128,-1,8
 885 295 885 295 685 295 c 0,9,10
 486 295 486 295 345 436 c 128,-1,11
 204 577 204 577 204 775 c 0,0,1
EndSplineSet
EndChar

StartChar: openbullet
Encoding: 9702 9702 67
Width: 1089
Flags: W
LayerCount: 2
Fore
SplineSet
544 1392 m 0,0,1
 700 1392 700 1392 810.5 1281.5 c 128,-1,2
 921 1171 921 1171 921 1015 c 256,3,4
 921 859 921 859 810.5 749 c 128,-1,5
 700 639 700 639 544 639 c 256,6,7
 388 639 388 639 278 749 c 128,-1,8
 168 859 168 859 168 1015 c 256,9,10
 168 1171 168 1171 277.5 1281.5 c 128,-1,11
 387 1392 387 1392 544 1392 c 0,0,1
544 1278 m 0,12,13
 435 1278 435 1278 358.5 1200.5 c 128,-1,14
 282 1123 282 1123 282 1015 c 0,15,16
 282 906 282 906 359 829.5 c 128,-1,17
 436 753 436 753 544 753 c 256,18,19
 652 753 652 753 729.5 829.5 c 128,-1,20
 807 906 807 906 807 1015 c 0,21,22
 807 1123 807 1123 730.5 1200.5 c 128,-1,23
 654 1278 654 1278 544 1278 c 0,12,13
EndSplineSet
EndChar

StartChar: uniFFFC
Encoding: 65532 65532 68
Width: 2048
Flags: W
LayerCount: 2
Fore
SplineSet
2048 1150 m 1,0,-1
 1948 1150 l 1,1,-1
 1948 1373 l 1,2,-1
 1725 1373 l 1,3,-1
 1725 1473 l 1,4,-1
 2048 1473 l 1,5,-1
 2048 1150 l 1,0,-1
1473 1373 m 1,6,-1
 1150 1373 l 1,7,-1
 1150 1473 l 1,8,-1
 1473 1473 l 1,9,-1
 1473 1373 l 1,6,-1
2048 575 m 1,10,-1
 1948 575 l 1,11,-1
 1948 898 l 1,12,-1
 2048 898 l 1,13,-1
 2048 575 l 1,10,-1
1782 611 m 2,14,15
 1782 370 1782 370 1571 370 c 0,16,17
 1485 370 1485 370 1433 415 c 1,18,-1
 1506 494 l 1,19,20
 1531 468 1531 468 1571 468 c 0,21,22
 1666 468 1666 468 1666 606 c 2,23,-1
 1666 1090 l 1,24,-1
 1782 1090 l 1,25,-1
 1782 611 l 2,14,15
898 1373 m 1,26,-1
 575 1373 l 1,27,-1
 575 1473 l 1,28,-1
 898 1473 l 1,29,-1
 898 1373 l 1,26,-1
2048 0 m 1,30,-1
 1725 0 l 1,31,-1
 1725 100 l 1,32,-1
 1948 100 l 1,33,-1
 1948 323 l 1,34,-1
 2048 323 l 1,35,-1
 2048 0 l 1,30,-1
1423 591 m 0,36,37
 1423 382 1423 382 1149 382 c 2,38,-1
 909 382 l 1,39,-1
 909 1090 l 1,40,-1
 1144 1090 l 2,41,42
 1393 1090 1393 1090 1393 904 c 0,43,44
 1393 813 1393 813 1304 759 c 1,45,46
 1423 713 1423 713 1423 591 c 0,36,37
323 1373 m 1,47,-1
 100 1373 l 1,48,-1
 100 1150 l 1,49,-1
 0 1150 l 1,50,-1
 0 1473 l 1,51,-1
 323 1473 l 1,52,-1
 323 1373 l 1,47,-1
1473 0 m 1,53,-1
 1150 0 l 1,54,-1
 1150 100 l 1,55,-1
 1473 100 l 1,56,-1
 1473 0 l 1,53,-1
854 735 m 0,57,58
 854 562 854 562 772 466 c 128,-1,59
 690 370 690 370 537 370 c 256,60,61
 384 370 384 370 303.5 466 c 128,-1,62
 223 562 223 562 223 735 c 0,63,64
 223 910 223 910 303.5 1006 c 128,-1,65
 384 1102 384 1102 537 1102 c 256,66,67
 690 1102 690 1102 772 1006 c 128,-1,68
 854 910 854 910 854 735 c 0,57,58
100 575 m 1,69,-1
 0 575 l 1,70,-1
 0 898 l 1,71,-1
 100 898 l 1,72,-1
 100 575 l 1,69,-1
898 0 m 1,73,-1
 575 0 l 1,74,-1
 575 100 l 1,75,-1
 898 100 l 1,76,-1
 898 0 l 1,73,-1
323 0 m 1,77,-1
 0 0 l 1,78,-1
 0 323 l 1,79,-1
 100 323 l 1,80,-1
 100 100 l 1,81,-1
 323 100 l 1,82,-1
 323 0 l 1,77,-1
1277 893 m 0,83,84
 1277 992 1277 992 1114 992 c 2,85,-1
 1025 992 l 1,86,-1
 1025 798 l 1,87,-1
 1126 798 l 2,88,89
 1277 798 1277 798 1277 893 c 0,83,84
1307 591 m 0,90,91
 1307 700 1307 700 1136 700 c 2,92,-1
 1025 700 l 1,93,-1
 1025 480 l 1,94,-1
 1149 480 l 2,95,96
 1307 480 1307 480 1307 591 c 0,90,91
738 735 m 0,97,98
 738 1004 738 1004 537 1004 c 0,99,100
 339 1004 339 1004 339 735 c 0,101,102
 339 468 339 468 537 468 c 0,103,104
 738 468 738 468 738 735 c 0,97,98
EndSplineSet
EndChar

StartChar: zerowidthnonjoiner
Encoding: 8204 8204 88
Width: 0
GlyphClass: 2
Flags: W
LayerCount: 2
Fore
SplineSet
36 1289 m 1,0,-1
 36 -275 l 1,1,-1
 -36 -275 l 1,2,-1
 -36 1289 l 1,3,-1
 36 1289 l 1,0,-1
EndSplineSet
EndChar

StartChar: zerowidthjoiner
Encoding: 8205 8205 89
Width: 0
GlyphClass: 2
Flags: W
LayerCount: 2
Fore
SplineSet
36 -275 m 1,0,-1
 -36 -275 l 1,1,-1
 -36 1114 l 1,2,-1
 -170 978 l 1,3,-1
 -219 1027 l 1,4,-1
 -48 1196 l 1,5,-1
 -219 1364 l 1,6,-1
 -170 1413 l 1,7,-1
 0 1242 l 1,8,-1
 170 1413 l 1,9,-1
 219 1364 l 1,10,-1
 48 1196 l 1,11,-1
 219 1027 l 1,12,-1
 170 978 l 1,13,-1
 36 1114 l 1,14,-1
 36 -275 l 1,0,-1
EndSplineSet
EndChar

StartChar: lefttorightmark
Encoding: 8206 8206 90
Width: 0
GlyphClass: 2
Flags: W
LayerCount: 2
Fore
SplineSet
430 1198 m 1,0,-1
 213 984 l 1,1,-1
 164 1033 l 1,2,-1
 301 1163 l 1,3,-1
 35 1163 l 1,4,-1
 35 -275 l 1,5,-1
 -36 -275 l 1,6,-1
 -36 1234 l 1,7,-1
 301 1234 l 1,8,-1
 164 1364 l 1,9,-1
 213 1413 l 1,10,-1
 430 1198 l 1,0,-1
EndSplineSet
EndChar

StartChar: righttoleftmark
Encoding: 8207 8207 91
Width: 0
GlyphClass: 2
Flags: W
LayerCount: 2
Fore
SplineSet
35 -275 m 1,0,-1
 -36 -275 l 1,1,-1
 -36 1163 l 1,2,-1
 -302 1163 l 1,3,-1
 -165 1033 l 1,4,-1
 -214 984 l 1,5,-1
 -431 1198 l 1,6,-1
 -214 1413 l 1,7,-1
 -165 1364 l 1,8,-1
 -302 1234 l 1,9,-1
 35 1234 l 1,10,-1
 35 -275 l 1,0,-1
EndSplineSet
EndChar

StartChar: afii57388.001
Encoding: 1644 1644 92
Width: 353
GlyphClass: 2
Flags: W
LayerCount: 2
Fore
SplineSet
210 654 m 0,0,1
 200 627 200 627 185 603 c 0,2,3
 180 597 180 597 173.5 593.5 c 128,-1,4
 167 590 167 590 162 590 c 128,-1,5
 157 590 157 590 154.5 593 c 128,-1,6
 152 596 152 596 155 603 c 0,7,8
 187 660 187 660 202.5 713.5 c 128,-1,9
 218 767 218 767 218 800 c 1,10,11
 194 806 194 806 179 816 c 128,-1,12
 164 826 164 826 155 837.5 c 128,-1,13
 146 849 146 849 143 859 c 128,-1,14
 140 869 140 869 140 874 c 0,15,16
 140 890 140 890 145.5 907 c 128,-1,17
 151 924 151 924 160.5 937.5 c 128,-1,18
 170 951 170 951 183.5 959.5 c 128,-1,19
 197 968 197 968 213 968 c 0,20,21
 272 968 272 968 272 874 c 0,22,23
 272 859 272 859 268 835 c 128,-1,24
 264 811 264 811 256 781.5 c 128,-1,25
 248 752 248 752 236.5 719.5 c 128,-1,26
 225 687 225 687 210 654 c 0,0,1
EndSplineSet
EndChar

StartChar: afii57440
Encoding: 1600 1600 93
Width: 351
GlyphClass: 2
Flags: W
LayerCount: 2
Fore
SplineSet
-14 322 m 1,0,-1
 369 322 l 1,1,-1
 369 0 l 1,2,-1
 -14 0 l 1,3,-1
 -14 322 l 1,0,-1
EndSplineSet
EndChar

StartChar: afii57453
Encoding: 1613 1613 94
Width: 0
GlyphClass: 4
Flags: W
AnchorPoint: "Anchor-3" 0 0 mark 0
AnchorPoint: "Anchor-1" 0 0 mark 0
LayerCount: 2
Fore
SplineSet
-270 -90 m 1,0,-1
 268 83 l 1,1,-1
 268 -28 l 1,2,-1
 -270 -193 l 1,3,-1
 -270 -90 l 1,0,-1
-270 107 m 1,4,-1
 268 280 l 1,5,-1
 268 170 l 1,6,-1
 -270 5 l 1,7,-1
 -270 107 l 1,4,-1
EndSplineSet
EndChar

StartChar: afii57381
Encoding: 1642 1642 95
Width: 1245
GlyphClass: 2
Flags: W
LayerCount: 2
Fore
SplineSet
1022 1286 m 1,0,-1
 375 -12 l 1,1,2
 369 -41 369 -41 340 -33 c 2,3,-1
 287 -18 l 2,4,5
 254 -12 254 -12 266 23 c 1,6,-1
 266 29 l 1,7,-1
 915 1335 l 2,8,9
 928 1360 928 1360 952 1350 c 1,10,-1
 1001 1339 l 2,11,12
 1036 1329 1036 1329 1026 1298 c 2,13,-1
 1022 1286 l 1,0,-1
629 1128 m 1,14,-1
 414 934 l 1,15,-1
 217 1153 l 1,16,-1
 432 1346 l 1,17,-1
 629 1128 l 1,14,-1
1171 229 m 1,18,-1
 956 37 l 1,19,-1
 762 256 l 1,20,-1
 975 449 l 1,21,-1
 1171 229 l 1,18,-1
EndSplineSet
EndChar

StartChar: afii57461
Encoding: 1643 1643 96
Width: 536
GlyphClass: 2
Flags: W
LayerCount: 2
Fore
SplineSet
518 521 m 1,0,-1
 115 -382 l 1,1,-1
 19 -352 l 1,2,-1
 425 551 l 1,3,-1
 518 521 l 1,0,-1
EndSplineSet
EndChar

StartChar: afii63167
Encoding: 1645 1645 97
Width: 1118
GlyphClass: 2
Flags: W
LayerCount: 2
Fore
SplineSet
694 729 m 1,0,-1
 1057 733 l 1,1,-1
 1057 610 l 1,2,-1
 702 612 l 1,3,-1
 971 352 l 1,4,-1
 883 264 l 1,5,-1
 616 539 l 1,6,-1
 623 168 l 1,7,-1
 498 168 l 1,8,-1
 502 539 l 1,9,-1
 236 264 l 1,10,-1
 147 352 l 1,11,-1
 422 614 l 1,12,-1
 63 610 l 1,13,-1
 63 733 l 1,14,-1
 420 729 l 1,15,-1
 170 975 l 1,16,-1
 258 1065 l 1,17,-1
 502 817 l 1,18,-1
 498 1176 l 1,19,-1
 623 1176 l 1,20,-1
 616 813 l 1,21,-1
 860 1065 l 1,22,-1
 948 975 l 1,23,-1
 694 729 l 1,0,-1
EndSplineSet
EndChar

StartChar: afii57459
Encoding: 65543 -1 98
Width: 896
GlyphClass: 2
Flags: W
LayerCount: 2
Fore
SplineSet
-10 322 m 1,0,-1
 623 322 l 1,1,-1
 623 332 l 1,2,3
 332 377 332 377 266 397 c 1,4,5
 68 475 68 475 68 670 c 0,6,7
 68 825 68 825 242 1016.5 c 128,-1,8
 416 1208 416 1208 573 1208 c 0,9,10
 713 1208 713 1208 793 1102 c 0,11,12
 864 1010 864 1010 864 860 c 2,13,-1
 864 467 l 2,14,15
 864 205 864 205 786 104 c 1,16,17
 700 0 700 0 444 0 c 2,18,-1
 -10 0 l 1,19,-1
 -10 322 l 1,0,-1
332 686 m 1,20,21
 338 653 338 653 451 623 c 0,22,23
 459 623 459 623 594 594 c 1,24,-1
 594 825 l 2,25,26
 594 920 594 920 563 920 c 1,27,28
 508 893 508 893 430 813 c 128,-1,29
 352 733 352 733 332 686 c 1,20,21
EndSplineSet
EndChar

StartChar: afii57543
Encoding: 65544 -1 99
Width: 860
Flags: W
LayerCount: 2
Fore
SplineSet
-20 322 m 1,0,1
 264 317 264 317 264 401 c 0,2,3
 264 444 264 444 229 606 c 1,4,-1
 529 682 l 1,5,6
 553 573 553 573 573 459 c 1,7,8
 592 377 592 377 649 346 c 1,9,10
 709 322 709 322 894 322 c 1,11,-1
 894 0 l 1,12,-1
 733 0 l 2,13,14
 534 0 534 0 445 111 c 1,15,16
 346 0 346 0 130 0 c 2,17,-1
 -20 0 l 1,18,-1
 -20 322 l 1,0,1
EndSplineSet
EndChar

StartChar: afii57534
Encoding: 1749 1749 100
Width: 1108
GlyphClass: 2
Flags: W
LayerCount: 2
Fore
SplineSet
74 307 m 0,0,1
 74 444 74 444 225 594 c 0,2,3
 238 612 238 612 444 819 c 1,4,-1
 381 907 l 1,5,-1
 623 1069 l 1,6,-1
 1004 506 l 2,7,8
 1063 414 1063 414 1063 299 c 0,9,10
 1063 166 1063 166 978 83 c 128,-1,11
 893 0 893 0 762 0 c 2,12,-1
 381 0 l 2,13,14
 250 0 250 0 162 89 c 128,-1,15
 74 178 74 178 74 307 c 0,0,1
393 326 m 0,16,17
 393 285 393 285 467 285 c 2,18,-1
 688 285 l 2,19,20
 760 285 760 285 760 352 c 0,21,22
 760 375 760 375 623 578 c 1,23,24
 393 362 393 362 393 326 c 0,16,17
EndSplineSet
EndChar

StartChar: afii64240
Encoding: 65546 -1 102
Width: 337
Flags: W
LayerCount: 2
Fore
SplineSet
35 286 m 1,0,-1
 324 286 l 1,1,-1
 324 0 l 1,2,-1
 35 0 l 1,3,-1
 35 286 l 1,0,-1
EndSplineSet
EndChar

StartChar: afii64241
Encoding: 65547 -1 103
Width: 628
Flags: W
LayerCount: 2
Fore
SplineSet
33 266 m 1,0,-1
 298 266 l 1,1,-1
 298 4 l 1,2,-1
 33 4 l 1,3,-1
 33 266 l 1,0,-1
354 266 m 1,4,-1
 619 266 l 1,5,-1
 619 4 l 1,6,-1
 354 4 l 1,7,-1
 354 266 l 1,4,-1
EndSplineSet
EndChar

StartChar: afii63954
Encoding: 65548 -1 104
Width: 633
Flags: W
LayerCount: 2
Fore
SplineSet
26 265 m 1,0,-1
 291 265 l 1,1,-1
 291 3 l 1,2,-1
 26 3 l 1,3,-1
 26 265 l 1,0,-1
347 265 m 1,4,-1
 612 265 l 1,5,-1
 612 3 l 1,6,-1
 347 3 l 1,7,-1
 347 265 l 1,4,-1
188 584 m 1,8,-1
 453 584 l 1,9,-1
 453 322 l 1,10,-1
 188 322 l 1,11,-1
 188 584 l 1,8,-1
EndSplineSet
EndChar

StartChar: afii57382
Encoding: 65549 -1 105
Width: 612
Flags: W
LayerCount: 2
Fore
SplineSet
17 2 m 1,0,-1
 282 2 l 1,1,-1
 282 -260 l 1,2,-1
 17 -260 l 1,3,-1
 17 2 l 1,0,-1
338 2 m 1,4,-1
 603 2 l 1,5,-1
 603 -260 l 1,6,-1
 338 -260 l 1,7,-1
 338 2 l 1,4,-1
179 -317 m 1,8,-1
 444 -317 l 1,9,-1
 444 -579 l 1,10,-1
 179 -579 l 1,11,-1
 179 -317 l 1,8,-1
EndSplineSet
EndChar

StartChar: afii64242
Encoding: 65550 -1 106
Width: 655
Flags: W
LayerCount: 2
Fore
SplineSet
-35 322 m 1,0,-1
 162 322 l 2,1,2
 301 322 301 322 299 416 c 0,3,4
 299 463 299 463 250 662 c 1,5,-1
 547 723 l 1,6,7
 623 479 623 479 623 344 c 0,8,9
 623 174 623 174 489 82 c 1,10,11
 377 0 377 0 203 0 c 2,12,-1
 -35 0 l 1,13,-1
 -35 322 l 1,0,-1
EndSplineSet
EndChar

StartChar: afii57373
Encoding: 65551 -1 111
Width: 303
Flags: W
LayerCount: 2
Fore
SplineSet
-40 1139 m 0,0,1
 -40 1218 -40 1218 33 1274 c 0,2,3
 92 1317 92 1317 172 1330 c 1,4,-1
 211 1215 l 1,5,6
 108 1192 108 1192 111 1158 c 1,7,8
 108 1102 108 1102 222 1102 c 0,9,10
 259 1102 259 1102 300 1108 c 1,11,-1
 300 983 l 1,12,13
 259 970 259 970 130 916 c 0,14,15
 30 870 30 870 -38 863 c 1,16,-1
 -37 990 l 1,17,18
 14 1000 14 1000 70 1029 c 1,19,20
 -40 1036 -40 1036 -40 1139 c 0,0,1
EndSplineSet
EndChar

StartChar: afii57374
Encoding: 65552 -1 112
Width: 920
GlyphClass: 2
Flags: W
LayerCount: 2
Fore
SplineSet
-10 322 m 1,0,-1
 197 322 l 1,1,2
 64 445 64 445 73 527 c 0,3,4
 84 650 84 650 246 809 c 128,-1,5
 408 968 408 968 527 968 c 0,6,7
 821 963 821 963 819 506 c 0,8,9
 817 346 817 346 817 322 c 1,10,-1
 936 322 l 1,11,-1
 936 0 l 1,12,-1
 745 0 l 2,13,14
 670 0 670 0 578 74 c 1,15,16
 489 0 489 0 336 0 c 2,17,-1
 -10 0 l 1,18,-1
 -10 322 l 1,0,-1
363 506 m 1,19,20
 363 471 363 471 542 343 c 1,21,-1
 535 596 l 2,22,23
 535 643 535 643 499 646 c 128,-1,24
 463 649 463 649 405 588 c 128,-1,25
 347 527 347 527 363 506 c 1,19,20
EndSplineSet
EndChar

StartChar: afii57375
Encoding: 1619 1619 113
Width: 1011
GlyphClass: 2
Flags: W
LayerCount: 2
Fore
SplineSet
82 1759 m 1,0,-1
 877 1662 l 1,1,-1
 850 1402 l 1,2,-1
 310 1466 l 1,3,-1
 282 1328 l 1,4,-1
 18 1366 l 1,5,-1
 82 1759 l 1,0,-1
EndSplineSet
EndChar

StartChar: afii57391
Encoding: 59450 59450 114
Width: 1024
GlyphClass: 2
Flags: W
LayerCount: 2
Fore
SplineSet
1024 0 m 1,0,-1
 -70 0 l 1,1,-1
 -70 188 l 1,2,-1
 1024 188 l 1,3,-1
 1024 0 l 1,0,-1
EndSplineSet
EndChar

StartChar: afii57471
Encoding: 65553 -1 115
Width: 2175
Flags: W
LayerCount: 2
Fore
SplineSet
127 352 m 0,0,1
 127 412 127 412 150 500 c 1,2,3
 174 612 174 612 178 649 c 1,4,-1
 506 594 l 1,5,6
 469 436 469 436 469 432 c 0,7,8
 469 322 469 322 715 322 c 2,9,-1
 1409 322 l 2,10,11
 1645 322 1645 322 1645 444 c 0,12,13
 1645 467 1645 467 1616 594 c 1,14,-1
 1942 653 l 1,15,16
 1950 565 1950 565 1960 473 c 1,17,18
 1976 393 1976 393 2015 358 c 1,19,20
 2062 322 2062 322 2189 322 c 1,21,-1
 2189 0 l 1,22,23
 1954 0 1954 0 1892 96 c 1,24,25
 1792 0 1792 0 1548 0 c 2,26,-1
 578 0 l 2,27,28
 397 0 397 0 270 82 c 1,29,30
 127 186 127 186 127 352 c 0,0,1
EndSplineSet
EndChar

StartChar: afii52258
Encoding: 65554 -1 116
Width: 2249
GlyphClass: 2
Flags: W
LayerCount: 2
Fore
SplineSet
111 340 m 0,0,1
 111 473 111 473 158 649 c 1,2,-1
 489 594 l 1,3,4
 457 467 457 467 457 432 c 0,5,6
 457 322 457 322 723 322 c 2,7,-1
 1524 322 l 1,8,9
 1436 371 1436 371 1436 532 c 0,10,11
 1436 649 1436 649 1594.5 794.5 c 128,-1,12
 1753 940 1753 940 1874 940 c 0,13,14
 2128 940 2128 940 2128 526 c 0,15,16
 2128 487 2128 487 2124 419.5 c 128,-1,17
 2120 352 2120 352 2120 322 c 1,18,-1
 2263 322 l 1,19,-1
 2263 0 l 1,20,-1
 2128 0 l 2,21,22
 2005 0 2005 0 1901 74 c 1,23,24
 1812 0 1812 0 1657 0 c 2,25,-1
 565 0 l 2,26,27
 111 0 111 0 111 340 c 0,0,1
1673 483 m 256,28,29
 1673 444 1673 444 1874 299 c 1,30,-1
 1874 582 l 2,31,32
 1874 653 1874 653 1849 662 c 1,33,34
 1806 641 1806 641 1743 584 c 0,35,36
 1673 522 1673 522 1673 483 c 256,28,29
EndSplineSet
EndChar

StartChar: afii62889
Encoding: 65555 -1 122
Width: 1915
Flags: W
LayerCount: 2
Fore
SplineSet
207 -176 m 0,0,1
 207 -16 207 -16 260 178 c 0,2,3
 307 346 307 346 356 518 c 1,4,-1
 674 444 l 1,5,6
 631 299 631 299 588 145 c 0,7,8
 539 -29 539 -29 539 -158 c 0,9,10
 539 -279 539 -279 614.5 -349.5 c 128,-1,11
 690 -420 690 -420 809 -420 c 0,12,13
 936 -420 936 -420 1151 -352 c 1,14,15
 1313 -295 1313 -295 1479 -233 c 1,16,-1
 1479 8 l 1,17,18
 1178 68 1178 68 1102 100 c 0,19,20
 893 193 893 193 893 381 c 0,21,22
 893 539 893 539 1087.5 737.5 c 128,-1,23
 1282 936 1282 936 1436 936 c 0,24,25
 1653 936 1653 936 1731 754 c 1,26,27
 1774 637 1774 637 1774 387 c 2,28,-1
 1774 322 l 1,29,-1
 1931 322 l 1,30,-1
 1931 0 l 1,31,-1
 1774 0 l 1,32,-1
 1774 -467 l 1,33,34
 1526 -559 1526 -559 1276 -645 c 0,35,36
 971 -745 971 -745 762 -745 c 0,37,38
 500 -745 500 -745 352 -584 c 0,39,40
 207 -428 207 -428 207 -176 c 0,0,1
1204 416 m 0,41,42
 1204 352 1204 352 1487 305 c 1,43,-1
 1487 532 l 2,44,45
 1487 641 1487 641 1446 645 c 1,46,47
 1395 629 1395 629 1303 547 c 0,48,49
 1204 453 1204 453 1204 416 c 0,41,42
EndSplineSet
EndChar

StartChar: afii62887
Encoding: 65556 -1 123
Width: 1980
Flags: W
LayerCount: 2
Fore
SplineSet
111 313 m 0,0,1
 111 358 111 358 166 649 c 1,2,-1
 489 592 l 1,3,4
 459 438 459 438 459 416 c 0,5,6
 459 322 459 322 631 322 c 2,7,-1
 1362 322 l 2,8,9
 1481 322 1481 322 1526 332 c 1,10,11
 1632 346 1632 346 1632 420 c 0,12,13
 1632 438 1632 438 1599 592 c 1,14,-1
 1925 649 l 1,15,16
 1980 375 1980 375 1980 326 c 0,17,18
 1980 0 1980 0 1526 0 c 2,19,-1
 565 0 l 2,20,21
 111 0 111 0 111 313 c 0,0,1
EndSplineSet
EndChar

StartChar: afii62888
Encoding: 1697 1697 124
Width: 2097
GlyphClass: 2
Flags: W
LayerCount: 2
Fore
SplineSet
111 340 m 0,0,1
 111 473 111 473 158 649 c 1,2,-1
 489 594 l 1,3,4
 457 473 457 473 457 432 c 0,5,6
 457 322 457 322 733 322 c 2,7,-1
 1993 322 l 1,8,9
 1628 356 1628 356 1559 377 c 0,10,11
 1303 451 1303 451 1303 670 c 0,12,13
 1303 823 1303 823 1477 1015.5 c 128,-1,14
 1651 1208 1651 1208 1806 1208 c 0,15,16
 1954 1208 1954 1208 2032 1102 c 0,17,18
 2097 1012 2097 1012 2097 860 c 2,19,-1
 2097 467 l 2,20,21
 2097 207 2097 207 2023 113 c 0,22,23
 1933 0 1933 0 1683 0 c 2,24,-1
 565 0 l 2,25,26
 111 0 111 0 111 340 c 0,0,1
1575 694 m 0,27,28
 1575 641 1575 641 1688 618 c 0,29,30
 1708 612 1708 612 1847 594 c 1,31,-1
 1847 819 l 2,32,33
 1847 926 1847 926 1798 930 c 1,34,35
 1753 911 1753 911 1663 825 c 0,36,37
 1575 737 1575 737 1575 694 c 0,27,28
EndSplineSet
Substitution2: "'medi' Medial Forms in Arabic lookup 3 subtable" afii57374
Substitution2: "'fina' Terminal Forms in Arabic lookup 2 subtable" afii52258
Substitution2: "'init' Initial Forms in Arabic lookup 1 subtable" afii57459
EndChar

StartChar: afii57567
Encoding: 1705 1705 131
Width: 1901
GlyphClass: 2
Flags: W
AnchorPoint: "Anchor-3" 885 -630 basechar 0
AnchorPoint: "Anchor-2" 765 1230 basechar 0
LayerCount: 2
Fore
SplineSet
104 322 m 0,0,1
 104 420 104 420 150 616 c 1,2,-1
 475 559 l 1,3,4
 457 436 457 436 457 420 c 0,5,6
 457 322 457 322 616 322 c 2,7,-1
 1311 322 l 2,8,9
 1456 322 1456 322 1456 387 c 0,10,11
 1456 432 1456 432 1096 958 c 1,12,-1
 1698 1481 l 1,13,-1
 1901 1243 l 1,14,-1
 1513 911 l 1,15,16
 1679 670 1679 670 1688 653 c 0,17,18
 1790 483 1790 483 1790 371 c 0,19,20
 1790 211 1790 211 1645 100 c 0,21,22
 1513 0 1513 0 1350 0 c 2,23,-1
 631 0 l 2,24,25
 387 0 387 0 279 45 c 0,26,27
 104 119 104 119 104 322 c 0,0,1
EndSplineSet
Substitution2: "'medi' Medial Forms in Arabic lookup 3 subtable" afii52306
Substitution2: "'fina' Terminal Forms in Arabic lookup 2 subtable" afii62964
Substitution2: "'init' Initial Forms in Arabic lookup 1 subtable" afii52305
EndChar

StartChar: afii62964
Encoding: 64399 64399 132
Width: 2185
GlyphClass: 2
Flags: W
AnchorPoint: "Anchor-3" 810 -690 basechar 0
AnchorPoint: "Anchor-2" 825 1185 basechar 0
LayerCount: 2
Fore
SplineSet
92 322 m 0,0,1
 92 420 92 420 135 616 c 1,2,-1
 459 559 l 1,3,4
 438 430 438 430 438 420 c 0,5,6
 438 322 438 322 606 322 c 2,7,-1
 1378 322 l 2,8,9
 1501 322 1501 322 1501 393 c 0,10,11
 1501 457 1501 457 1145 958 c 1,12,-1
 1743 1475 l 1,13,-1
 1954 1243 l 1,14,-1
 1563 911 l 1,15,-1
 1782 578 l 2,16,17
 1915 375 1915 375 1944 352 c 1,18,19
 1993 322 1993 322 2195 322 c 1,20,-1
 2195 0 l 1,21,22
 2023 0 2023 0 1944 16 c 0,23,24
 1812 39 1812 39 1712 119 c 1,25,26
 1575 0 1575 0 1307 0 c 2,27,-1
 563 0 l 2,28,29
 346 0 346 0 242 55 c 1,30,31
 92 127 92 127 92 322 c 0,0,1
EndSplineSet
EndChar

StartChar: afii52305
Encoding: 64400 64400 133
Width: 860
GlyphClass: 2
Flags: W
AnchorPoint: "Anchor-3" 360 -615 basechar 0
AnchorPoint: "Anchor-2" 135 1440 basechar 0
LayerCount: 2
Fore
SplineSet
-10 322 m 1,0,-1
 158 322 l 1,1,2
 406 313 406 313 406 393 c 0,3,4
 406 463 406 463 45 956 c 1,5,-1
 653 1470 l 1,6,-1
 860 1243 l 1,7,-1
 459 911 l 1,8,9
 551 782 551 782 637 657 c 1,10,11
 737 496 737 496 737 371 c 0,12,13
 737 188 737 188 573 84 c 1,14,15
 432 0 432 0 238 0 c 2,16,-1
 -10 0 l 1,17,-1
 -10 322 l 1,0,-1
EndSplineSet
EndChar

StartChar: afii52306
Encoding: 64401 64401 134
Width: 939
GlyphClass: 2
Flags: W
AnchorPoint: "Anchor-3" 420 -630 basechar 0
AnchorPoint: "Anchor-2" 135 1440 basechar 0
LayerCount: 2
Fore
SplineSet
-17 322 m 1,0,-1
 182 321 l 2,1,2
 352 322 352 322 352 387 c 0,3,4
 352 457 352 457 -17 965 c 1,5,-1
 585 1481 l 1,6,-1
 794 1245 l 1,7,-1
 401 911 l 1,8,9
 595 598 595 598 614 573 c 0,10,11
 790 322 790 322 878 322 c 2,12,-1
 954 322 l 1,13,-1
 954 0 l 1,14,15
 704 0 704 0 556 119 c 1,16,17
 392 0 392 0 104 0 c 2,18,-1
 -17 0 l 1,19,-1
 -17 322 l 1,0,-1
EndSplineSet
EndChar

StartChar: afii57509
Encoding: 1711 1711 135
Width: 1892
GlyphClass: 2
Flags: W
AnchorPoint: "Anchor-3" 840 -630 basechar 0
AnchorPoint: "Anchor-2" 750 1215 basechar 0
LayerCount: 2
Fore
SplineSet
127 322 m 0,0,1
 127 438 127 438 174 616 c 1,2,-1
 492 559 l 1,3,4
 473 430 473 430 473 420 c 0,5,6
 473 322 473 322 631 322 c 2,7,-1
 1378 322 l 2,8,9
 1540 322 1540 322 1540 393 c 0,10,11
 1540 444 1540 444 1206 926 c 1,12,-1
 1806 1442 l 1,13,-1
 1999 1249 l 1,14,-1
 1599 918 l 1,15,16
 1688 786 1688 786 1774 662 c 1,17,18
 1884 489 1884 489 1884 387 c 0,19,20
 1884 217 1884 217 1735 102 c 1,21,22
 1593 0 1593 0 1415 0 c 2,23,-1
 559 0 l 2,24,25
 127 0 127 0 127 322 c 0,0,1
1673 1614 m 1,26,-1
 1759 1518 l 1,27,-1
 1153 1001 l 1,28,-1
 1075 1096 l 1,29,-1
 1673 1614 l 1,26,-1
EndSplineSet
Substitution2: "'medi' Medial Forms in Arabic lookup 3 subtable" afii62966
Substitution2: "'fina' Terminal Forms in Arabic lookup 2 subtable" afii62967
Substitution2: "'init' Initial Forms in Arabic lookup 1 subtable" afii62965
EndChar

StartChar: afii62967
Encoding: 64403 64403 136
Width: 2146
GlyphClass: 2
Flags: W
AnchorPoint: "Anchor-3" 765 -705 basechar 0
AnchorPoint: "Anchor-2" 660 1275 basechar 0
LayerCount: 2
Fore
SplineSet
63 322 m 0,0,1
 63 420 63 420 104 616 c 1,2,-1
 430 559 l 1,3,4
 412 430 412 430 412 420 c 0,5,6
 412 322 412 322 578 322 c 2,7,-1
 1350 322 l 2,8,9
 1475 322 1475 322 1475 387 c 0,10,11
 1475 453 1475 453 1145 926 c 1,12,-1
 1743 1442 l 1,13,-1
 1929 1245 l 1,14,-1
 1536 918 l 1,15,-1
 1739 602 l 2,16,17
 1870 393 1870 393 1898 377 c 1,18,19
 1962 322 1962 322 2159 322 c 1,20,-1
 2159 0 l 1,21,22
 1993 0 1993 0 1915 16 c 0,23,24
 1782 39 1782 39 1683 119 c 1,25,26
 1552 0 1552 0 1276 0 c 2,27,-1
 532 0 l 2,28,29
 317 0 317 0 211 55 c 0,30,31
 63 127 63 127 63 322 c 0,0,1
1612 1599 m 1,32,-1
 1698 1518 l 1,33,-1
 1087 995 l 1,34,-1
 1012 1096 l 1,35,-1
 1612 1599 l 1,32,-1
EndSplineSet
EndChar

StartChar: afii62965
Encoding: 64404 64404 137
Width: 893
GlyphClass: 2
Flags: W
AnchorPoint: "Anchor-3" 345 -645 basechar 0
AnchorPoint: "Anchor-2" 165 1605 basechar 0
LayerCount: 2
Fore
SplineSet
-4 322 m 1,0,-1
 215 322 l 1,1,2
 444 317 444 317 444 387 c 0,3,4
 444 438 444 438 111 930 c 1,5,-1
 711 1442 l 1,6,-1
 893 1243 l 1,7,-1
 496 918 l 1,8,9
 573 774 573 774 662 645 c 1,10,11
 760 487 760 487 760 358 c 0,12,13
 760 193 760 193 637 82 c 1,14,15
 532 0 532 0 356 0 c 2,16,-1
 -4 0 l 1,17,-1
 -4 322 l 1,0,-1
578 1599 m 1,18,-1
 662 1507 l 1,19,-1
 63 1001 l 1,20,-1
 -10 1106 l 1,21,-1
 578 1599 l 1,18,-1
EndSplineSet
EndChar

StartChar: afii62966
Encoding: 64405 64405 138
Width: 1014
GlyphClass: 2
Flags: W
AnchorPoint: "Anchor-3" 420 -675 basechar 0
AnchorPoint: "Anchor-2" 180 1605 basechar 0
LayerCount: 2
Fore
SplineSet
0 322 m 1,0,-1
 203 322 l 1,1,2
 416 309 416 309 416 387 c 0,3,4
 416 444 416 444 279 653 c 1,5,6
 182 786 182 786 82 926 c 1,7,-1
 686 1436 l 1,8,-1
 870 1245 l 1,9,-1
 463 907 l 1,10,-1
 780 451 l 2,11,12
 836 371 836 371 887 346 c 0,13,14
 936 322 936 322 1030 322 c 1,15,-1
 1030 0 l 1,16,17
 774 0 774 0 631 119 c 1,18,19
 539 43 539 43 428 16 c 0,20,21
 352 0 352 0 207 0 c 2,22,-1
 0 0 l 1,23,-1
 0 322 l 1,0,-1
555 1604 m 1,24,-1
 631 1513 l 1,25,-1
 35 1001 l 1,26,-1
 -47 1096 l 1,27,-1
 555 1604 l 1,24,-1
EndSplineSet
EndChar

StartChar: afii57555
Encoding: 1740 1740 139
Width: 1774
GlyphClass: 2
Flags: W
AnchorPoint: "Anchor-3" 825 -1050 basechar 0
AnchorPoint: "Anchor-2" 885 1020 basechar 0
LayerCount: 2
Fore
SplineSet
207 137 m 0,0,1
 207 277 207 277 266 461 c 1,2,3
 326 616 326 616 387 768 c 1,4,-1
 690 684 l 1,5,6
 641 553 641 553 594 426 c 0,7,8
 539 264 539 264 539 156 c 0,9,10
 539 43 539 43 626 -43 c 128,-1,11
 713 -129 713 -129 829 -129 c 0,12,13
 930 -129 930 -129 1133 -49 c 0,14,15
 1321 25 1321 25 1421 90 c 1,16,17
 1255 90 1255 90 1133 201 c 1,18,19
 1004 307 1004 307 1004 471 c 0,20,21
 1004 807 1004 807 1612 934 c 1,22,-1
 1698 668 l 1,23,24
 1587 651 1587 651 1470 604 c 1,25,26
 1319 537 1319 537 1319 465 c 0,27,28
 1319 342 1319 342 1645 311 c 1,29,-1
 1737 -90 l 1,30,31
 1448 -256 1448 -256 1300 -319 c 0,32,33
 1022 -440 1022 -440 829 -440 c 0,34,35
 555 -440 555 -440 383 -293 c 1,36,37
 207 -133 207 -133 207 137 c 0,0,1
EndSplineSet
Substitution2: "'medi' Medial Forms in Arabic lookup 3 subtable" afii62832
Substitution2: "'fina' Terminal Forms in Arabic lookup 2 subtable" afii52364
Substitution2: "'init' Initial Forms in Arabic lookup 1 subtable" uniFBFE
EndChar

StartChar: afii52364
Encoding: 64509 64509 140
Width: 1831
GlyphClass: 2
Flags: W
AnchorPoint: "Anchor-3" 840 -1140 basechar 0
AnchorPoint: "Anchor-2" 900 840 basechar 0
LayerCount: 2
Fore
SplineSet
207 92 m 0,0,1
 207 371 207 371 371 653 c 1,2,-1
 670 532 l 1,3,4
 526 262 526 262 526 84 c 0,5,6
 526 -68 526 -68 641 -152 c 0,7,8
 743 -229 743 -229 907 -229 c 0,9,10
 1165 -229 1165 -229 1526 -4 c 1,11,12
 1460 0 1460 0 1313 82 c 0,13,14
 1165 160 1165 160 1118 217 c 1,15,-1
 1276 479 l 1,16,17
 1391 367 1391 367 1544 338 c 0,18,19
 1628 322 1628 322 1849 322 c 1,20,-1
 1849 0 l 1,21,-1
 1683 0 l 1,22,-1
 1731 -250 l 1,23,24
 1319 -547 1319 -547 901 -547 c 0,25,26
 588 -547 588 -547 397 -387 c 1,27,28
 207 -215 207 -215 207 92 c 0,0,1
EndSplineSet
EndChar

StartChar: afii62945
Encoding: 65557 -1 146
Width: 2488
GlyphClass: 3
Flags: W
AnchorPoint: "Anchor-1" 2145 -450 baselig 0
AnchorPoint: "Anchor-0" 2085 1305 baselig 0
AnchorPoint: "Anchor-1" 1425 -510 baselig 1
AnchorPoint: "Anchor-0" 1440 1275 baselig 1
AnchorPoint: "Anchor-1" 510 -480 baselig 2
AnchorPoint: "Anchor-0" 630 1155 baselig 2
LayerCount: 2
Fore
SplineSet
225 506 m 0,0,1
 225 653 225 653 338 774 c 0,2,3
 598 1040 598 1040 745 1040 c 0,4,5
 946 1040 946 1040 1012 879 c 0,6,7
 1057 764 1057 764 1057 547 c 2,8,-1
 1057 489 l 2,9,10
 1057 344 1057 344 1087 332 c 1,11,12
 1110 313 1110 313 1153 309 c 1,13,-1
 1145 309 l 1,14,-1
 1145 307 l 1,15,-1
 1200 307 l 2,16,17
 1382 307 1382 307 1382 436 c 0,18,19
 1382 610 1382 610 1343 848 c 1,20,21
 1303 1049 1303 1049 1272 1151 c 1,22,-1
 1577 1200 l 1,23,-1
 1716 414 l 2,24,25
 1726 344 1726 344 1798 322 c 0,26,27
 1847 309 1847 309 1874 309 c 1,28,-1
 1874 307 l 1,29,30
 2079 309 2079 309 2079 438 c 1,31,32
 2060 612 2060 612 2019 827 c 128,-1,33
 1978 1042 1978 1042 1933 1145 c 1,34,-1
 2263 1196 l 1,35,-1
 2333 829 l 2,36,37
 2388 543 2388 543 2388 336 c 0,38,39
 2388 174 2388 174 2241 55 c 1,40,41
 2107 -4 2107 -4 1915 -4 c 2,42,-1
 1847 -4 l 1,43,-1
 1847 0 l 1,44,-1
 1819 0 l 2,45,46
 1675 0 1675 0 1597 115 c 1,47,48
 1513 0 1513 0 1266 0 c 2,49,-1
 1108 0 l 2,50,51
 893 0 893 0 819 152 c 1,52,53
 506 197 506 197 432 221 c 1,54,55
 225 301 225 301 225 506 c 0,0,1
518 532 m 0,56,57
 518 487 518 487 631 459 c 1,58,59
 705 451 705 451 778 436 c 1,60,-1
 778 670 l 2,61,62
 778 737 778 737 750 737 c 0,63,64
 723 737 723 737 620.5 650 c 128,-1,65
 518 563 518 563 518 532 c 0,56,57
EndSplineSet
EndChar

StartChar: afii64184
Encoding: 65010 65010 147
Width: 2488
GlyphClass: 3
Flags: W
AnchorPoint: "Anchor-1" 2205 -465 baselig 0
AnchorPoint: "Anchor-0" 2160 1395 baselig 0
AnchorPoint: "Anchor-1" 1440 -435 baselig 1
AnchorPoint: "Anchor-0" 1410 1260 baselig 1
AnchorPoint: "Anchor-1" 585 -510 baselig 2
AnchorPoint: "Anchor-0" 570 1140 baselig 2
LayerCount: 2
Fore
SplineSet
225 506 m 0,0,1
 225 653 225 653 338 774 c 0,2,3
 598 1040 598 1040 745 1040 c 0,4,5
 946 1040 946 1040 1012 879 c 0,6,7
 1057 764 1057 764 1057 547 c 2,8,-1
 1057 489 l 2,9,10
 1057 344 1057 344 1087 332 c 1,11,12
 1110 313 1110 313 1153 309 c 1,13,-1
 1145 309 l 1,14,-1
 1145 307 l 1,15,-1
 1200 307 l 2,16,17
 1382 307 1382 307 1382 436 c 0,18,19
 1382 610 1382 610 1343 848 c 1,20,21
 1303 1049 1303 1049 1272 1151 c 1,22,-1
 1577 1200 l 1,23,-1
 1716 414 l 2,24,25
 1726 344 1726 344 1798 322 c 0,26,27
 1847 309 1847 309 1874 309 c 1,28,-1
 1874 307 l 1,29,30
 2079 309 2079 309 2079 438 c 1,31,32
 2060 612 2060 612 2019 827 c 128,-1,33
 1978 1042 1978 1042 1933 1145 c 1,34,-1
 2263 1196 l 1,35,-1
 2333 829 l 2,36,37
 2388 543 2388 543 2388 336 c 0,38,39
 2388 174 2388 174 2241 55 c 1,40,41
 2107 -4 2107 -4 1915 -4 c 2,42,-1
 1847 -4 l 1,43,-1
 1847 0 l 1,44,-1
 1819 0 l 2,45,46
 1675 0 1675 0 1597 115 c 1,47,48
 1513 0 1513 0 1266 0 c 2,49,-1
 1108 0 l 2,50,51
 893 0 893 0 819 152 c 1,52,53
 506 197 506 197 432 221 c 1,54,55
 225 301 225 301 225 506 c 0,0,1
518 532 m 0,56,57
 518 487 518 487 631 459 c 1,58,59
 705 451 705 451 778 436 c 1,60,-1
 778 670 l 2,61,62
 778 737 778 737 750 737 c 0,63,64
 723 737 723 737 620.5 650 c 128,-1,65
 518 563 518 563 518 532 c 0,56,57
1350 1950 m 1,66,-1
 1448 1950 l 1,67,-1
 1448 1616 l 1,68,-1
 1350 1616 l 1,69,-1
 1350 1950 l 1,66,-1
1377 1327 m 1,70,71
 1361 1307 1361 1307 1339.5 1295.5 c 128,-1,72
 1318 1284 1318 1284 1281 1282 c 0,73,74
 1203 1279 1203 1279 1154 1316.5 c 128,-1,75
 1105 1354 1105 1354 1105 1423 c 0,76,77
 1105 1458 1105 1458 1134 1587 c 1,78,-1
 1243 1564 l 1,79,80
 1220 1465 1220 1465 1220 1453 c 0,81,82
 1221 1437 1221 1437 1240.5 1423.5 c 128,-1,83
 1260 1410 1260 1410 1281 1410 c 0,84,85
 1321 1414 1321 1414 1333 1469 c 2,86,-1
 1352 1553 l 1,87,-1
 1456 1530 l 1,88,-1
 1440 1441 l 1,89,90
 1443 1408 1443 1408 1477.5 1401.5 c 128,-1,91
 1512 1395 1512 1395 1536 1408.5 c 128,-1,92
 1560 1422 1560 1422 1560 1438 c 0,93,94
 1562 1476 1562 1476 1533 1567 c 1,95,-1
 1638 1584 l 1,96,97
 1667 1462 1667 1462 1665 1425 c 0,98,99
 1667 1321 1667 1321 1550.5 1292 c 128,-1,100
 1434 1263 1434 1263 1377 1327 c 1,70,71
EndSplineSet
Ligature2: "'rlig' Required Ligatures in Arabic lookup 5 subtable" afii62817 afii62818 uniFC63 afii62828
Ligature2: "'rlig' Required Ligatures in Arabic lookup 5 subtable" afii62817 afii62818 afii57457 uni0670 afii62828
EndChar

StartChar: afii52399
Encoding: 65152 65152 148
Width: 873
GlyphClass: 2
Flags: W
LayerCount: 2
Fore
SplineSet
285 367 m 0,0,1
 285 479 285 479 382 559 c 1,2,3
 472 623 472 623 593 637 c 1,4,-1
 650 469 l 1,5,6
 496 438 496 438 496 391 c 0,7,8
 496 309 496 309 666 309 c 0,9,10
 714 309 714 309 781 322 c 1,11,-1
 781 139 l 1,12,13
 711 127 711 127 539 49 c 0,14,15
 388 -16 388 -16 290 -29 c 1,16,-1
 296 156 l 1,17,18
 365 166 365 166 447 207 c 1,19,20
 285 225 285 225 285 367 c 0,0,1
EndSplineSet
EndChar

StartChar: afii57415.001
Encoding: 1575 1575 161
Width: 631
GlyphClass: 2
Flags: W
AnchorPoint: "Anchor-3" 330 -555 basechar 0
AnchorPoint: "Anchor-2" 405 1455 basechar 0
LayerCount: 2
Fore
SplineSet
213 1329 m 1,0,-1
 530 1329 l 1,1,-1
 526 0 l 1,2,-1
 207 0 l 1,3,-1
 213 1329 l 1,0,-1
EndSplineSet
Substitution2: "'fina' Terminal Forms in Arabic lookup 2 subtable" afii62760
EndChar

StartChar: afii62760.001
Encoding: 65558 -1 162
Width: 700
GlyphClass: 2
Flags: W
LayerCount: 2
Fore
SplineSet
213 1331 m 1,0,-1
 530 1331 l 1,1,-1
 526 332 l 1,2,3
 516 322 516 322 645 322 c 2,4,-1
 715 322 l 1,5,-1
 715 0 l 1,6,-1
 631 0 l 1,7,8
 215 -8 215 -8 205 43 c 1,9,-1
 213 1331 l 1,0,-1
EndSplineSet
EndChar

StartChar: afii57421
Encoding: 1581 1581 181
Width: 1415
GlyphClass: 2
Flags: W
AnchorPoint: "Anchor-3" 630 -1485 basechar 0
AnchorPoint: "Anchor-2" 810 1110 basechar 0
LayerCount: 2
Fore
SplineSet
207 -342 m 0,0,1
 207 -127 207 -127 335 39 c 1,2,3
 429 174 429 174 607.5 290 c 128,-1,4
 786 406 786 406 965 512 c 1,5,-1
 594 598 l 1,6,-1
 559 500 l 1,7,-1
 270 565 l 1,8,-1
 371 948 l 1,9,-1
 1415 745 l 1,10,-1
 1411 459 l 1,11,-1
 731 -16 l 1,12,13
 528 -152 528 -152 528 -336 c 0,14,15
 528 -539 528 -539 764 -584 c 2,16,-1
 1196 -670 l 1,17,-1
 1141 -971 l 1,18,19
 926 -940 926 -940 709 -907 c 1,20,21
 469 -856 469 -856 352 -745 c 0,22,23
 207 -606 207 -606 207 -342 c 0,0,1
EndSplineSet
Substitution2: "'medi' Medial Forms in Arabic lookup 3 subtable" afii62775
Substitution2: "'fina' Terminal Forms in Arabic lookup 2 subtable" afii62776
Substitution2: "'init' Initial Forms in Arabic lookup 1 subtable" afii62774
EndChar

StartChar: afii62776
Encoding: 65186 65186 182
Width: 1524
GlyphClass: 2
Flags: W
AnchorPoint: "Anchor-3" 600 -1575 basechar 0
AnchorPoint: "Anchor-2" 855 1080 basechar 0
LayerCount: 2
Fore
SplineSet
207 -391 m 0,0,1
 210 -176 210 -176 316 -22.5 c 128,-1,2
 422 131 422 131 612 262 c 0,3,4
 623 270 623 270 965 469 c 1,5,-1
 594 559 l 1,6,-1
 559 463 l 1,7,-1
 270 532 l 1,8,-1
 371 911 l 1,9,-1
 1415 709 l 1,10,-1
 1411 420 l 1,11,-1
 1311 352 l 1,12,13
 1368 317 1368 317 1538 322 c 1,14,-1
 1538 0 l 1,15,-1
 1303 0 l 2,16,17
 1167 0 1167 0 1012 142 c 1,18,19
 759 27 759 27 638.5 -101 c 128,-1,20
 518 -229 518 -229 518 -373 c 1,21,22
 531 -559 531 -559 788 -635 c 0,23,24
 877 -662 877 -662 1188 -700 c 1,25,-1
 1133 -1010 l 1,26,27
 926 -975 926 -975 715 -936 c 1,28,29
 475 -883 475 -883 356 -770 c 0,30,31
 207 -635 207 -635 207 -391 c 0,0,1
EndSplineSet
EndChar

StartChar: afii62774
Encoding: 65187 65187 183
Width: 1239
GlyphClass: 2
Flags: W
AnchorPoint: "Anchor-3" 555 -660 basechar 0
AnchorPoint: "Anchor-2" 780 1170 basechar 0
LayerCount: 2
Fore
SplineSet
-10 322 m 1,0,1
 483 322 483 322 819 479 c 1,2,-1
 416 578 l 1,3,-1
 393 508 l 1,4,-1
 96 588 l 1,5,-1
 197 936 l 1,6,-1
 1239 686 l 1,7,-1
 1239 387 l 1,8,9
 1030 307 1030 307 848 193 c 1,10,11
 686 82 686 82 592 51 c 0,12,13
 424 0 424 0 82 0 c 2,14,-1
 -10 0 l 1,15,-1
 -10 322 l 1,0,1
EndSplineSet
EndChar

StartChar: afii62775
Encoding: 65188 65188 184
Width: 1313
GlyphClass: 2
Flags: W
AnchorPoint: "Anchor-3" 510 -690 basechar 0
AnchorPoint: "Anchor-2" 690 1125 basechar 0
LayerCount: 2
Fore
SplineSet
-10 322 m 1,0,1
 565 322 565 322 823 479 c 1,2,-1
 420 578 l 1,3,-1
 397 508 l 1,4,-1
 96 592 l 1,5,-1
 205 936 l 1,6,-1
 1239 686 l 1,7,-1
 1237 387 l 1,8,-1
 1133 338 l 1,9,10
 1167 322 1167 322 1321 322 c 1,11,-1
 1321 0 l 1,12,-1
 1124 0 l 2,13,14
 993 0 993 0 829 152 c 1,15,16
 588 0 588 0 8 0 c 2,17,-1
 -10 0 l 1,18,-1
 -10 322 l 1,0,1
EndSplineSet
EndChar

StartChar: afii57423
Encoding: 1583 1583 189
Width: 1106
GlyphClass: 2
Flags: W
AnchorPoint: "Anchor-3" 450 -600 basechar 0
AnchorPoint: "Anchor-2" 465 1260 basechar 0
LayerCount: 2
Fore
SplineSet
207 322 m 1,0,-1
 698 322 l 2,1,2
 780 322 780 322 780 381 c 0,3,4
 780 412 780 412 487 887 c 1,5,-1
 764 1057 l 1,6,7
 870 887 870 887 975 713 c 0,8,9
 1106 487 1106 487 1106 344 c 0,10,11
 1106 174 1106 174 969 82 c 0,12,13
 848 0 848 0 670 0 c 2,14,-1
 207 0 l 1,15,-1
 207 322 l 1,0,-1
EndSplineSet
Substitution2: "'fina' Terminal Forms in Arabic lookup 2 subtable" afii62780
EndChar

StartChar: afii62780
Encoding: 65194 65194 190
Width: 1289
GlyphClass: 2
Flags: W
AnchorPoint: "Anchor-3" 540 -675 basechar 0
AnchorPoint: "Anchor-2" 570 1260 basechar 0
LayerCount: 2
Fore
SplineSet
193 322 m 1,0,-1
 492 322 l 2,1,2
 754 319 754 319 754 389 c 1,3,4
 766 420 766 420 640 629 c 1,5,-1
 476 887 l 1,6,-1
 750 1059 l 1,7,-1
 1082 467 l 1,8,9
 1137 358 1137 358 1164 344 c 1,10,11
 1194 322 1194 322 1305 322 c 1,12,-1
 1305 0 l 1,13,14
 1182 0 1182 0 1137 10 c 1,15,16
 1063 35 1063 35 998 113 c 1,17,18
 860 0 860 0 623 0 c 2,19,-1
 193 0 l 1,20,-1
 193 322 l 1,0,-1
EndSplineSet
EndChar

StartChar: afii57425
Encoding: 1585 1585 193
Width: 1006
GlyphClass: 2
Flags: W
AnchorPoint: "Anchor-3" 390 -1035 basechar 0
AnchorPoint: "Anchor-2" 630 840 basechar 0
LayerCount: 2
Fore
SplineSet
138 -285 m 1,0,1
 476 -121 476 -121 478 -121 c 0,2,3
 695 8 695 8 695 145 c 0,4,5
 695 260 695 260 576 543 c 1,6,-1
 879 645 l 1,7,8
 1006 309 1006 309 1006 145 c 0,9,10
 1006 -47 1006 -47 889 -188 c 0,11,12
 793 -299 793 -299 605 -397 c 0,13,14
 443 -479 443 -479 277 -563 c 1,15,-1
 138 -285 l 1,16,-1
 138 -285 l 1,0,1
EndSplineSet
Substitution2: "'fina' Terminal Forms in Arabic lookup 2 subtable" afii62782
PairPos2: "'kern' Horizontal Kerning in Arabic lookup 0 subtable" afii57415 dx=0 dy=0 dh=0 dv=0 dx=0 dy=0 dh=-220 dv=0
PairPos2: "'kern' Horizontal Kerning in Arabic lookup 0 subtable" uni0675 dx=0 dy=0 dh=0 dv=0 dx=0 dy=0 dh=-220 dv=0
PairPos2: "'kern' Horizontal Kerning in Arabic lookup 0 subtable" uni0672 dx=0 dy=0 dh=0 dv=0 dx=0 dy=0 dh=-220 dv=0
PairPos2: "'kern' Horizontal Kerning in Arabic lookup 0 subtable" afii62840 dx=0 dy=0 dh=0 dv=0 dx=0 dy=0 dh=-150 dv=0
PairPos2: "'kern' Horizontal Kerning in Arabic lookup 0 subtable" afii62838 dx=0 dy=0 dh=0 dv=0 dx=0 dy=0 dh=-150 dv=0
PairPos2: "'kern' Horizontal Kerning in Arabic lookup 0 subtable" afii62836 dx=0 dy=0 dh=0 dv=0 dx=0 dy=0 dh=-150 dv=0
PairPos2: "'kern' Horizontal Kerning in Arabic lookup 0 subtable" afii62834 dx=0 dy=0 dh=0 dv=0 dx=0 dy=0 dh=-150 dv=0
PairPos2: "'kern' Horizontal Kerning in Arabic lookup 0 subtable" afii62823 dx=0 dy=0 dh=0 dv=0 dx=0 dy=0 dh=-150 dv=0
PairPos2: "'kern' Horizontal Kerning in Arabic lookup 0 subtable" afii62817 dx=0 dy=0 dh=0 dv=0 dx=0 dy=0 dh=-60 dv=0
PairPos2: "'kern' Horizontal Kerning in Arabic lookup 0 subtable" afii57410 dx=0 dy=0 dh=0 dv=0 dx=0 dy=0 dh=-200 dv=0
PairPos2: "'kern' Horizontal Kerning in Arabic lookup 0 subtable" afii57443 dx=0 dy=0 dh=0 dv=0 dx=0 dy=0 dh=-60 dv=0
PairPos2: "'kern' Horizontal Kerning in Arabic lookup 0 subtable" afii57422 dx=0 dy=0 dh=0 dv=0 dx=0 dy=0 dh=60 dv=0
PairPos2: "'kern' Horizontal Kerning in Arabic lookup 0 subtable" afii57421 dx=0 dy=0 dh=0 dv=0 dx=0 dy=0 dh=60 dv=0
PairPos2: "'kern' Horizontal Kerning in Arabic lookup 0 subtable" afii57420 dx=0 dy=0 dh=0 dv=0 dx=0 dy=0 dh=60 dv=0
PairPos2: "'kern' Horizontal Kerning in Arabic lookup 0 subtable" afii62768 dx=0 dy=0 dh=0 dv=0 dx=0 dy=0 dh=-150 dv=0
PairPos2: "'kern' Horizontal Kerning in Arabic lookup 0 subtable" afii62765 dx=0 dy=0 dh=0 dv=0 dx=0 dy=0 dh=-150 dv=0
PairPos2: "'kern' Horizontal Kerning in Arabic lookup 0 subtable" afii62761 dx=0 dy=0 dh=0 dv=0 dx=0 dy=0 dh=-150 dv=0
PairPos2: "'kern' Horizontal Kerning in Arabic lookup 0 subtable" afii57415.001 dx=0 dy=0 dh=0 dv=0 dx=0 dy=0 dh=-220 dv=0
PairPos2: "'kern' Horizontal Kerning in Arabic lookup 0 subtable" afii62757 dx=0 dy=0 dh=0 dv=0 dx=0 dy=0 dh=-150 dv=0
PairPos2: "'kern' Horizontal Kerning in Arabic lookup 0 subtable" afii57413 dx=0 dy=0 dh=0 dv=0 dx=0 dy=0 dh=-100 dv=0
PairPos2: "'kern' Horizontal Kerning in Arabic lookup 0 subtable" afii57411 dx=0 dy=0 dh=0 dv=0 dx=0 dy=0 dh=-220 dv=0
PairPos2: "'kern' Horizontal Kerning in Arabic lookup 0 subtable" afii52399 dx=0 dy=0 dh=0 dv=0 dx=0 dy=0 dh=-100 dv=0
PairPos2: "'kern' Horizontal Kerning in Arabic lookup 0 subtable" afii62965 dx=0 dy=0 dh=0 dv=0 dx=0 dy=0 dh=-200 dv=0
PairPos2: "'kern' Horizontal Kerning in Arabic lookup 0 subtable" afii57509 dx=0 dy=0 dh=0 dv=0 dx=0 dy=0 dh=-200 dv=0
PairPos2: "'kern' Horizontal Kerning in Arabic lookup 0 subtable" afii52305 dx=0 dy=0 dh=0 dv=0 dx=0 dy=0 dh=-200 dv=0
PairPos2: "'kern' Horizontal Kerning in Arabic lookup 0 subtable" afii57567 dx=0 dy=0 dh=0 dv=0 dx=0 dy=0 dh=-200 dv=0
PairPos2: "'kern' Horizontal Kerning in Arabic lookup 0 subtable" afii57507 dx=0 dy=0 dh=0 dv=0 dx=0 dy=0 dh=60 dv=0
EndChar

StartChar: afii62782
Encoding: 65198 65198 194
Width: 1243
GlyphClass: 2
Flags: W
AnchorPoint: "Anchor-3" 420 -1155 basechar 0
AnchorPoint: "Anchor-2" 705 780 basechar 0
LayerCount: 2
Fore
SplineSet
207 -375 m 1,0,1
 518 -225 518 -225 547 -207 c 0,2,3
 760 -74 760 -74 760 74 c 0,4,5
 760 158 760 158 715 266 c 1,6,7
 682 356 682 356 641 451 c 1,8,-1
 940 559 l 1,9,10
 1010 387 1010 387 1040 358 c 0,11,12
 1085 322 1085 322 1255 322 c 1,13,-1
 1255 0 l 1,14,-1
 1200 0 l 2,15,16
 1087 0 1087 0 1049 74 c 1,17,18
 1057 29 1057 29 1057 -10 c 0,19,20
 1057 -233 1057 -233 799 -416 c 0,21,22
 725 -467 725 -467 346 -653 c 1,23,-1
 207 -375 l 1,24,-1
 207 -375 l 1,0,1
EndSplineSet
PairPos2: "'kern' Horizontal Kerning in Arabic lookup 0 subtable" afii57415 dx=0 dy=0 dh=0 dv=0 dx=0 dy=0 dh=-100 dv=0
PairPos2: "'kern' Horizontal Kerning in Arabic lookup 0 subtable" uni0675 dx=0 dy=0 dh=0 dv=0 dx=0 dy=0 dh=-100 dv=0
PairPos2: "'kern' Horizontal Kerning in Arabic lookup 0 subtable" uni0672 dx=0 dy=0 dh=0 dv=0 dx=0 dy=0 dh=-100 dv=0
PairPos2: "'kern' Horizontal Kerning in Arabic lookup 0 subtable" afii62840 dx=0 dy=0 dh=0 dv=0 dx=0 dy=0 dh=-150 dv=0
PairPos2: "'kern' Horizontal Kerning in Arabic lookup 0 subtable" afii62838 dx=0 dy=0 dh=0 dv=0 dx=0 dy=0 dh=-150 dv=0
PairPos2: "'kern' Horizontal Kerning in Arabic lookup 0 subtable" afii62836 dx=0 dy=0 dh=0 dv=0 dx=0 dy=0 dh=-150 dv=0
PairPos2: "'kern' Horizontal Kerning in Arabic lookup 0 subtable" afii62834 dx=0 dy=0 dh=0 dv=0 dx=0 dy=0 dh=-150 dv=0
PairPos2: "'kern' Horizontal Kerning in Arabic lookup 0 subtable" afii57448 dx=0 dy=0 dh=0 dv=0 dx=0 dy=0 dh=-100 dv=0
PairPos2: "'kern' Horizontal Kerning in Arabic lookup 0 subtable" afii62817 dx=0 dy=0 dh=0 dv=0 dx=0 dy=0 dh=-100 dv=0
PairPos2: "'kern' Horizontal Kerning in Arabic lookup 0 subtable" afii57410 dx=0 dy=0 dh=0 dv=0 dx=0 dy=0 dh=-200 dv=0
PairPos2: "'kern' Horizontal Kerning in Arabic lookup 0 subtable" afii57443 dx=0 dy=0 dh=0 dv=0 dx=0 dy=0 dh=-100 dv=0
PairPos2: "'kern' Horizontal Kerning in Arabic lookup 0 subtable" afii57426 dx=0 dy=0 dh=0 dv=0 dx=0 dy=0 dh=-100 dv=0
PairPos2: "'kern' Horizontal Kerning in Arabic lookup 0 subtable" afii57425 dx=0 dy=0 dh=0 dv=0 dx=0 dy=0 dh=-100 dv=0
PairPos2: "'kern' Horizontal Kerning in Arabic lookup 0 subtable" afii57415.001 dx=0 dy=0 dh=0 dv=0 dx=0 dy=0 dh=-100 dv=0
PairPos2: "'kern' Horizontal Kerning in Arabic lookup 0 subtable" afii57413 dx=0 dy=0 dh=0 dv=0 dx=0 dy=0 dh=-100 dv=0
PairPos2: "'kern' Horizontal Kerning in Arabic lookup 0 subtable" afii57411 dx=0 dy=0 dh=0 dv=0 dx=0 dy=0 dh=-100 dv=0
PairPos2: "'kern' Horizontal Kerning in Arabic lookup 0 subtable" afii52399 dx=0 dy=0 dh=0 dv=0 dx=0 dy=0 dh=-100 dv=0
PairPos2: "'kern' Horizontal Kerning in Arabic lookup 0 subtable" afii62965 dx=0 dy=0 dh=0 dv=0 dx=0 dy=0 dh=-200 dv=0
PairPos2: "'kern' Horizontal Kerning in Arabic lookup 0 subtable" afii57509 dx=0 dy=0 dh=0 dv=0 dx=0 dy=0 dh=-200 dv=0
PairPos2: "'kern' Horizontal Kerning in Arabic lookup 0 subtable" afii52305 dx=0 dy=0 dh=0 dv=0 dx=0 dy=0 dh=-200 dv=0
PairPos2: "'kern' Horizontal Kerning in Arabic lookup 0 subtable" afii57567 dx=0 dy=0 dh=0 dv=0 dx=0 dy=0 dh=-200 dv=0
EndChar

StartChar: afii57427
Encoding: 1587 1587 197
Width: 2824
GlyphClass: 2
Flags: W
AnchorPoint: "Anchor-3" 1125 -1170 basechar 0
AnchorPoint: "Anchor-2" 1815 1020 basechar 0
LayerCount: 2
Fore
SplineSet
207 -127 m 0,0,1
 207 29 207 29 260 233 c 0,2,3
 307 414 307 414 356 592 c 1,4,-1
 686 508 l 1,5,6
 637 356 637 356 594 207 c 0,7,8
 547 35 547 35 547 -98 c 0,9,10
 547 -217 547 -217 629 -285 c 1,11,12
 700 -352 700 -352 825 -352 c 0,13,14
 969 -352 969 -352 1165 -285 c 0,15,16
 1329 -229 1329 -229 1493 -168 c 1,17,-1
 1311 563 l 1,18,-1
 1628 653 l 1,19,20
 1673 459 1673 459 1675 444 c 0,21,22
 1726 322 1726 322 1819 322 c 0,23,24
 1929 322 1929 322 1960 623 c 1,25,-1
 2288 565 l 1,26,27
 2257 444 2257 444 2257 397 c 0,28,29
 2257 322 2257 322 2365 322 c 0,30,31
 2488 322 2488 322 2488 406 c 0,32,33
 2488 475 2488 475 2441 610 c 1,34,-1
 2742 700 l 1,35,36
 2824 444 2824 444 2824 344 c 0,37,38
 2824 166 2824 166 2687 74 c 0,39,40
 2570 0 2570 0 2378 0 c 0,41,42
 2157 0 2157 0 2093 96 c 1,43,44
 1993 0 1993 0 1870 0 c 0,45,46
 1774 0 1774 0 1743 43 c 1,47,-1
 1855 -369 l 1,48,49
 1585 -463 1585 -463 1313 -565 c 1,50,51
 948 -686 948 -686 764 -686 c 0,52,53
 516 -686 516 -686 361.5 -532.5 c 128,-1,54
 207 -379 207 -379 207 -127 c 0,0,1
EndSplineSet
Substitution2: "'medi' Medial Forms in Arabic lookup 3 subtable" afii62785
Substitution2: "'fina' Terminal Forms in Arabic lookup 2 subtable" afii62786
Substitution2: "'init' Initial Forms in Arabic lookup 1 subtable" afii62784
EndChar

StartChar: afii62786
Encoding: 65202 65202 198
Width: 3062
GlyphClass: 2
Flags: W
AnchorPoint: "Anchor-3" 1245 -1110 basechar 0
AnchorPoint: "Anchor-2" 1800 1125 basechar 0
LayerCount: 2
Fore
SplineSet
207 -137 m 0,0,1
 207 29 207 29 264 248 c 1,2,3
 322 432 322 432 377 623 c 1,4,-1
 688 506 l 1,5,6
 641 358 641 358 594 215 c 1,7,8
 547 43 547 43 547 -84 c 0,9,10
 547 -213 547 -213 623.5 -282.5 c 128,-1,11
 700 -352 700 -352 829 -352 c 0,12,13
 967 -352 967 -352 1165 -285 c 1,14,15
 1329 -225 1329 -225 1493 -158 c 1,16,-1
 1311 563 l 1,17,-1
 1645 641 l 1,18,19
 1692 453 1692 453 1692 444 c 0,20,21
 1739 322 1739 322 1831 322 c 0,22,23
 1939 322 1939 322 1970 623 c 1,24,-1
 2296 565 l 1,25,26
 2273 444 2273 444 2273 397 c 0,27,28
 2273 322 2273 322 2386 322 c 0,29,30
 2501 322 2501 322 2501 406 c 0,31,32
 2501 475 2501 475 2454 610 c 1,33,-1
 2753 700 l 1,34,35
 2775 602 2775 602 2793 496 c 1,36,37
 2818 406 2818 406 2873 362 c 1,38,39
 2935 322 2935 322 3074 322 c 1,40,-1
 3074 0 l 1,41,42
 2830 0 2830 0 2720 96 c 1,43,44
 2593 0 2593 0 2374 0 c 0,45,46
 2165 0 2165 0 2107 96 c 1,47,48
 2005 0 2005 0 1876 0 c 0,49,50
 1784 0 1784 0 1755 43 c 1,51,-1
 1851 -369 l 1,52,53
 1587 -467 1587 -467 1317 -565 c 1,54,55
 958 -686 958 -686 774 -686 c 0,56,57
 526 -686 526 -686 367 -537 c 1,58,59
 207 -381 207 -381 207 -137 c 0,0,1
EndSplineSet
EndChar

StartChar: afii62784
Encoding: 65203 65203 199
Width: 1667
GlyphClass: 2
Flags: W
AnchorPoint: "Anchor-3" 735 -720 basechar 0
AnchorPoint: "Anchor-2" 855 1050 basechar 0
LayerCount: 2
Fore
SplineSet
-10 322 m 1,0,1
 102 317 102 317 139 326 c 0,2,3
 233 346 233 346 233 420 c 0,4,5
 233 475 233 475 207 563 c 1,6,-1
 516 623 l 1,7,8
 539 475 539 475 551 438 c 0,9,10
 588 322 588 322 662 322 c 0,11,12
 741 322 741 322 774 436 c 0,13,14
 780 453 780 453 807 623 c 1,15,-1
 1112 573 l 1,16,-1
 1077 371 l 1,17,18
 1096 322 1096 322 1196 322 c 0,19,20
 1249 322 1249 322 1292 344 c 0,21,22
 1346 371 1346 371 1346 416 c 0,23,24
 1346 444 1346 444 1288 662 c 1,25,-1
 1593 725 l 1,26,27
 1667 424 1667 424 1667 346 c 0,28,29
 1667 186 1667 186 1513 84 c 1,30,31
 1378 0 1378 0 1208 0 c 0,32,33
 995 0 995 0 936 111 c 1,34,35
 848 0 848 0 700 0 c 0,36,37
 545 0 545 0 432 135 c 1,38,39
 387 45 387 45 262 16 c 0,40,41
 193 0 193 0 43 0 c 2,42,-1
 -10 0 l 1,43,-1
 -10 322 l 1,0,1
EndSplineSet
EndChar

StartChar: afii62785
Encoding: 65204 65204 200
Width: 1823
GlyphClass: 2
Flags: W
AnchorPoint: "Anchor-3" 765 -720 basechar 0
AnchorPoint: "Anchor-2" 990 915 basechar 0
LayerCount: 2
Fore
SplineSet
-10 322 m 1,0,1
 102 317 102 317 139 322 c 0,2,3
 231 344 231 344 231 420 c 0,4,5
 231 438 231 438 207 565 c 1,6,-1
 518 618 l 1,7,8
 547 463 547 463 559 432 c 0,9,10
 594 322 594 322 670 322 c 0,11,12
 807 322 807 322 807 623 c 1,13,-1
 1112 573 l 1,14,15
 1077 383 1077 383 1077 375 c 0,16,17
 1077 322 1077 322 1217 322 c 0,18,19
 1329 322 1329 322 1329 406 c 0,20,21
 1329 432 1329 432 1284 616 c 1,22,-1
 1585 700 l 1,23,24
 1620 516 1620 516 1645 453 c 0,25,26
 1706 322 1706 322 1835 322 c 1,27,-1
 1835 0 l 1,28,29
 1653 0 1653 0 1540 102 c 1,30,31
 1395 0 1395 0 1200 0 c 0,32,33
 1001 0 1001 0 936 111 c 1,34,35
 836 0 836 0 690 0 c 0,36,37
 539 0 539 0 432 127 c 1,38,39
 377 43 377 43 260 16 c 0,40,41
 186 0 186 0 35 0 c 2,42,-1
 -10 0 l 1,43,-1
 -10 322 l 1,0,1
EndSplineSet
EndChar

StartChar: afii57429
Encoding: 1589 1589 205
Width: 2959
GlyphClass: 2
Flags: W
AnchorPoint: "Anchor-3" 1395 -1230 basechar 0
AnchorPoint: "Anchor-2" 1740 1140 basechar 0
LayerCount: 2
Fore
SplineSet
207 -131 m 0,0,1
 207 23 207 23 264 231 c 1,2,3
 322 412 322 412 377 584 c 1,4,-1
 694 512 l 1,5,6
 649 358 649 358 598 211 c 1,7,8
 547 35 547 35 547 -100 c 0,9,10
 547 -221 547 -221 628 -286.5 c 128,-1,11
 709 -352 709 -352 825 -352 c 0,12,13
 958 -352 958 -352 1165 -285 c 0,14,15
 1329 -229 1329 -229 1493 -168 c 1,16,-1
 1319 565 l 1,17,-1
 1632 637 l 1,18,-1
 1675 420 l 1,19,20
 1866 584 1866 584 2111 733 c 1,21,22
 2431 920 2431 920 2599 920 c 0,23,24
 2755 920 2755 920 2857 816.5 c 128,-1,25
 2959 713 2959 713 2959 559 c 0,26,27
 2959 0 2959 0 2441 0 c 2,28,-1
 1999 0 l 2,29,30
 1876 0 1876 0 1753 45 c 1,31,-1
 1851 -371 l 1,32,33
 1585 -467 1585 -467 1313 -565 c 1,34,35
 958 -682 958 -682 768 -682 c 0,36,37
 522 -682 522 -682 364.5 -530.5 c 128,-1,38
 207 -379 207 -379 207 -131 c 0,0,1
2454 322 m 2,39,40
 2556 322 2556 322 2597 357.5 c 128,-1,41
 2638 393 2638 393 2638 489 c 0,42,43
 2638 584 2638 584 2548 584 c 0,44,45
 2449 584 2449 584 2017 322 c 1,46,-1
 2454 322 l 2,39,40
EndSplineSet
Substitution2: "'medi' Medial Forms in Arabic lookup 3 subtable" afii62791
Substitution2: "'fina' Terminal Forms in Arabic lookup 2 subtable" afii62792
Substitution2: "'init' Initial Forms in Arabic lookup 1 subtable" afii62790
EndChar

StartChar: afii62792
Encoding: 65210 65210 206
Width: 3150
GlyphClass: 2
Flags: W
AnchorPoint: "Anchor-3" 1380 -1110 basechar 0
AnchorPoint: "Anchor-2" 1785 1050 basechar 0
LayerCount: 2
Fore
SplineSet
207 -145 m 0,0,1
 207 16 207 16 266 231 c 1,2,3
 326 416 326 416 387 598 c 1,4,-1
 690 500 l 1,5,6
 641 352 641 352 594 203 c 1,7,8
 545 23 545 23 545 -102 c 0,9,10
 545 -225 545 -225 621.5 -292.5 c 128,-1,11
 698 -360 698 -360 819 -360 c 0,12,13
 948 -360 948 -360 1157 -295 c 1,14,15
 1321 -233 1321 -233 1487 -176 c 1,16,-1
 1313 547 l 1,17,-1
 1640 635 l 1,18,-1
 1688 444 l 1,19,20
 1815 573 1815 573 2126 741 c 1,21,22
 2454 926 2454 926 2607 926 c 0,23,24
 2818 926 2818 926 2892 786 c 1,25,26
 2935 715 2935 715 2945 522 c 1,27,28
 2959 362 2959 362 3015 338 c 0,29,30
 3062 317 3062 317 3164 322 c 1,31,-1
 3164 0 l 1,32,-1
 3121 0 l 2,33,34
 2925 0 2925 0 2818 102 c 1,35,36
 2714 0 2714 0 2488 0 c 2,37,-1
 1968 0 l 2,38,39
 1851 0 1851 0 1755 39 c 1,40,-1
 1851 -379 l 1,41,42
 1581 -475 1581 -475 1311 -573 c 1,43,44
 948 -694 948 -694 764 -694 c 0,45,46
 518 -694 518 -694 362.5 -543.5 c 128,-1,47
 207 -393 207 -393 207 -145 c 0,0,1
2435 322 m 2,48,49
 2540 322 2540 322 2580 346 c 0,50,51
 2638 381 2638 381 2638 479 c 0,52,53
 2638 588 2638 588 2550 588 c 0,54,55
 2460 588 2460 588 2273 479 c 0,56,57
 2132 397 2132 397 2005 322 c 1,58,-1
 2435 322 l 2,48,49
EndSplineSet
EndChar

StartChar: afii62790
Encoding: 65211 65211 207
Width: 1802
GlyphClass: 2
Flags: W
AnchorPoint: "Anchor-3" 645 -750 basechar 0
AnchorPoint: "Anchor-2" 645 1110 basechar 0
LayerCount: 2
Fore
SplineSet
-10 322 m 1,0,1
 88 322 88 322 119 326 c 1,2,3
 195 346 195 346 195 428 c 0,4,5
 195 467 195 467 135 674 c 1,6,-1
 459 754 l 1,7,8
 475 645 475 645 530 428 c 1,9,10
 711 598 711 598 958 741 c 0,11,12
 1262 920 1262 920 1446 920 c 0,13,14
 1604 920 1604 920 1703 822.5 c 128,-1,15
 1802 725 1802 725 1802 565 c 0,16,17
 1802 186 1802 186 1587 66 c 1,18,19
 1438 -10 1438 -10 1018 -10 c 0,20,21
 733 -10 733 -10 573 55 c 0,22,23
 428 113 428 113 428 174 c 1,24,25
 358 57 358 57 250 23 c 0,26,27
 178 0 178 0 23 0 c 2,28,-1
 -10 0 l 1,29,-1
 -10 322 l 1,0,1
1284 322 m 2,30,31
 1479 322 1479 322 1479 500 c 0,32,33
 1479 584 1479 584 1391 584 c 0,34,35
 1311 584 1311 584 856 322 c 1,36,-1
 1284 322 l 2,30,31
EndSplineSet
EndChar

StartChar: afii62791
Encoding: 65212 65212 208
Width: 2021
GlyphClass: 2
Flags: W
AnchorPoint: "Anchor-3" 675 -720 basechar 0
AnchorPoint: "Anchor-2" 870 1200 basechar 0
LayerCount: 2
Fore
SplineSet
-10 322 m 1,0,1
 96 317 96 317 127 322 c 0,2,3
 211 340 211 340 211 414 c 0,4,5
 211 459 211 459 152 686 c 1,6,-1
 469 754 l 1,7,8
 526 467 526 467 559 467 c 1,9,10
 670 559 670 559 972 741.5 c 128,-1,11
 1274 924 1274 924 1446 920 c 1,12,13
 1669 920 1669 920 1749 770 c 1,14,15
 1812 670 1812 670 1812 420 c 0,16,17
 1812 346 1812 346 1894 326 c 0,18,19
 1923 322 1923 322 1999 322 c 2,20,-1
 2036 322 l 1,21,-1
 2036 0 l 1,22,-1
 2017 0 l 2,23,24
 1894 0 1894 0 1835 16 c 0,25,26
 1749 39 1749 39 1692 119 c 1,27,28
 1571 0 1571 0 1296 0 c 2,29,-1
 848 0 l 2,30,31
 616 0 616 0 444 174 c 1,32,33
 387 66 387 66 289 29 c 0,34,35
 221 0 221 0 84 0 c 2,36,-1
 -10 0 l 1,37,-1
 -10 322 l 1,0,1
1284 322 m 2,38,39
 1487 322 1487 322 1487 463 c 0,40,41
 1487 588 1487 588 1409 588 c 0,42,43
 1327 588 1327 588 862 322 c 1,44,-1
 1284 322 l 2,38,39
EndSplineSet
EndChar

StartChar: afii57431
Encoding: 1591 1591 213
Width: 1565
GlyphClass: 2
Flags: W
AnchorPoint: "Anchor-3" 765 -660 basechar 0
AnchorPoint: "Anchor-2" 1080 1290 basechar 0
LayerCount: 2
Fore
SplineSet
130 322 m 1,0,-1
 298 322 l 1,1,-1
 222 1321 l 1,2,-1
 546 1346 l 1,3,-1
 599 610 l 1,4,5
 1014 887 1014 887 1227 887 c 0,6,7
 1379 887 1379 887 1472 790.5 c 128,-1,8
 1565 694 1565 694 1565 545 c 0,9,10
 1565 207 1565 207 1352 84 c 1,11,12
 1197 0 1197 0 830 0 c 2,13,-1
 130 0 l 1,14,-1
 130 322 l 1,0,-1
1060 322 m 2,15,16
 1141 322 1141 322 1199 352 c 0,17,18
 1273 393 1273 393 1273 467 c 0,19,20
 1273 588 1273 588 1180 588 c 0,21,22
 1125 588 1125 588 914 473 c 0,23,24
 775 393 775 393 636 322 c 1,25,-1
 1060 322 l 2,15,16
EndSplineSet
Substitution2: "'medi' Medial Forms in Arabic lookup 3 subtable" afii62797
Substitution2: "'fina' Terminal Forms in Arabic lookup 2 subtable" afii62798
Substitution2: "'init' Initial Forms in Arabic lookup 1 subtable" afii62796
EndChar

StartChar: afii62798
Encoding: 65218 65218 214
Width: 1697
GlyphClass: 2
Flags: W
AnchorPoint: "Anchor-3" 750 -720 basechar 0
AnchorPoint: "Anchor-2" 1005 1245 basechar 0
LayerCount: 2
Fore
SplineSet
141 322 m 1,0,-1
 303 322 l 1,1,-1
 221 1319 l 1,2,-1
 511 1346 l 1,3,-1
 573 610 l 1,4,5
 733 713 733 713 905 800 c 128,-1,6
 1077 887 1077 887 1183 887 c 0,7,8
 1392 887 1392 887 1472 778.5 c 128,-1,9
 1552 670 1552 670 1549 511 c 128,-1,10
 1546 352 1546 352 1576 338 c 0,11,12
 1628 317 1628 317 1709 322 c 1,13,-1
 1709 0 l 1,14,15
 1482 0 1482 0 1376 113 c 1,16,17
 1222 0 1222 0 780 0 c 2,18,-1
 141 0 l 1,19,-1
 141 322 l 1,0,-1
1021 322 m 2,20,21
 1243 322 1243 322 1243 475 c 0,22,23
 1243 588 1243 588 1150 588 c 0,24,25
 1081 588 1081 588 880 475 c 0,26,27
 745 397 745 397 610 322 c 1,28,-1
 1021 322 l 2,20,21
EndSplineSet
EndChar

StartChar: afii62796
Encoding: 65219 65219 215
Width: 1369
GlyphClass: 2
Flags: W
AnchorPoint: "Anchor-3" 540 -630 basechar 0
AnchorPoint: "Anchor-2" 825 1275 basechar 0
LayerCount: 2
Fore
SplineSet
-17 322 m 1,0,-1
 130 322 l 1,1,-1
 52 1319 l 1,2,-1
 345 1346 l 1,3,-1
 404 610 l 1,4,5
 554 694 554 694 707 782 c 0,6,7
 896 887 896 887 1035 887 c 0,8,9
 1201 887 1201 887 1287 768 c 1,10,11
 1369 670 1369 670 1369 492 c 0,12,13
 1369 182 1369 182 1119 68 c 1,14,15
 953 0 953 0 588 0 c 2,16,-1
 -17 0 l 1,17,-1
 -17 322 l 1,0,-1
830 322 m 2,18,19
 1080 322 1080 322 1080 500 c 0,20,21
 1080 588 1080 588 986 588 c 0,22,23
 904 588 904 588 709 479 c 0,24,25
 693 467 693 467 439 322 c 1,26,-1
 830 322 l 2,18,19
EndSplineSet
EndChar

StartChar: afii62797
Encoding: 65220 65220 216
Width: 1589
GlyphClass: 2
Flags: W
AnchorPoint: "Anchor-3" 600 -675 basechar 0
AnchorPoint: "Anchor-2" 900 1275 basechar 0
LayerCount: 2
Fore
SplineSet
-15 322 m 1,0,-1
 141 322 l 1,1,-1
 69 1319 l 1,2,-1
 362 1335 l 1,3,-1
 419 606 l 1,4,5
 855 883 855 883 1036 883 c 0,6,7
 1236 883 1236 883 1318 754 c 0,8,9
 1363 676 1363 676 1374 508 c 0,10,11
 1384 356 1384 356 1414.5 339 c 128,-1,12
 1445 322 1445 322 1605 322 c 1,13,-1
 1605 0 l 1,14,15
 1458 0 1458 0 1398 8 c 1,16,17
 1290 35 1290 35 1212 111 c 1,18,19
 1099 0 1099 0 579 0 c 2,20,-1
 -23 0 l 1,21,-1
 -15 322 l 1,0,-1
857 322 m 2,22,23
 1083 322 1083 322 1083 489 c 0,24,25
 1083 582 1083 582 997 582 c 0,26,27
 921 582 921 582 726 473 c 0,28,29
 718 469 718 469 460 322 c 1,30,-1
 857 322 l 2,22,23
EndSplineSet
EndChar

StartChar: afii57433
Encoding: 1593 1593 221
Width: 1378
GlyphClass: 2
Flags: W
AnchorPoint: "Anchor-3" 585 -1545 basechar 0
AnchorPoint: "Anchor-2" 900 1140 basechar 0
LayerCount: 2
Fore
SplineSet
207 -401 m 0,0,1
 207 -176 207 -176 352 4 c 0,2,3
 444 121 444 121 694 285 c 1,4,5
 559 393 559 393 559 565 c 0,6,7
 559 764 559 764 778 887 c 0,8,9
 840 918 840 918 1171 1030 c 1,10,-1
 1280 741 l 1,11,12
 907 612 907 612 907 559 c 0,13,14
 907 496 907 496 1378 332 c 1,15,-1
 1255 37 l 1,16,-1
 1024 127 l 1,17,18
 731 -76 731 -76 713 -92 c 0,19,20
 539 -250 539 -250 539 -408 c 0,21,22
 539 -612 539 -612 764 -653 c 2,23,-1
 1200 -725 l 1,24,-1
 1133 -1040 l 1,25,26
 924 -1006 924 -1006 705 -971 c 1,27,28
 467 -920 467 -920 352 -807 c 0,29,30
 207 -670 207 -670 207 -401 c 0,0,1
EndSplineSet
Substitution2: "'medi' Medial Forms in Arabic lookup 3 subtable" afii62803
Substitution2: "'fina' Terminal Forms in Arabic lookup 2 subtable" afii62804
Substitution2: "'init' Initial Forms in Arabic lookup 1 subtable" afii62802
EndChar

StartChar: afii62804
Encoding: 65226 65226 222
Width: 1479
GlyphClass: 2
Flags: W
AnchorPoint: "Anchor-3" 585 -1500 basechar 0
AnchorPoint: "Anchor-2" 930 1140 basechar 0
LayerCount: 2
Fore
SplineSet
207 -381 m 0,0,1
 207 -115 207 -115 412 102 c 1,2,3
 584 295 584 295 860 406 c 1,4,5
 727 539 727 539 559 559 c 1,6,-1
 582 793 l 1,7,8
 653 793 653 793 796.5 796 c 128,-1,9
 940 799 940 799 1012 799 c 0,10,11
 1239 799 1239 799 1399 770 c 1,12,13
 1399 537 1399 537 1200 381 c 1,14,15
 1266 317 1266 317 1415 317 c 1,16,-1
 1493 322 l 1,17,-1
 1493 0 l 1,18,-1
 1335 0 l 2,19,20
 1141 0 1141 0 1004 139 c 1,21,22
 844 66 844 66 700 -66 c 1,23,24
 532 -231 532 -231 532 -375 c 0,25,26
 532 -559 532 -559 780 -639 c 0,27,28
 848 -657 848 -657 1184 -700 c 1,29,-1
 1126 -1012 l 1,30,31
 918 -975 918 -975 700 -940 c 1,32,33
 467 -891 467 -891 352 -778 c 0,34,35
 207 -639 207 -639 207 -381 c 0,0,1
EndSplineSet
EndChar

StartChar: afii62802
Encoding: 65227 65227 223
Width: 1024
GlyphClass: 2
Flags: W
AnchorPoint: "Anchor-3" 540 -555 basechar 0
AnchorPoint: "Anchor-2" 525 1275 basechar 0
LayerCount: 2
Fore
SplineSet
-10 322 m 1,0,1
 193 322 193 322 362 358 c 1,2,3
 281 397 281 397 227.5 478 c 128,-1,4
 174 559 174 559 174 645 c 0,5,6
 174 975 174 975 764 1040 c 1,7,-1
 840 743 l 1,8,9
 674 727 674 727 641 715 c 1,10,11
 512 688 512 688 512 606 c 0,12,13
 512 516 512 516 705 457 c 0,14,15
 856 414 856 414 975 414 c 0,16,17
 1004 414 1004 414 1024 416 c 1,18,-1
 965 84 l 1,19,20
 848 96 848 96 778 96 c 0,21,22
 645 96 645 96 382 48 c 128,-1,23
 119 0 119 0 -10 0 c 1,24,-1
 -10 322 l 1,0,1
EndSplineSet
EndChar

StartChar: afii62803
Encoding: 65228 65228 224
Width: 1010
GlyphClass: 2
Flags: W
AnchorPoint: "Anchor-3" 390 -615 basechar 0
AnchorPoint: "Anchor-2" 465 1140 basechar 0
LayerCount: 2
Fore
SplineSet
-10 322 m 1,0,1
 279 322 279 322 387 406 c 1,2,3
 264 532 264 532 84 559 c 1,4,-1
 113 793 l 1,5,-1
 420 799 l 1,6,7
 715 799 715 799 926 768 c 1,8,9
 926 526 926 526 725 375 c 1,10,11
 817 322 817 322 975 322 c 2,12,-1
 1022 322 l 1,13,-1
 1018 0 l 1,14,-1
 907 0 l 2,15,16
 629 0 629 0 516 152 c 1,17,18
 362 0 362 0 100 0 c 2,19,-1
 -10 0 l 1,20,-1
 -10 322 l 1,0,1
EndSplineSet
EndChar

StartChar: afii57443
Encoding: 1603 1603 237
Width: 1863
GlyphClass: 2
Flags: W
AnchorPoint: "Anchor-3" 810 -690 basechar 0
AnchorPoint: "Anchor-2" 855 1425 basechar 0
LayerCount: 2
Fore
SplineSet
547 0 m 2,0,1
 336 0 336 0 229 55 c 0,2,3
 82 127 82 127 82 322 c 0,4,5
 82 420 82 420 121 616 c 1,6,-1
 444 559 l 1,7,8
 428 430 428 430 428 420 c 0,9,10
 428 322 428 322 592 322 c 2,11,-1
 1219 322 l 1,12,13
 1460 317 1460 317 1460 457 c 1,14,15
 1356 1077 1356 1077 1313 1284 c 1,16,-1
 1647 1335 l 1,17,18
 1780 563 1780 563 1780 346 c 0,19,20
 1780 178 1780 178 1639.5 85 c 128,-1,21
 1499 -8 1499 -8 1329 0 c 1,22,-1
 547 0 l 2,0,1
652 1009 m 0,23,24
 652 1114 652 1114 742 1185 c 0,25,26
 822 1247 822 1247 935 1263 c 1,27,-1
 984 1105 l 1,28,29
 844 1081 844 1081 844 1030 c 0,30,31
 844 956 844 956 1000 956 c 0,32,33
 1047 956 1047 956 1102 970 c 1,34,-1
 1102 804 l 1,35,36
 1047 788 1047 788 879 712 c 0,37,38
 742 651 742 651 656 640 c 1,39,-1
 656 815 l 1,40,41
 724 823 724 823 795 864 c 1,42,43
 652 872 652 872 652 1009 c 0,23,24
EndSplineSet
Substitution2: "'medi' Medial Forms in Arabic lookup 3 subtable" afii52306
Substitution2: "'fina' Terminal Forms in Arabic lookup 2 subtable" afii62816
Substitution2: "'init' Initial Forms in Arabic lookup 1 subtable" afii52305
EndChar

StartChar: afii62816
Encoding: 65242 65242 238
Width: 2054
GlyphClass: 2
Flags: W
AnchorPoint: "Anchor-3" 915 -585 basechar 0
AnchorPoint: "Anchor-2" 945 1500 basechar 0
LayerCount: 2
Fore
SplineSet
100 322 m 0,0,1
 100 420 100 420 143 616 c 1,2,-1
 467 559 l 1,3,4
 444 430 444 430 444 420 c 0,5,6
 444 322 444 322 612 322 c 2,7,-1
 1386 322 l 2,8,9
 1518 322 1518 322 1518 393 c 2,10,-1
 1518 1339 l 1,11,-1
 1829 1339 l 1,12,13
 1811 487 1811 487 1826 464 c 1,14,15
 1849 312 1849 312 2099 322 c 1,16,-1
 2099 0 l 1,17,18
 1892 -6 1892 -6 1799 15.5 c 128,-1,19
 1706 37 1706 37 1679 124 c 1,20,21
 1581 0 1581 0 1313 0 c 2,22,-1
 569 0 l 2,23,24
 352 0 352 0 248 55 c 0,25,26
 100 127 100 127 100 322 c 0,0,1
762 1096 m 0,27,28
 762 1204 762 1204 854 1276 c 0,29,30
 932 1335 932 1335 1040 1354 c 1,31,-1
 1090 1196 l 1,32,33
 956 1167 956 1167 956 1120 c 0,34,35
 956 1049 956 1049 1108 1049 c 0,36,37
 1153 1049 1153 1049 1212 1059 c 1,38,-1
 1212 893 l 1,39,40
 1153 877 1153 877 985 801 c 0,41,42
 854 741 854 741 764 731 c 1,43,-1
 764 901 l 1,44,45
 829 911 829 911 907 954 c 1,46,47
 762 965 762 965 762 1096 c 0,27,28
EndSplineSet
EndChar

StartChar: afii57444
Encoding: 1604 1604 241
Width: 1679
GlyphClass: 2
Flags: W
AnchorPoint: "Anchor-3" 900 -1215 basechar 0
AnchorPoint: "Anchor-2" 1035 1395 basechar 0
LayerCount: 2
Fore
SplineSet
207 -82 m 0,0,1
 207 45 207 45 248 215 c 0,2,3
 285 358 285 358 326 506 c 1,4,-1
 649 432 l 1,5,6
 616 317 616 317 582 195 c 1,7,8
 547 51 547 51 547 -51 c 0,9,10
 547 -176 547 -176 623.5 -241.5 c 128,-1,11
 700 -307 700 -307 819 -307 c 0,12,13
 936 -307 936 -307 1087 -260 c 1,14,15
 1217 -207 1217 -207 1346 -158 c 1,16,-1
 1217 1262 l 1,17,-1
 1532 1296 l 1,18,-1
 1679 -375 l 1,19,20
 1456 -457 1456 -457 1227 -545 c 1,21,22
 926 -641 926 -641 764 -641 c 0,23,24
 526 -641 526 -641 366.5 -481.5 c 128,-1,25
 207 -322 207 -322 207 -82 c 0,0,1
EndSplineSet
Substitution2: "'medi' Medial Forms in Arabic lookup 3 subtable" afii62818
Substitution2: "'fina' Terminal Forms in Arabic lookup 2 subtable" afii62819
Substitution2: "'init' Initial Forms in Arabic lookup 1 subtable" afii62817
EndChar

StartChar: afii62817
Encoding: 65247 65247 242
Width: 547
GlyphClass: 2
Flags: W
AnchorPoint: "Anchor-3" 225 -645 basechar 0
AnchorPoint: "Anchor-2" 180 1590 basechar 0
LayerCount: 2
Fore
SplineSet
-10 322 m 1,0,1
 229 317 229 317 229 457 c 1,2,3
 211 631 211 631 166 854 c 128,-1,4
 121 1077 121 1077 82 1284 c 1,5,-1
 416 1335 l 1,6,-1
 489 860 l 1,7,8
 547 563 547 563 547 346 c 0,9,10
 547 178 547 178 393 63 c 1,11,12
 260 0 260 0 63 0 c 2,13,-1
 -10 0 l 1,14,-1
 -10 322 l 1,0,1
EndSplineSet
EndChar

StartChar: afii62818
Encoding: 65248 65248 243
Width: 823
GlyphClass: 2
Flags: W
AnchorPoint: "Anchor-3" 390 -660 basechar 0
AnchorPoint: "Anchor-2" 315 1590 basechar 0
LayerCount: 2
Fore
SplineSet
-10 322 m 1,0,1
 -4 322 -4 322 29 317 c 1,2,-1
 76 317 l 2,3,4
 264 317 264 317 264 451 c 0,5,6
 264 623 264 623 225 870 c 1,7,8
 186 1077 186 1077 145 1284 c 1,9,-1
 463 1335 l 1,10,-1
 610 428 l 1,11,12
 618 352 618 352 694 332 c 0,13,14
 737 322 737 322 840 322 c 1,15,-1
 840 0 l 1,16,-1
 782 0 l 2,17,18
 569 0 569 0 483 119 c 1,19,20
 397 0 397 0 143 0 c 2,21,-1
 -10 0 l 1,22,-1
 -10 322 l 1,0,1
EndSplineSet
EndChar

StartChar: afii57445
Encoding: 1605 1605 244
Width: 1470
GlyphClass: 2
Flags: W
AnchorPoint: "Anchor-3" 990 -1125 basechar 0
AnchorPoint: "Anchor-2" 720 1110 basechar 0
LayerCount: 2
Fore
SplineSet
207 74 m 0,0,1
 207 221 207 221 313.5 326.5 c 128,-1,2
 420 432 420 432 569 432 c 0,3,4
 598 432 598 432 623 430 c 1,5,6
 819 723 819 723 825 727 c 0,7,8
 969 893 969 893 1124 893 c 0,9,10
 1313 893 1313 893 1368 694 c 0,11,12
 1470 346 1470 346 1470 221 c 0,13,14
 1470 92 1470 92 1379 5 c 128,-1,15
 1288 -82 1288 -82 1157 -82 c 0,16,17
 1073 -82 1073 -82 902 26.5 c 128,-1,18
 731 135 731 135 653 135 c 0,19,20
 526 135 526 135 526 -10 c 0,21,22
 526 -215 526 -215 565 -489 c 0,23,24
 598 -731 598 -731 635 -971 c 1,25,-1
 332 -1012 l 1,26,27
 289 -741 289 -741 250 -471 c 0,28,29
 207 -158 207 -158 207 74 c 0,0,1
909 362 m 1,30,31
 1126 217 1126 217 1151 217 c 0,32,33
 1196 217 1196 217 1196 264 c 0,34,35
 1196 336 1196 336 1165 444 c 1,36,37
 1133 582 1133 582 1090 588 c 1,38,39
 1049 573 1049 573 985 487 c 1,40,41
 983 475 983 475 909 362 c 1,30,31
EndSplineSet
Substitution2: "'medi' Medial Forms in Arabic lookup 3 subtable" afii62821
Substitution2: "'fina' Terminal Forms in Arabic lookup 2 subtable" afii62822
Substitution2: "'init' Initial Forms in Arabic lookup 1 subtable" afii62820
EndChar

StartChar: afii62822
Encoding: 65250 65250 245
Width: 1628
GlyphClass: 2
Flags: W
AnchorPoint: "Anchor-3" 1155 -960 basechar 0
AnchorPoint: "Anchor-2" 915 1035 basechar 0
LayerCount: 2
Fore
SplineSet
207 74 m 0,0,1
 207 221 207 221 313.5 326.5 c 128,-1,2
 420 432 420 432 569 432 c 0,3,4
 598 432 598 432 623 430 c 1,5,6
 819 725 819 725 825 727 c 0,7,8
 969 893 969 893 1124 893 c 0,9,10
 1280 893 1280 893 1346 762 c 0,11,12
 1378 694 1378 694 1411 500 c 0,13,14
 1438 352 1438 352 1483 332 c 0,15,16
 1524 317 1524 317 1606 322 c 1,17,-1
 1640 322 l 1,18,-1
 1640 0 l 1,19,-1
 1585 0 l 2,20,21
 1475 0 1475 0 1427 74 c 1,22,23
 1339 -74 1339 -74 1157 -74 c 0,24,25
 1059 -74 1059 -74 904.5 26.5 c 128,-1,26
 750 127 750 127 674 127 c 0,27,28
 526 127 526 127 526 -29 c 0,29,30
 526 -229 526 -229 565 -504 c 0,31,32
 598 -737 598 -737 635 -971 c 1,33,-1
 332 -1012 l 1,34,35
 289 -741 289 -741 250 -471 c 0,36,37
 207 -158 207 -158 207 74 c 0,0,1
909 362 m 1,38,39
 1126 217 1126 217 1151 217 c 0,40,41
 1196 217 1196 217 1196 264 c 0,42,43
 1196 336 1196 336 1165 444 c 1,44,45
 1133 582 1133 582 1090 588 c 1,46,47
 1049 573 1049 573 985 487 c 1,48,49
 983 475 983 475 909 362 c 1,38,39
EndSplineSet
EndChar

StartChar: afii62820
Encoding: 65251 65251 246
Width: 1040
GlyphClass: 2
Flags: W
AnchorPoint: "Anchor-3" 465 -630 basechar 0
AnchorPoint: "Anchor-2" 480 1155 basechar 0
LayerCount: 2
Fore
SplineSet
-10 322 m 1,0,-1
 96 322 l 1,1,2
 156 340 156 340 250 487 c 0,3,4
 381 688 381 688 432 741 c 0,5,6
 559 877 559 877 700 877 c 0,7,8
 893 877 893 877 948 682 c 0,9,10
 1040 338 1040 338 1040 221 c 0,11,12
 1040 92 1040 92 950 4 c 128,-1,13
 860 -84 860 -84 731 -84 c 0,14,15
 637 -84 637 -84 516 -10 c 1,16,17
 420 57 420 57 332 127 c 1,18,19
 260 43 260 43 178 16 c 0,20,21
 119 0 119 0 -10 0 c 1,22,-1
 -10 322 l 1,0,-1
487 346 m 1,23,24
 709 203 709 203 731 203 c 0,25,26
 774 203 774 203 774 250 c 0,27,28
 774 313 774 313 743 428 c 0,29,30
 709 565 709 565 670 573 c 1,31,32
 623 559 623 559 565 473 c 0,33,34
 563 467 563 467 487 346 c 1,23,24
EndSplineSet
EndChar

StartChar: afii57446
Encoding: 1606 1606 247
Width: 1862
GlyphClass: 2
Flags: W
AnchorPoint: "Anchor-3" 870 -1110 basechar 0
AnchorPoint: "Anchor-2" 1020 1260 basechar 0
LayerCount: 2
Fore
SplineSet
207 4 m 0,0,1
 207 158 207 158 266 367 c 1,2,3
 326 547 326 547 387 723 c 1,4,-1
 694 645 l 1,5,6
 645 496 645 496 602 346 c 0,7,8
 551 178 551 178 551 45 c 0,9,10
 551 -74 551 -74 632 -145.5 c 128,-1,11
 713 -217 713 -217 840 -217 c 256,12,13
 967 -217 967 -217 1178 -150 c 1,14,15
 1335 -88 1335 -88 1501 -35 c 1,16,-1
 1319 700 l 1,17,-1
 1628 764 l 1,18,-1
 1862 -233 l 1,19,20
 1591 -332 1591 -332 1319 -428 c 1,21,22
 967 -545 967 -545 778 -545 c 0,23,24
 532 -545 532 -545 369.5 -393.5 c 128,-1,25
 207 -242 207 -242 207 4 c 0,0,1
854 1014 m 1,26,-1
 1143 1014 l 1,27,-1
 1143 728 l 1,28,-1
 854 728 l 1,29,-1
 854 1014 l 1,26,-1
EndSplineSet
Substitution2: "'medi' Medial Forms in Arabic lookup 3 subtable" afii62824
Substitution2: "'fina' Terminal Forms in Arabic lookup 2 subtable" afii62825
Substitution2: "'init' Initial Forms in Arabic lookup 1 subtable" afii62823
EndChar

StartChar: afii62825
Encoding: 65254 65254 248
Width: 1962
GlyphClass: 2
Flags: W
AnchorPoint: "Anchor-3" 915 -1185 basechar 0
AnchorPoint: "Anchor-2" 945 1065 basechar 0
LayerCount: 2
Fore
SplineSet
207 -127 m 0,0,1
 207 29 207 29 264 238 c 1,2,3
 322 416 322 416 381 594 c 1,4,-1
 690 516 l 1,5,6
 641 362 641 362 594 217 c 1,7,8
 547 39 547 39 547 -92 c 0,9,10
 547 -215 547 -215 628 -283.5 c 128,-1,11
 709 -352 709 -352 836 -352 c 0,12,13
 971 -352 971 -352 1171 -285 c 1,14,15
 1335 -225 1335 -225 1497 -158 c 1,16,-1
 1319 565 l 1,17,-1
 1620 631 l 1,18,19
 1675 397 1675 397 1708 371 c 1,20,21
 1759 317 1759 317 1978 322 c 1,22,-1
 1978 0 l 1,23,24
 1835 0 1835 0 1763 43 c 1,25,-1
 1851 -371 l 1,26,27
 1587 -467 1587 -467 1319 -565 c 1,28,29
 967 -686 967 -686 778 -686 c 0,30,31
 530 -686 530 -686 368.5 -532.5 c 128,-1,32
 207 -379 207 -379 207 -127 c 0,0,1
850 884 m 1,33,-1
 1139 884 l 1,34,-1
 1139 598 l 1,35,-1
 850 598 l 1,36,-1
 850 884 l 1,33,-1
EndSplineSet
EndChar

StartChar: afii62828
Encoding: 65258 65258 252
Width: 1208
GlyphClass: 2
Flags: W
AnchorPoint: "Anchor-3" 570 -555 basechar 0
AnchorPoint: "Anchor-2" 690 1290 basechar 0
LayerCount: 2
Fore
SplineSet
207 518 m 0,0,1
 207 674 207 674 322 799 c 1,2,3
 592 1073 592 1073 743 1073 c 0,4,5
 948 1073 948 1073 1018 901 c 1,6,7
 1059 786 1059 786 1059 565 c 2,8,-1
 1059 506 l 2,9,10
 1059 352 1059 352 1096 340 c 1,11,12
 1133 322 1133 322 1206 322 c 2,13,-1
 1225 322 l 1,14,-1
 1225 0 l 1,15,-1
 1118 0 l 2,16,17
 893 0 893 0 819 156 c 1,18,19
 492 205 492 205 424 229 c 0,20,21
 207 309 207 309 207 518 c 0,0,1
508 547 m 0,22,23
 508 500 508 500 623 473 c 1,24,25
 700 463 700 463 778 451 c 1,26,-1
 778 690 l 2,27,28
 778 760 778 760 745 760 c 0,29,30
 715 760 715 760 611.5 669 c 128,-1,31
 508 578 508 578 508 547 c 0,22,23
EndSplineSet
EndChar

StartChar: afii57448
Encoding: 1608 1608 253
Width: 1046
GlyphClass: 2
Flags: W
AnchorPoint: "Anchor-3" 435 -1125 basechar 0
AnchorPoint: "Anchor-2" 630 1170 basechar 0
LayerCount: 2
Fore
SplineSet
176 -342 m 1,0,1
 469 -205 469 -205 469 -203 c 0,2,3
 665 -100 665 -100 725 -23 c 1,4,5
 420 23 420 23 366 49 c 0,6,7
 180 127 180 127 180 336 c 0,8,9
 180 473 180 473 387 678 c 128,-1,10
 594 883 594 883 731 883 c 256,11,12
 868 883 868 883 958 764 c 0,13,14
 1034 662 1034 662 1034 516 c 2,15,-1
 1034 10 l 2,16,17
 1034 -205 1034 -205 772 -381 c 0,18,19
 680 -438 680 -438 313 -612 c 1,20,-1
 176 -342 l 1,0,1
465 338 m 1,21,22
 493 305 493 305 600 279 c 1,23,24
 678 266 678 266 754 260 c 1,25,-1
 754 487 l 2,26,27
 754 559 754 559 719 559 c 0,28,29
 686 559 686 559 583.5 465 c 128,-1,30
 481 371 481 371 465 338 c 1,21,22
EndSplineSet
Substitution2: "'fina' Terminal Forms in Arabic lookup 2 subtable" afii62829
EndChar

StartChar: afii62829
Encoding: 65262 65262 254
Width: 1225
GlyphClass: 2
Flags: W
AnchorPoint: "Anchor-3" 450 -1065 basechar 0
AnchorPoint: "Anchor-2" 675 1215 basechar 0
LayerCount: 2
Fore
SplineSet
207 -285 m 1,0,1
 352 -215 352 -215 500 -143 c 0,2,3
 694 -43 694 -43 760 35 c 1,4,5
 457 82 457 82 393 113 c 0,6,7
 207 193 207 193 207 397 c 0,8,9
 207 543 207 543 344 674 c 1,10,11
 616 948 616 948 760 948 c 0,12,13
 958 948 958 948 1030 754 c 0,14,15
 1073 637 1073 637 1073 397 c 2,16,-1
 1073 322 l 1,17,-1
 1237 322 l 1,18,-1
 1237 0 l 1,19,-1
 1051 0 l 1,20,21
 1018 -139 1018 -139 893 -252 c 0,22,23
 799 -338 799 -338 623 -420 c 1,24,25
 487 -489 487 -489 346 -559 c 1,26,-1
 207 -285 l 1,0,1
512 406 m 0,27,28
 512 358 512 358 629 336 c 0,29,30
 645 332 645 332 782 309 c 1,31,-1
 782 545 l 2,32,33
 782 623 782 623 745 623 c 0,34,35
 727 623 727 623 619.5 525.5 c 128,-1,36
 512 428 512 428 512 406 c 0,27,28
EndSplineSet
PairPos2: "'kern' Horizontal Kerning in Arabic lookup 0 subtable" afii57410 dx=0 dy=0 dh=0 dv=0 dx=0 dy=0 dh=-100 dv=0
PairPos2: "'kern' Horizontal Kerning in Arabic lookup 0 subtable" afii62965 dx=0 dy=0 dh=0 dv=0 dx=0 dy=0 dh=-100 dv=0
PairPos2: "'kern' Horizontal Kerning in Arabic lookup 0 subtable" afii57509 dx=0 dy=0 dh=0 dv=0 dx=0 dy=0 dh=-100 dv=0
PairPos2: "'kern' Horizontal Kerning in Arabic lookup 0 subtable" afii52305 dx=0 dy=0 dh=0 dv=0 dx=0 dy=0 dh=-100 dv=0
PairPos2: "'kern' Horizontal Kerning in Arabic lookup 0 subtable" afii57567 dx=0 dy=0 dh=0 dv=0 dx=0 dy=0 dh=-100 dv=0
EndChar

StartChar: afii62840
Encoding: 65275 65275 267
Width: 1188
GlyphClass: 3
Flags: W
AnchorPoint: "Anchor-1" 915 -435 baselig 0
AnchorPoint: "Anchor-0" 855 1485 baselig 0
AnchorPoint: "Anchor-1" 315 -630 baselig 1
AnchorPoint: "Anchor-0" 345 1410 baselig 1
LayerCount: 2
Fore
SplineSet
207 1280 m 1,0,-1
 518 1280 l 1,1,-1
 518 317 l 1,2,3
 674 307 674 307 723 307 c 0,4,5
 860 307 860 307 871 457 c 1,6,7
 856 631 856 631 822 854 c 128,-1,8
 788 1077 788 1077 748 1284 c 1,9,-1
 1056 1335 l 1,10,11
 1106 1077 1106 1077 1147 807 c 128,-1,12
 1188 537 1188 537 1188 316 c 0,13,14
 1188 0 1188 0 670 0 c 0,15,16
 532 0 532 0 207 39 c 1,17,-1
 207 1280 l 1,0,-1
EndSplineSet
Ligature2: "'rlig' Required Ligatures in Arabic lookup 6 subtable" afii62817 afii62760
Substitution2: "'fina' Terminal Forms in Arabic lookup 2 subtable" afii62841
EndChar

StartChar: afii62841
Encoding: 65276 65276 268
Width: 1415
GlyphClass: 3
Flags: W
AnchorPoint: "Anchor-1" 945 -510 baselig 0
AnchorPoint: "Anchor-0" 915 1455 baselig 0
AnchorPoint: "Anchor-1" 435 -510 baselig 1
AnchorPoint: "Anchor-0" 375 1425 baselig 1
LayerCount: 2
Fore
SplineSet
207 1282 m 1,0,-1
 522 1282 l 1,1,-1
 522 317 l 1,2,3
 584 307 584 307 637 307 c 0,4,5
 862 307 862 307 862 444 c 0,6,7
 862 623 862 623 817 870 c 0,8,9
 778 1077 778 1077 737 1284 c 1,10,-1
 1057 1335 l 1,11,12
 1151 602 1151 602 1196 428 c 0,13,14
 1217 346 1217 346 1280 326 c 0,15,16
 1303 322 1303 322 1391 322 c 2,17,-1
 1427 322 l 1,18,-1
 1427 0 l 1,19,-1
 1354 0 l 2,20,21
 1171 0 1171 0 1087 104 c 1,22,23
 983 0 983 0 670 0 c 0,24,25
 532 0 532 0 207 39 c 1,26,-1
 207 1282 l 1,0,-1
EndSplineSet
Ligature2: "'rlig' Required Ligatures in Arabic lookup 6 subtable" afii62818 afii62760
EndChar

StartChar: afii59759
Encoding: 3663 3663 275
Width: 1233
GlyphClass: 2
Flags: W
LayerCount: 2
Fore
SplineSet
616 983 m 0,0,1
 823 983 823 983 969.5 836.5 c 128,-1,2
 1116 690 1116 690 1116 483 c 0,3,4
 1116 277 1116 277 969.5 130.5 c 128,-1,5
 823 -16 823 -16 616 -16 c 0,6,7
 410 -16 410 -16 263.5 130.5 c 128,-1,8
 117 277 117 277 117 483 c 0,9,10
 117 690 117 690 263.5 836.5 c 128,-1,11
 410 983 410 983 616 983 c 0,0,1
616 147 m 0,12,13
 758 147 758 147 849 242 c 128,-1,14
 940 337 940 337 940 483 c 256,15,16
 940 629 940 629 849 724 c 128,-1,17
 758 819 758 819 616 819 c 0,18,19
 475 819 475 819 384 724 c 128,-1,20
 293 629 293 629 293 483 c 256,21,22
 293 337 293 337 384 242 c 128,-1,23
 475 147 475 147 616 147 c 0,12,13
616 598 m 0,24,25
 664 598 664 598 697.5 565 c 128,-1,26
 731 532 731 532 731 485 c 256,27,28
 731 438 731 438 697.5 404.5 c 128,-1,29
 664 371 664 371 616 371 c 0,30,31
 569 371 569 371 535.5 404.5 c 128,-1,32
 502 438 502 438 502 485 c 256,33,34
 502 532 502 532 535.5 565 c 128,-1,35
 569 598 569 598 616 598 c 0,24,25
EndSplineSet
EndChar

StartChar: afii59760
Encoding: 3664 3664 276
Width: 1233
GlyphClass: 2
Flags: W
LayerCount: 2
Fore
SplineSet
616 924 m 0,0,1
 834 924 834 924 975 794.5 c 128,-1,2
 1116 665 1116 665 1116 453 c 0,3,4
 1116 242 1116 242 975 113 c 128,-1,5
 834 -16 834 -16 616 -16 c 0,6,7
 399 -16 399 -16 258 113 c 128,-1,8
 117 242 117 242 117 453 c 0,9,10
 117 665 117 665 258 794.5 c 128,-1,11
 399 924 399 924 616 924 c 0,0,1
616 150 m 0,12,13
 765 150 765 150 852.5 231 c 128,-1,14
 940 312 940 312 940 453 c 256,15,16
 940 594 940 594 852 677 c 128,-1,17
 764 760 764 760 616 760 c 0,18,19
 469 760 469 760 381 677 c 128,-1,20
 293 594 293 594 293 453 c 0,21,22
 293 310 293 310 381.5 230 c 128,-1,23
 470 150 470 150 616 150 c 0,12,13
EndSplineSet
EndChar

StartChar: glyph278
Encoding: 65559 -1 278
Width: 0
GlyphClass: 2
Flags: W
LayerCount: 2
Fore
SplineSet
36 1831 m 1,0,-1
 36 863 l 1,1,-1
 -36 863 l 1,2,-1
 -36 1831 l 1,3,-1
 36 1831 l 1,0,-1
36 543 m 1,4,-1
 36 -423 l 1,5,-1
 -36 -423 l 1,6,-1
 -36 543 l 1,7,-1
 36 543 l 1,4,-1
EndSplineSet
EndChar

StartChar: glyph279
Encoding: 65560 -1 279
Width: 0
GlyphClass: 2
Flags: W
LayerCount: 2
Fore
SplineSet
-234 -423 m 1,0,-1
 -234 -352 l 1,1,-1
 -36 -352 l 1,2,-1
 -36 1760 l 1,3,-1
 -234 1760 l 1,4,-1
 -234 1831 l 1,5,-1
 234 1831 l 1,6,-1
 234 1760 l 1,7,-1
 36 1760 l 1,8,-1
 36 -352 l 1,9,-1
 234 -352 l 1,10,-1
 234 -423 l 1,11,-1
 -234 -423 l 1,0,-1
EndSplineSet
EndChar

StartChar: glyph280
Encoding: 65561 -1 280
Width: 0
GlyphClass: 2
Flags: W
LayerCount: 2
Fore
SplineSet
224 1646 m 1,0,-1
 36 1504 l 1,1,-1
 36 -423 l 1,2,-1
 -36 -423 l 1,3,-1
 -36 1831 l 1,4,-1
 224 1646 l 1,0,-1
EndSplineSet
EndChar

StartChar: glyph281
Encoding: 65562 -1 281
Width: 0
GlyphClass: 2
Flags: W
LayerCount: 2
Fore
SplineSet
36 1831 m 1,0,-1
 36 -423 l 1,1,-1
 -36 -423 l 1,2,-1
 -36 1504 l 1,3,-1
 -224 1646 l 1,4,-1
 36 1831 l 1,0,-1
EndSplineSet
EndChar

StartChar: glyph282
Encoding: 65563 -1 282
Width: 0
GlyphClass: 2
Flags: W
LayerCount: 2
Fore
SplineSet
36 1831 m 1,0,-1
 36 -352 l 1,1,-1
 234 -352 l 1,2,-1
 234 -423 l 1,3,-1
 -36 -423 l 1,4,-1
 -36 1831 l 1,5,-1
 36 1831 l 1,0,-1
EndSplineSet
EndChar

StartChar: glyph283
Encoding: 65564 -1 283
Width: 0
GlyphClass: 2
Flags: W
LayerCount: 2
Fore
SplineSet
224 1646 m 1,0,-1
 36 1504 l 1,1,-1
 36 -423 l 1,2,-1
 -36 -423 l 1,3,-1
 -36 1504 l 1,4,-1
 -224 1641 l 1,5,-1
 0 1831 l 1,6,-1
 224 1646 l 1,0,-1
EndSplineSet
EndChar

StartChar: uni0670
Encoding: 1648 1648 296
Width: 0
GlyphClass: 4
Flags: W
AnchorPoint: "Anchor-2" 0 0 mark 0
AnchorPoint: "Anchor-0" 0 0 mark 0
LayerCount: 2
Fore
SplineSet
63 24 m 1,0,-1
 -13 -11 l 2,1,2
 -21 -11 -21 -11 -26 16 c 0,3,4
 -46 129 -46 129 -87 426 c 1,5,-1
 25 504 l 2,6,7
 35 509 35 509 41 509 c 0,8,9
 49 509 49 509 50 500 c 0,10,11
 50 377 50 377 63 24 c 1,0,-1
EndSplineSet
EndChar

StartChar: glyph297
Encoding: 65565 -1 297
Width: 564
GlyphClass: 2
Flags: W
LayerCount: 2
Fore
SplineSet
297 1410 m 2,0,1
 339 1442 339 1442 377 1448.5 c 128,-1,2
 415 1455 415 1455 444.5 1440 c 128,-1,3
 474 1425 474 1425 491.5 1390.5 c 128,-1,4
 509 1356 509 1356 509 1305 c 2,5,-1
 508 1196 l 1,6,-1
 69 1196 l 1,7,-1
 69 1275 l 1,8,-1
 143 1275 l 1,9,-1
 297 1410 l 2,0,1
253 1275 m 1,10,-1
 428 1275 l 1,11,-1
 428 1316 l 2,12,13
 426 1355 426 1355 401.5 1366.5 c 128,-1,14
 377 1378 377 1378 335 1348 c 1,15,-1
 253 1275 l 1,10,-1
EndSplineSet
EndChar

StartChar: glyph298
Encoding: 65566 -1 298
Width: 1769
GlyphClass: 2
Flags: W
LayerCount: 2
Fore
SplineSet
207 49 m 0,0,1
 207 207 207 207 264 416 c 0,2,3
 313 594 313 594 367 770 c 1,4,-1
 682 674 l 1,5,6
 631 530 631 530 584 377 c 1,7,8
 539 203 539 203 539 68 c 0,9,10
 539 -51 539 -51 613.5 -123 c 128,-1,11
 688 -195 688 -195 807 -195 c 0,12,13
 936 -195 936 -195 1151 -121 c 0,14,15
 1313 -66 1313 -66 1481 0 c 1,16,-1
 1481 233 l 1,17,18
 1184 299 1184 299 1102 336 c 0,19,20
 891 428 891 428 891 623 c 0,21,22
 891 799 891 799 1196 1059 c 1,23,24
 1307 1161 1307 1161 1432 1161 c 0,25,26
 1604 1161 1604 1161 1692 1040 c 1,27,28
 1769 926 1769 926 1769 745 c 2,29,-1
 1769 -233 l 1,30,31
 1520 -322 1520 -322 1266 -416 c 1,32,33
 967 -508 967 -508 745 -508 c 0,34,35
 492 -508 492 -508 346 -352 c 0,36,37
 207 -205 207 -205 207 49 c 0,0,1
1200 641 m 0,38,39
 1200 592 1200 592 1487 526 c 1,40,-1
 1487 768 l 2,41,42
 1487 877 1487 877 1442 877 c 0,43,44
 1405 877 1405 877 1302.5 776.5 c 128,-1,45
 1200 676 1200 676 1200 641 c 0,38,39
EndSplineSet
EndChar

StartChar: uni06DD
Encoding: 1757 1757 387
Width: 2300
GlyphClass: 2
Flags: W
LayerCount: 2
Fore
SplineSet
2250 715 m 256,0,1
 2250 469 2250 469 2146 249 c 0,2,3
 2046 35 2046 35 1867 -119 c 1,4,5
 1870 -133 1870 -133 1870 -148 c 0,6,7
 1870 -203 1870 -203 1831 -241.5 c 128,-1,8
 1792 -280 1792 -280 1737 -280 c 0,9,10
 1697 -280 1697 -280 1664 -258 c 1,11,12
 1424 -385 1424 -385 1149 -385 c 0,13,14
 876 -385 876 -385 636 -258 c 1,15,16
 603 -280 603 -280 563 -280 c 0,17,18
 508 -280 508 -280 469 -241.5 c 128,-1,19
 430 -203 430 -203 430 -148 c 0,20,21
 430 -133 430 -133 433 -119 c 1,22,23
 254 35 254 35 154 249 c 0,24,25
 50 469 50 469 50 715 c 256,26,27
 50 961 50 961 154 1181 c 0,28,29
 254 1394 254 1394 433 1548 c 1,30,31
 430 1562 430 1562 430 1577 c 0,32,33
 430 1632 430 1632 469 1670.5 c 128,-1,34
 508 1709 508 1709 563 1709 c 0,35,36
 603 1709 603 1709 636 1687 c 1,37,38
 876 1814 876 1814 1151 1814 c 0,39,40
 1424 1814 1424 1814 1664 1687 c 1,41,42
 1697 1709 1697 1709 1737 1709 c 0,43,44
 1792 1709 1792 1709 1831 1670.5 c 128,-1,45
 1870 1632 1870 1632 1870 1577 c 0,46,47
 1870 1562 1870 1562 1867 1548 c 1,48,49
 2046 1394 2046 1394 2146 1181 c 0,50,51
 2250 961 2250 961 2250 715 c 256,0,1
1816 1576 m 0,52,53
 1816 1609 1816 1609 1793 1632 c 128,-1,54
 1770 1655 1770 1655 1738 1655 c 256,55,56
 1706 1655 1706 1655 1682.5 1631.5 c 128,-1,57
 1659 1608 1659 1608 1659 1576 c 256,58,59
 1659 1544 1659 1544 1682 1521 c 128,-1,60
 1705 1498 1705 1498 1738 1498 c 0,61,62
 1770 1498 1770 1498 1793 1521 c 128,-1,63
 1816 1544 1816 1544 1816 1576 c 0,52,53
1602 1595 m 1,64,65
 1390 1704 1390 1704 1151 1704 c 0,66,67
 910 1704 910 1704 698 1595 c 1,68,-1
 1602 1595 l 1,64,65
641 1576 m 256,69,70
 641 1608 641 1608 617.5 1631.5 c 128,-1,71
 594 1655 594 1655 562 1655 c 256,72,73
 530 1655 530 1655 507 1632 c 128,-1,74
 484 1609 484 1609 484 1576 c 0,75,76
 484 1544 484 1544 507 1521 c 128,-1,77
 530 1498 530 1498 562 1498 c 0,78,79
 595 1498 595 1498 618 1521 c 128,-1,80
 641 1544 641 1544 641 1576 c 256,69,70
2140 714 m 0,81,82
 2140 933 2140 933 2048 1131 c 0,83,84
 1960 1321 1960 1321 1801 1460 c 1,85,86
 1772 1444 1772 1444 1737 1444 c 0,87,88
 1681 1444 1681 1444 1642 1485 c 1,89,-1
 658 1485 l 1,90,91
 619 1444 619 1444 563 1444 c 0,92,93
 528 1444 528 1444 499 1460 c 1,94,95
 340 1321 340 1321 252 1131 c 0,96,97
 160 933 160 933 160 714 c 0,98,99
 160 265 160 265 499 -31 c 1,100,101
 528 -15 528 -15 563 -15 c 0,102,103
 619 -15 619 -15 658 -56 c 1,104,-1
 1642 -56 l 1,105,106
 1681 -15 1681 -15 1737 -15 c 0,107,108
 1772 -15 1772 -15 1801 -31 c 1,109,110
 2140 265 2140 265 2140 714 c 0,81,82
1816 -147 m 0,111,112
 1816 -115 1816 -115 1793 -92 c 128,-1,113
 1770 -69 1770 -69 1738 -69 c 0,114,115
 1705 -69 1705 -69 1682 -92 c 128,-1,116
 1659 -115 1659 -115 1659 -147 c 256,117,118
 1659 -179 1659 -179 1682.5 -202.5 c 128,-1,119
 1706 -226 1706 -226 1738 -226 c 256,120,121
 1770 -226 1770 -226 1793 -203 c 128,-1,122
 1816 -180 1816 -180 1816 -147 c 0,111,112
1602 -166 m 1,123,-1
 698 -166 l 1,124,125
 910 -275 910 -275 1151 -275 c 0,126,127
 1390 -275 1390 -275 1602 -166 c 1,123,-1
641 -147 m 256,128,129
 641 -115 641 -115 618 -92 c 128,-1,130
 595 -69 595 -69 562 -69 c 0,131,132
 530 -69 530 -69 507 -92 c 128,-1,133
 484 -115 484 -115 484 -147 c 0,134,135
 484 -180 484 -180 507 -203 c 128,-1,136
 530 -226 530 -226 562 -226 c 256,137,138
 594 -226 594 -226 617.5 -202.5 c 128,-1,139
 641 -179 641 -179 641 -147 c 256,128,129
EndSplineSet
EndChar

StartChar: uni06DE
Encoding: 1758 1758 388
Width: 2221
GlyphClass: 2
Flags: W
LayerCount: 2
Fore
SplineSet
2171 750 m 1,0,-1
 1861 439 l 1,1,-1
 1861 0 l 1,2,-1
 1421 0 l 1,3,-1
 1111 -311 l 1,4,-1
 800 0 l 1,5,-1
 361 0 l 1,6,-1
 361 439 l 1,7,-1
 50 750 l 1,8,-1
 361 1061 l 1,9,-1
 361 1500 l 1,10,-1
 800 1500 l 1,11,-1
 1111 1811 l 1,12,-1
 1421 1500 l 1,13,-1
 1861 1500 l 1,14,-1
 1861 1061 l 1,15,-1
 2171 750 l 1,0,-1
436 364 m 1,16,-1
 436 75 l 1,17,-1
 725 75 l 1,18,-1
 436 364 l 1,16,-1
725 1425 m 1,19,-1
 436 1425 l 1,20,-1
 436 1136 l 1,21,-1
 725 1425 l 1,19,-1
1786 1136 m 1,22,-1
 1786 1425 l 1,23,-1
 1496 1425 l 1,24,-1
 1786 1136 l 1,22,-1
1786 75 m 1,25,-1
 1786 364 l 1,26,-1
 1496 75 l 1,27,-1
 1786 75 l 1,25,-1
906 0 m 1,28,-1
 1111 -205 l 1,29,-1
 1315 0 l 1,30,-1
 906 0 l 1,28,-1
361 955 m 1,31,-1
 156 750 l 1,32,-1
 361 545 l 1,33,-1
 361 955 l 1,31,-1
1315 1500 m 1,34,-1
 1111 1705 l 1,35,-1
 906 1500 l 1,36,-1
 1315 1500 l 1,34,-1
1786 1030 m 1,37,-1
 1390 1425 l 1,38,-1
 831 1425 l 1,39,-1
 436 1030 l 1,40,-1
 436 470 l 1,41,-1
 831 75 l 1,42,-1
 1390 75 l 1,43,-1
 1786 470 l 1,44,-1
 1786 1030 l 1,37,-1
2065 750 m 1,45,-1
 1861 955 l 1,46,-1
 1861 545 l 1,47,-1
 2065 750 l 1,45,-1
1328 750 m 256,48,49
 1328 660 1328 660 1264.5 596 c 128,-1,50
 1201 532 1201 532 1111 532 c 256,51,52
 1021 532 1021 532 957 596 c 128,-1,53
 893 660 893 660 893 750 c 256,54,55
 893 840 893 840 957 903.5 c 128,-1,56
 1021 967 1021 967 1111 967 c 256,57,58
 1201 967 1201 967 1264.5 903.5 c 128,-1,59
 1328 840 1328 840 1328 750 c 256,48,49
1253 750 m 256,60,61
 1253 809 1253 809 1211 850.5 c 128,-1,62
 1169 892 1169 892 1110 892 c 256,63,64
 1051 892 1051 892 1009 850.5 c 128,-1,65
 967 809 967 809 967 750 c 256,66,67
 967 691 967 691 1009 649 c 128,-1,68
 1051 607 1051 607 1110 607 c 256,69,70
 1169 607 1169 607 1211 649 c 128,-1,71
 1253 691 1253 691 1253 750 c 256,60,61
EndSplineSet
EndChar

StartChar: uni06DF
Encoding: 1759 1759 389
Width: 0
GlyphClass: 2
Flags: W
LayerCount: 2
Fore
SplineSet
75 1429 m 256,0,1
 75 1398 75 1398 53 1376 c 128,-1,2
 31 1354 31 1354 0 1354 c 256,3,4
 -31 1354 -31 1354 -53 1376 c 128,-1,5
 -75 1398 -75 1398 -75 1429 c 256,6,7
 -75 1460 -75 1460 -53 1482 c 128,-1,8
 -31 1504 -31 1504 0 1504 c 256,9,10
 31 1504 31 1504 53 1482 c 128,-1,11
 75 1460 75 1460 75 1429 c 256,0,1
EndSplineSet
EndChar

StartChar: uni06E9
Encoding: 1769 1769 390
Width: 1229
GlyphClass: 2
Flags: W
LayerCount: 2
Fore
SplineSet
1179 0 m 1,0,-1
 50 0 l 1,1,-1
 278 261 l 1,2,-1
 278 849 l 1,3,-1
 50 1108 l 1,4,-1
 614 1676 l 1,5,-1
 1179 1108 l 1,6,-1
 951 849 l 1,7,-1
 951 261 l 1,8,-1
 1179 0 l 1,0,-1
1101 1108 m 1,9,-1
 614 1598 l 1,10,-1
 128 1108 l 1,11,-1
 338 871 l 1,12,-1
 338 239 l 1,13,-1
 178 56 l 1,14,-1
 1051 56 l 1,15,-1
 891 239 l 1,16,-1
 891 871 l 1,17,-1
 1101 1108 l 1,9,-1
995 1108 m 1,18,-1
 845 937 l 1,19,-1
 845 131 l 1,20,-1
 384 131 l 1,21,-1
 384 937 l 1,22,-1
 234 1108 l 1,23,-1
 614 1489 l 1,24,-1
 995 1108 l 1,18,-1
922 1108 m 1,25,-1
 614 1416 l 1,26,-1
 307 1108 l 1,27,-1
 433 968 l 1,28,-1
 433 186 l 1,29,-1
 796 186 l 1,30,-1
 796 968 l 1,31,-1
 922 1108 l 1,25,-1
833 1108 m 1,32,-1
 745 1011 l 1,33,-1
 745 267 l 1,34,-1
 484 267 l 1,35,-1
 484 1011 l 1,36,-1
 396 1108 l 1,37,-1
 614 1331 l 1,38,-1
 833 1108 l 1,32,-1
780 1108 m 1,39,-1
 614 1278 l 1,40,-1
 449 1108 l 1,41,-1
 523 1027 l 1,42,-1
 523 309 l 1,43,-1
 705 309 l 1,44,-1
 705 1027 l 1,45,-1
 780 1108 l 1,39,-1
EndSplineSet
EndChar

StartChar: uni06EB
Encoding: 1771 1771 392
Width: 0
GlyphClass: 2
Flags: W
LayerCount: 2
Fore
SplineSet
168 1522 m 1,0,-1
 -1 1354 l 1,1,-1
 -168 1521 l 1,2,-1
 1 1689 l 1,3,-1
 168 1522 l 1,0,-1
104 1522 m 1,4,-1
 0 1626 l 1,5,-1
 -104 1521 l 1,6,-1
 0 1417 l 1,7,-1
 104 1522 l 1,4,-1
EndSplineSet
EndChar

StartChar: comma
Encoding: 44 44 401
Width: 615
Flags: W
LayerCount: 2
Fore
SplineSet
262 -251 m 1,0,1
 359 -184 359 -184 404 -128.5 c 128,-1,2
 449 -73 449 -73 449 -23 c 0,3,4
 449 -10 449 -10 440 0.5 c 128,-1,5
 431 11 431 11 418 11 c 2,6,-1
 405 11 l 1,7,-1
 385 9 l 1,8,-1
 371 9 l 2,9,10
 363 9 363 9 353 11 c 128,-1,11
 343 13 343 13 332.5 17 c 128,-1,12
 322 21 322 21 312 26.5 c 128,-1,13
 302 32 302 32 295 38 c 0,14,15
 272 55 272 55 261 81.5 c 128,-1,16
 250 108 250 108 250 141 c 0,17,18
 250 206 250 206 288.5 244.5 c 128,-1,19
 327 283 327 283 392 283 c 0,20,21
 430 283 430 283 461.5 268.5 c 128,-1,22
 493 254 493 254 516 228 c 128,-1,23
 539 202 539 202 551.5 165.5 c 128,-1,24
 564 129 564 129 564 85 c 0,25,26
 564 30 564 30 547.5 -19.5 c 128,-1,27
 531 -69 531 -69 497 -114.5 c 128,-1,28
 463 -160 463 -160 409 -203 c 128,-1,29
 355 -246 355 -246 280 -289 c 1,30,-1
 262 -251 l 1,0,1
EndSplineSet
EndChar

StartChar: afii57407
Encoding: 1567 1567 402
Width: 1335
GlyphClass: 2
Flags: W
LayerCount: 2
Fore
SplineSet
520 930 m 0,0,1
 520 1118 520 1118 692 1186 c 2,2,-1
 1064 1331 l 1,3,-1
 1159 1087 l 1,4,5
 843 977 843 977 802 930 c 1,6,-1
 868 883 l 1,7,8
 1210 715 1210 715 1210 616 c 0,9,10
 1210 518 1210 518 1208 348 c 1,11,-1
 927 348 l 1,12,-1
 927 492 l 2,13,14
 927 569 927 569 823 621 c 1,15,16
 722 666 722 666 624 715 c 1,17,18
 520 793 520 793 520 930 c 0,0,1
927 268 m 1,19,-1
 1199 268 l 1,20,-1
 1199 0 l 1,21,-1
 927 0 l 1,22,-1
 927 268 l 1,19,-1
EndSplineSet
EndChar

StartChar: afii57392
Encoding: 1776 1776 403
Width: 936
Flags: W
LayerCount: 2
Fore
SplineSet
674 453 m 1,0,-1
 317 453 l 1,1,-1
 317 817 l 1,2,-1
 674 817 l 1,3,-1
 674 453 l 1,0,-1
EndSplineSet
EndChar

StartChar: afii57393
Encoding: 1777 1777 404
Width: 733
Flags: W
LayerCount: 2
Fore
SplineSet
211 1339 m 1,0,-1
 518 1343 l 1,1,-1
 518 0 l 1,2,-1
 211 0 l 1,3,-1
 211 1339 l 1,0,-1
EndSplineSet
EndChar

StartChar: afii57394
Encoding: 1778 1778 405
Width: 1204
Flags: W
LayerCount: 2
Fore
SplineSet
467 1339 m 1,0,-1
 467 1030 l 1,1,-1
 637 1030 l 2,2,3
 760 1030 760 1030 760 1118 c 0,4,5
 760 1157 760 1157 715 1313 c 1,6,-1
 1012 1386 l 1,7,8
 1073 1118 1073 1118 1073 1049 c 0,9,10
 1073 848 1073 848 893 774 c 0,11,12
 780 727 780 727 543 727 c 2,13,-1
 467 727 l 1,14,-1
 467 0 l 1,15,-1
 152 0 l 1,16,-1
 150 1339 l 1,17,-1
 467 1339 l 1,0,-1
EndSplineSet
EndChar

StartChar: afii57395
Encoding: 1779 1779 406
Width: 1329
Flags: W
LayerCount: 2
Fore
SplineSet
43 1346 m 1,0,-1
 346 1346 l 1,1,2
 338 1180 338 1180 338 1184 c 1,3,4
 340 1057 340 1057 420 1057 c 0,5,6
 565 1057 565 1057 565 1335 c 1,7,-1
 815 1288 l 1,8,9
 786 1217 786 1217 786 1151 c 0,10,11
 786 1042 786 1042 887 1042 c 0,12,13
 993 1042 993 1042 993 1135 c 0,14,15
 993 1217 993 1217 958 1321 c 1,16,-1
 1219 1382 l 1,17,18
 1266 1253 1266 1253 1266 1118 c 0,19,20
 1266 967 1266 967 1170.5 867.5 c 128,-1,21
 1075 768 1075 768 920 768 c 0,22,23
 733 768 733 768 674 887 c 1,24,25
 573 774 573 774 473 774 c 0,26,27
 416 774 416 774 352 817 c 1,28,-1
 352 0 l 1,29,-1
 43 0 l 1,30,-1
 43 1346 l 1,0,-1
EndSplineSet
EndChar

StartChar: afii62843
Encoding: 1780 1780 407
Width: 1010
Flags: W
LayerCount: 2
Fore
SplineSet
315 2 m 1,0,1
 176 25 176 25 144.5 147 c 128,-1,2
 113 269 113 269 179.5 388.5 c 128,-1,3
 246 508 246 508 387 643 c 1,4,5
 259 674 259 674 192.5 752 c 128,-1,6
 126 830 126 830 128 950 c 128,-1,7
 130 1070 130 1070 193 1179 c 1,8,9
 355 1422 355 1422 820 1349 c 1,10,-1
 805 1094 l 1,11,12
 624 1116 624 1116 518 1088 c 128,-1,13
 412 1060 412 1060 405 967 c 1,14,15
 405 836 405 836 827 857 c 1,16,-1
 820 614 l 1,17,18
 684 571 684 571 528 430 c 128,-1,19
 372 289 372 289 488 279 c 1,20,-1
 922 279 l 1,21,-1
 874 2 l 1,22,-1
 315 2 l 1,23,-1
 315 2 l 1,0,1
EndSplineSet
EndChar

StartChar: afii62844
Encoding: 1781 1781 408
Width: 1186
Flags: W
LayerCount: 2
Fore
SplineSet
100 418 m 0,0,1
 100 558 100 558 235.5 743 c 128,-1,2
 371 928 371 928 457 1012 c 1,3,-1
 385 1109 l 1,4,-1
 623 1281 l 1,5,-1
 1051 640 l 2,6,7
 1130 515 1130 515 1130 388 c 0,8,9
 1130 251 1130 251 1034 169 c 0,10,11
 950 101 950 101 809 101 c 2,12,-1
 385 101 l 2,13,14
 266 101 266 101 176 201 c 1,15,16
 100 296 100 296 100 418 c 0,0,1
375 433 m 0,17,18
 375 363 375 363 446 363 c 2,19,-1
 776 363 l 2,20,21
 848 363 848 363 848 431 c 0,22,23
 848 482 848 482 602 806 c 1,24,25
 379 515 379 515 375 433 c 0,17,18
EndSplineSet
EndChar

StartChar: afii62845
Encoding: 1782 1782 409
Width: 1207
Flags: W
LayerCount: 2
Fore
SplineSet
127 1090 m 0,0,1
 92 1179 92 1179 62 1279 c 1,2,-1
 346 1314 l 1,3,4
 389 1152 389 1152 539 1151 c 0,5,6
 674 1148 674 1148 756 1164 c 1,7,-1
 756 1317 l 1,8,-1
 1057 1317 l 1,9,-1
 1057 0 l 1,10,-1
 756 4 l 1,11,-1
 748 894 l 1,12,13
 672 875 672 875 437.5 884.5 c 128,-1,14
 203 894 203 894 127 1090 c 0,0,1
EndSplineSet
EndChar

StartChar: afii57399
Encoding: 1783 1783 410
Width: 1208
Flags: W
LayerCount: 2
Fore
SplineSet
113 1346 m 1,0,-1
 420 1346 l 1,1,-1
 420 322 l 1,2,-1
 809 1346 l 1,3,-1
 1133 1346 l 1,4,-1
 745 317 l 2,5,6
 629 0 629 0 397 0 c 2,7,-1
 113 0 l 1,8,-1
 113 1346 l 1,0,-1
EndSplineSet
EndChar

StartChar: afii57400
Encoding: 1784 1784 411
Width: 1212
Flags: W
LayerCount: 2
Fore
SplineSet
481 1010 m 2,0,1
 573 1245 573 1245 731 1307 c 0,2,3
 819 1343 819 1343 1120 1346 c 1,4,-1
 1120 0 l 1,5,-1
 809 0 l 1,6,-1
 809 1010 l 1,7,-1
 415 0 l 1,8,-1
 94 0 l 1,9,-1
 481 1010 l 2,0,1
EndSplineSet
EndChar

StartChar: afii57401
Encoding: 1785 1785 412
Width: 1329
Flags: W
LayerCount: 2
Fore
SplineSet
262 854 m 0,0,1
 262 1012 262 1012 559 1280 c 0,2,3
 686 1391 686 1391 823 1391 c 0,4,5
 971 1391 971 1391 1051 1282 c 0,6,7
 1120 1188 1120 1188 1120 1030 c 2,8,-1
 1120 0 l 1,9,-1
 829 0 l 1,10,-1
 829 512 l 1,11,12
 516 547 516 547 457 569 c 0,13,14
 262 637 262 637 262 854 c 0,0,1
559 854 m 0,15,16
 559 799 559 799 674 774 c 0,17,18
 694 770 694 770 840 762 c 1,19,-1
 840 1032 l 2,20,21
 840 1085 840 1085 788 1085 c 1,22,-1
 764 1077 l 1,23,24
 559 901 559 901 559 854 c 0,15,16
EndSplineSet
EndChar

StartChar: afii57392.001
Encoding: 1632 1632 413
Width: 936
Flags: W
LayerCount: 2
Fore
SplineSet
674 453 m 1,0,-1
 317 453 l 1,1,-1
 317 817 l 1,2,-1
 674 817 l 1,3,-1
 674 453 l 1,0,-1
EndSplineSet
EndChar

StartChar: afii57393.001
Encoding: 1633 1633 414
Width: 733
Flags: W
LayerCount: 2
Fore
SplineSet
211 1339 m 1,0,-1
 518 1343 l 1,1,-1
 518 0 l 1,2,-1
 211 0 l 1,3,-1
 211 1339 l 1,0,-1
EndSplineSet
EndChar

StartChar: afii57394.001
Encoding: 1634 1634 415
Width: 1204
Flags: W
LayerCount: 2
Fore
SplineSet
467 1339 m 1,0,-1
 467 1030 l 1,1,-1
 637 1030 l 2,2,3
 760 1030 760 1030 760 1118 c 0,4,5
 760 1157 760 1157 715 1313 c 1,6,-1
 1012 1386 l 1,7,8
 1073 1118 1073 1118 1073 1049 c 0,9,10
 1073 848 1073 848 893 774 c 0,11,12
 780 727 780 727 543 727 c 2,13,-1
 467 727 l 1,14,-1
 467 0 l 1,15,-1
 152 0 l 1,16,-1
 150 1339 l 1,17,-1
 467 1339 l 1,0,-1
EndSplineSet
EndChar

StartChar: afii57395.001
Encoding: 1635 1635 416
Width: 1329
Flags: W
LayerCount: 2
Fore
SplineSet
43 1346 m 1,0,-1
 346 1346 l 1,1,2
 338 1180 338 1180 338 1184 c 1,3,4
 340 1057 340 1057 420 1057 c 0,5,6
 565 1057 565 1057 565 1335 c 1,7,-1
 815 1288 l 1,8,9
 786 1217 786 1217 786 1151 c 0,10,11
 786 1042 786 1042 887 1042 c 0,12,13
 993 1042 993 1042 993 1135 c 0,14,15
 993 1217 993 1217 958 1321 c 1,16,-1
 1219 1382 l 1,17,18
 1266 1253 1266 1253 1266 1118 c 0,19,20
 1266 967 1266 967 1170.5 867.5 c 128,-1,21
 1075 768 1075 768 920 768 c 0,22,23
 733 768 733 768 674 887 c 1,24,25
 573 774 573 774 473 774 c 0,26,27
 416 774 416 774 352 817 c 1,28,-1
 352 0 l 1,29,-1
 43 0 l 1,30,-1
 43 1346 l 1,0,-1
EndSplineSet
EndChar

StartChar: afii57396
Encoding: 1636 1636 417
Width: 1010
Flags: W
LayerCount: 2
Fore
SplineSet
315 2 m 1,0,1
 176 25 176 25 144.5 147 c 128,-1,2
 113 269 113 269 179.5 388.5 c 128,-1,3
 246 508 246 508 387 643 c 1,4,5
 259 674 259 674 192.5 752 c 128,-1,6
 126 830 126 830 128 950 c 128,-1,7
 130 1070 130 1070 193 1179 c 1,8,9
 355 1422 355 1422 820 1349 c 1,10,-1
 805 1094 l 1,11,12
 624 1116 624 1116 518 1088 c 128,-1,13
 412 1060 412 1060 405 967 c 1,14,15
 405 836 405 836 827 857 c 1,16,-1
 820 614 l 1,17,18
 684 571 684 571 528 430 c 128,-1,19
 372 289 372 289 488 279 c 1,20,-1
 922 279 l 1,21,-1
 874 2 l 1,22,-1
 315 2 l 1,23,-1
 315 2 l 1,0,1
EndSplineSet
EndChar

StartChar: afii57397
Encoding: 1637 1637 418
Width: 1186
Flags: W
LayerCount: 2
Fore
SplineSet
100 418 m 0,0,1
 100 558 100 558 235.5 743 c 128,-1,2
 371 928 371 928 457 1012 c 1,3,-1
 385 1109 l 1,4,-1
 623 1281 l 1,5,-1
 1051 640 l 2,6,7
 1130 515 1130 515 1130 388 c 0,8,9
 1130 251 1130 251 1034 169 c 0,10,11
 950 101 950 101 809 101 c 2,12,-1
 385 101 l 2,13,14
 266 101 266 101 176 201 c 1,15,16
 100 296 100 296 100 418 c 0,0,1
375 433 m 0,17,18
 375 363 375 363 446 363 c 2,19,-1
 776 363 l 2,20,21
 848 363 848 363 848 431 c 0,22,23
 848 482 848 482 602 806 c 1,24,25
 379 515 379 515 375 433 c 0,17,18
EndSplineSet
EndChar

StartChar: afii57398
Encoding: 1638 1638 419
Width: 1207
Flags: W
LayerCount: 2
Fore
SplineSet
127 1090 m 0,0,1
 92 1179 92 1179 62 1279 c 1,2,-1
 346 1314 l 1,3,4
 389 1152 389 1152 539 1151 c 0,5,6
 674 1148 674 1148 756 1164 c 1,7,-1
 756 1317 l 1,8,-1
 1057 1317 l 1,9,-1
 1057 0 l 1,10,-1
 756 4 l 1,11,-1
 748 894 l 1,12,13
 672 875 672 875 437.5 884.5 c 128,-1,14
 203 894 203 894 127 1090 c 0,0,1
EndSplineSet
EndChar

StartChar: afii57399.001
Encoding: 1639 1639 420
Width: 1208
Flags: W
LayerCount: 2
Fore
SplineSet
113 1346 m 1,0,-1
 420 1346 l 1,1,-1
 420 322 l 1,2,-1
 809 1346 l 1,3,-1
 1133 1346 l 1,4,-1
 745 317 l 2,5,6
 629 0 629 0 397 0 c 2,7,-1
 113 0 l 1,8,-1
 113 1346 l 1,0,-1
EndSplineSet
EndChar

StartChar: afii57400.001
Encoding: 1640 1640 421
Width: 1212
Flags: W
LayerCount: 2
Fore
SplineSet
481 1010 m 2,0,1
 573 1245 573 1245 731 1307 c 0,2,3
 819 1343 819 1343 1120 1346 c 1,4,-1
 1120 0 l 1,5,-1
 809 0 l 1,6,-1
 809 1010 l 1,7,-1
 415 0 l 1,8,-1
 94 0 l 1,9,-1
 481 1010 l 2,0,1
EndSplineSet
EndChar

StartChar: afii57401.001
Encoding: 1641 1641 422
Width: 1329
Flags: W
LayerCount: 2
Fore
SplineSet
262 854 m 0,0,1
 262 1012 262 1012 559 1280 c 0,2,3
 686 1391 686 1391 823 1391 c 0,4,5
 971 1391 971 1391 1051 1282 c 0,6,7
 1120 1188 1120 1188 1120 1030 c 2,8,-1
 1120 0 l 1,9,-1
 829 0 l 1,10,-1
 829 512 l 1,11,12
 516 547 516 547 457 569 c 0,13,14
 262 637 262 637 262 854 c 0,0,1
559 854 m 0,15,16
 559 799 559 799 674 774 c 0,17,18
 694 770 694 770 840 762 c 1,19,-1
 840 1032 l 2,20,21
 840 1085 840 1085 788 1085 c 1,22,-1
 764 1077 l 1,23,24
 559 901 559 901 559 854 c 0,15,16
EndSplineSet
EndChar

StartChar: guillemotleft
Encoding: 171 171 423
Width: 836
Flags: W
LayerCount: 2
Fore
SplineSet
442 616 m 1,0,1
 387 507 387 507 387 393 c 0,2,3
 387 255 387 255 518 82 c 1,4,-1
 518 83 l 1,5,6
 538 60 538 60 547.5 44 c 128,-1,7
 557 28 557 28 560 20 c 0,8,9
 560 -5 560 -5 534 -5 c 0,10,11
 528 -5 528 -5 513 1 c 0,12,13
 377 71 377 71 294 168 c 1,14,-1
 294 167 l 1,15,16
 202 276 202 276 202 396 c 0,17,18
 203 448 203 448 222.5 500 c 128,-1,19
 242 552 242 552 280 603 c 0,20,21
 307 640 307 640 344.5 676.5 c 128,-1,22
 382 713 382 713 426 745 c 0,23,24
 499 799 499 799 528 799 c 0,25,26
 563 799 563 799 563 775 c 0,27,28
 563 765 563 765 555 757 c 0,29,30
 528 730 528 730 509 708 c 128,-1,31
 490 686 490 686 477 668.5 c 128,-1,32
 464 651 464 651 455.5 638 c 128,-1,33
 447 625 447 625 441 615 c 2,34,-1
 442 616 l 1,0,1
721 616 m 1,35,36
 666 507 666 507 666 393 c 0,37,38
 666 255 666 255 797 82 c 1,39,-1
 797 83 l 1,40,41
 817 60 817 60 826.5 44 c 128,-1,42
 836 28 836 28 839 20 c 0,43,44
 839 -5 839 -5 813 -5 c 0,45,46
 806 -5 806 -5 793 1 c 0,47,48
 725 36 725 36 670 77 c 128,-1,49
 615 118 615 118 573 168 c 1,50,-1
 573 167 l 1,51,52
 481 276 481 276 481 396 c 0,53,54
 482 448 482 448 501.5 500 c 128,-1,55
 521 552 521 552 559 603 c 0,56,57
 586 640 586 640 623.5 676.5 c 128,-1,58
 661 713 661 713 705 745 c 0,59,60
 778 799 778 799 807 799 c 0,61,62
 842 799 842 799 842 775 c 0,63,64
 842 765 842 765 834 757 c 0,65,66
 807 730 807 730 788 708 c 128,-1,67
 769 686 769 686 756 668.5 c 128,-1,68
 743 651 743 651 734.5 638 c 128,-1,69
 726 625 726 625 720 615 c 2,70,-1
 721 616 l 1,35,36
EndSplineSet
EndChar

StartChar: guillemotright
Encoding: 187 187 424
Width: 836
Flags: W
LayerCount: 2
Fore
SplineSet
573 622 m 1,0,1
 561 641 561 641 537.5 674.5 c 128,-1,2
 514 708 514 708 460 762 c 0,3,4
 452 770 452 770 452 780 c 0,5,6
 452 804 452 804 487 804 c 0,7,8
 514 804 514 804 588 751 c 0,9,10
 631 719 631 719 668 683 c 128,-1,11
 705 647 705 647 732 610 c 0,12,13
 769 559 769 559 788.5 508 c 128,-1,14
 808 457 808 457 809 406 c 0,15,16
 809 287 809 287 718 179 c 1,17,-1
 718 180 l 1,18,19
 636 83 636 83 501 15 c 0,20,21
 487 9 487 9 481 9 c 0,22,23
 455 9 455 9 455 34 c 0,24,25
 458 42 458 42 467.5 57.5 c 128,-1,26
 477 73 477 73 497 96 c 1,27,-1
 497 95 l 1,28,29
 626 266 626 266 626 403 c 0,30,31
 626 515 626 515 572 623 c 1,32,-1
 573 622 l 1,0,1
297 622 m 1,33,34
 285 641 285 641 261.5 674.5 c 128,-1,35
 238 708 238 708 184 762 c 0,36,37
 176 770 176 770 176 780 c 0,38,39
 176 804 176 804 211 804 c 0,40,41
 238 804 238 804 312 751 c 0,42,43
 355 719 355 719 392 683 c 128,-1,44
 429 647 429 647 456 610 c 0,45,46
 493 559 493 559 512.5 508 c 128,-1,47
 532 457 532 457 533 406 c 0,48,49
 533 287 533 287 442 179 c 1,50,-1
 442 180 l 1,51,52
 360 83 360 83 225 15 c 0,53,54
 211 9 211 9 205 9 c 0,55,56
 179 9 179 9 179 34 c 0,57,58
 182 42 182 42 191.5 57.5 c 128,-1,59
 201 73 201 73 221 96 c 1,60,-1
 221 95 l 1,61,62
 350 266 350 266 350 403 c 0,63,64
 350 515 350 515 296 623 c 1,65,-1
 297 622 l 1,33,34
EndSplineSet
EndChar

StartChar: quoteleft
Encoding: 8216 8216 425
Width: 466
Flags: W
LayerCount: 2
Fore
SplineSet
108 1115 m 0,0,1
 109 1202 109 1202 168 1287 c 128,-1,2
 227 1372 227 1372 301 1407 c 1,3,-1
 342 1329 l 1,4,5
 321 1317 321 1317 291.5 1285 c 128,-1,6
 262 1253 262 1253 248 1202 c 1,7,8
 337 1165 337 1165 333 1091 c 0,9,10
 333 1069 333 1069 324.5 1049.5 c 128,-1,11
 316 1030 316 1030 301 1015.5 c 128,-1,12
 286 1001 286 1001 266 992.5 c 128,-1,13
 246 984 246 984 224 984 c 0,14,15
 197 984 197 984 175.5 995.5 c 128,-1,16
 154 1007 154 1007 139 1025.5 c 128,-1,17
 124 1044 124 1044 116 1067.5 c 128,-1,18
 108 1091 108 1091 108 1115 c 0,0,1
EndSplineSet
EndChar

StartChar: quoteright
Encoding: 8217 8217 426
Width: 372
Flags: W
LayerCount: 2
Fore
SplineSet
342 1276 m 0,0,1
 341 1189 341 1189 282 1104 c 128,-1,2
 223 1019 223 1019 149 984 c 1,3,-1
 108 1062 l 1,4,5
 129 1074 129 1074 158.5 1106 c 128,-1,6
 188 1138 188 1138 202 1189 c 1,7,8
 113 1226 113 1226 117 1300 c 0,9,10
 117 1322 117 1322 125.5 1341.5 c 128,-1,11
 134 1361 134 1361 149 1375.5 c 128,-1,12
 164 1390 164 1390 184 1398.5 c 128,-1,13
 204 1407 204 1407 226 1407 c 0,14,15
 253 1407 253 1407 274.5 1395.5 c 128,-1,16
 296 1384 296 1384 311 1365.5 c 128,-1,17
 326 1347 326 1347 334 1323.5 c 128,-1,18
 342 1300 342 1300 342 1276 c 0,0,1
EndSplineSet
EndChar

StartChar: afii57451
Encoding: 1611 1611 427
Width: 0
GlyphClass: 4
Flags: W
AnchorPoint: "Anchor-2" 0 0 mark 0
AnchorPoint: "Anchor-0" 0 0 mark 0
LayerCount: 2
Fore
SplineSet
-270 100 m 1,0,-1
 268 273 l 1,1,-1
 268 162 l 1,2,-1
 -270 -3 l 1,3,-1
 -270 100 l 1,0,-1
-270 297 m 1,4,-1
 268 470 l 1,5,-1
 268 360 l 1,6,-1
 -270 195 l 1,7,-1
 -270 297 l 1,4,-1
EndSplineSet
EndChar

StartChar: afii57454
Encoding: 1614 1614 428
Width: 0
GlyphClass: 4
Flags: W
AnchorPoint: "Anchor-2" 0 0 mark 0
AnchorPoint: "Anchor-0" 0 0 mark 0
LayerCount: 2
Fore
SplineSet
-270 107 m 1,0,-1
 268 280 l 1,1,-1
 268 170 l 1,2,-1
 -270 5 l 1,3,-1
 -270 107 l 1,0,-1
EndSplineSet
EndChar

StartChar: afii57455
Encoding: 1615 1615 429
Width: 0
GlyphClass: 4
Flags: W
AnchorPoint: "Anchor-2" 0 0 mark 0
AnchorPoint: "Anchor-0" 0 0 mark 0
LayerCount: 2
Fore
SplineSet
227 114 m 1,0,1
 131 128 131 128 71 159 c 1,2,3
 45 132 45 132 -68 58 c 1,4,5
 -177 -7 -177 -7 -226 -7 c 1,6,7
 -234 -3 -234 -3 -297 34 c 1,8,9
 -95 120 -95 120 -11 197 c 1,10,11
 -76 243 -76 243 -76 300 c 0,12,13
 -76 355 -76 355 -17 423 c 1,14,15
 45 488 45 488 114 488 c 0,16,17
 204 488 204 488 204 365 c 0,18,19
 204 290 204 290 157 234 c 1,20,21
 170 228 170 228 184 223 c 128,-1,22
 198 218 198 218 215 216 c 1,23,-1
 227 114 l 1,0,1
114 355 m 2,24,25
 114 390 114 390 98 390 c 0,26,27
 75 390 75 390 43.5 368.5 c 128,-1,28
 12 347 12 347 12 329 c 0,29,30
 12 314 12 314 33.5 290.5 c 128,-1,31
 55 267 55 267 71 267 c 0,32,33
 114 267 114 267 114 345 c 2,34,-1
 114 355 l 2,24,25
EndSplineSet
EndChar

StartChar: afii57452
Encoding: 1612 1612 430
Width: 0
GlyphClass: 4
Flags: W
AnchorPoint: "Anchor-2" 0 0 mark 0
AnchorPoint: "Anchor-0" 0 0 mark 0
LayerCount: 2
Fore
SplineSet
268 113 m 1,0,-1
 203 150 l 1,1,-1
 133 197 l 1,2,3
 33 92 33 92 -42 47 c 128,-1,4
 -117 2 -117 2 -211 -14 c 1,5,6
 -283 47 -283 47 -215.5 82 c 128,-1,7
 -148 117 -148 117 -148 172 c 0,8,9
 -148 199 -148 199 -170.5 223.5 c 128,-1,10
 -193 248 -193 248 -219 248 c 0,11,12
 -240 248 -240 248 -303 219 c 1,13,14
 -303 281 -303 281 -270.5 326 c 128,-1,15
 -238 371 -238 371 -185 371 c 1,16,17
 -55 342 -55 342 -96 99 c 1,18,19
 -70 111 -70 111 -48.5 120 c 128,-1,20
 -27 129 -27 129 13 163 c 128,-1,21
 53 197 53 197 84 228 c 1,22,23
 31 262 31 262 6 295 c 0,24,25
 -15 320 -15 320 -15 365 c 0,26,27
 -15 443 -15 443 41 506 c 0,28,29
 104 572 104 572 164 572 c 0,30,31
 196 572 196 572 228 535 c 128,-1,32
 260 498 260 498 260 461 c 0,33,34
 260 422 260 422 244 371 c 1,35,-1
 211 295 l 1,36,37
 248 273 248 273 259 250.5 c 128,-1,38
 270 228 270 228 270 197 c 2,39,-1
 268 113 l 1,0,-1
158 406 m 1,40,41
 158 480 158 480 104 480 c 0,42,43
 69 480 69 480 61 447 c 1,44,45
 61 412 61 412 104 385 c 1,46,-1
 149 346 l 1,47,-1
 153 371 l 1,48,-1
 158 406 l 1,40,41
EndSplineSet
EndChar

StartChar: afii57456
Encoding: 1616 1616 431
Width: 0
GlyphClass: 4
Flags: W
AnchorPoint: "Anchor-3" 0 0 mark 0
AnchorPoint: "Anchor-1" 0 0 mark 0
LayerCount: 2
Fore
SplineSet
-270 107 m 1,0,-1
 268 280 l 1,1,-1
 268 170 l 1,2,-1
 -270 5 l 1,3,-1
 -270 107 l 1,0,-1
EndSplineSet
EndChar

StartChar: afii57457
Encoding: 1617 1617 432
Width: 0
GlyphClass: 4
Flags: W
AnchorPoint: "Anchor-2" 0 0 mark 0
AnchorPoint: "Anchor-0" 0 0 mark 0
LayerCount: 2
Fore
SplineSet
-7 45 m 1,0,1
 -23 25 -23 25 -44.5 13.5 c 128,-1,2
 -66 2 -66 2 -103 0 c 0,3,4
 -181 -3 -181 -3 -230 34.5 c 128,-1,5
 -279 72 -279 72 -279 141 c 0,6,7
 -279 176 -279 176 -250 305 c 1,8,-1
 -141 282 l 1,9,10
 -164 183 -164 183 -164 171 c 0,11,12
 -163 155 -163 155 -143.5 141.5 c 128,-1,13
 -124 128 -124 128 -103 128 c 0,14,15
 -63 132 -63 132 -51 187 c 2,16,-1
 -32 271 l 1,17,-1
 72 248 l 1,18,-1
 56 159 l 1,19,20
 59 126 59 126 93.5 119.5 c 128,-1,21
 128 113 128 113 152 126.5 c 128,-1,22
 176 140 176 140 176 156 c 0,23,24
 178 194 178 194 149 285 c 1,25,-1
 254 302 l 1,26,27
 283 180 283 180 281 143 c 0,28,29
 283 39 283 39 166.5 10 c 128,-1,30
 50 -19 50 -19 -7 45 c 1,0,1
EndSplineSet
EndChar

StartChar: afii57458
Encoding: 1618 1618 433
Width: 0
GlyphClass: 4
Flags: W
AnchorPoint: "Anchor-2" 0 0 mark 0
AnchorPoint: "Anchor-0" 0 0 mark 0
LayerCount: 2
Fore
SplineSet
192 184 m 0,0,1
 192 -4 192 -4 7 -4 c 0,2,3
 -85 -4 -85 -4 -151.5 50 c 128,-1,4
 -218 104 -218 104 -218 196 c 0,5,6
 -218 301 -218 301 -162.5 366.5 c 128,-1,7
 -107 432 -107 432 -7 432 c 0,8,9
 61 432 61 432 128 340 c 0,10,11
 192 256 192 256 192 184 c 0,0,1
108 203 m 0,12,13
 108 239 108 239 84.5 276 c 128,-1,14
 61 313 61 313 32 313 c 0,15,16
 -7 313 -7 313 -65.5 273 c 128,-1,17
 -124 233 -124 233 -124 192 c 0,18,19
 -124 129 -124 129 -23 129 c 0,20,21
 108 129 108 129 108 203 c 0,12,13
EndSplineSet
EndChar

StartChar: exclam
Encoding: 33 33 436
Width: 682
GlyphClass: 2
Flags: W
LayerCount: 2
Fore
SplineSet
611 1102 m 0,0,1
 611 1032 611 1032 579 885 c 0,2,3
 542 715 542 715 535 632 c 2,4,-1
 515 401 l 1,5,-1
 430 401 l 1,6,7
 427 426 427 426 406 630 c 0,8,9
 398 714 398 714 360 888 c 0,10,11
 327 1039 327 1039 327 1104 c 0,12,13
 327 1347 327 1347 468 1347 c 0,14,15
 611 1347 611 1347 611 1102 c 0,0,1
624 154 m 0,16,17
 624 89 624 89 580 44 c 128,-1,18
 536 -1 536 -1 470 -1 c 0,19,20
 405 -1 405 -1 361 44 c 128,-1,21
 317 89 317 89 317 154 c 0,22,23
 317 218 317 218 362 262.5 c 128,-1,24
 407 307 407 307 470 307 c 0,25,26
 534 307 534 307 579 262.5 c 128,-1,27
 624 218 624 218 624 154 c 0,16,17
EndSplineSet
EndChar

StartChar: afii64060
Encoding: 64830 64830 437
Width: 697
GlyphClass: 2
Flags: W
LayerCount: 2
Fore
SplineSet
607 1127 m 0,0,1
 362 778 362 778 362 494 c 0,2,3
 362 258 362 258 486 32 c 0,4,5
 506 -4 506 -4 555.5 -78 c 128,-1,6
 605 -152 605 -152 687 -262 c 0,7,8
 694 -271 694 -271 694 -282 c 0,9,10
 694 -310 694 -310 657 -310 c 0,11,12
 568 -310 568 -310 460 -204 c 0,13,14
 327 -74 327 -74 244 78 c 0,15,16
 133 284 133 284 133 487 c 0,17,18
 133 719 133 719 266 936 c 0,19,20
 388 1135 388 1135 651 1276 c 0,21,22
 662 1284 662 1284 670 1284 c 0,23,24
 693 1284 693 1284 693 1254 c 1,25,26
 681 1233 681 1233 607 1127 c 0,0,1
EndSplineSet
EndChar

StartChar: afii64061
Encoding: 64831 64831 438
Width: 697
GlyphClass: 2
Flags: W
LayerCount: 2
Fore
SplineSet
220 1127 m 0,0,1
 146 1233 146 1233 134 1254 c 1,2,3
 134 1284 134 1284 157 1284 c 0,4,5
 166 1284 166 1284 177 1276 c 0,6,7
 439 1135 439 1135 561 936 c 0,8,9
 694 719 694 719 694 487 c 0,10,11
 694 284 694 284 583 78 c 0,12,13
 501 -74 501 -74 367 -204 c 0,14,15
 261 -310 261 -310 170 -310 c 0,16,17
 133 -310 133 -310 133 -282 c 0,18,19
 133 -271 133 -271 141 -262 c 0,20,21
 222 -152 222 -152 272 -78 c 128,-1,22
 322 -4 322 -4 341 32 c 0,23,24
 466 258 466 258 466 494 c 0,25,26
 466 778 466 778 220 1127 c 0,0,1
EndSplineSet
EndChar

StartChar: afii62821
Encoding: 65252 65252 439
Width: 1284
GlyphClass: 2
Flags: W
AnchorPoint: "Anchor-3" 570 -735 basechar 0
AnchorPoint: "Anchor-2" 690 1155 basechar 0
LayerCount: 2
Fore
SplineSet
-10 322 m 1,0,1
 197 322 197 322 274 463 c 1,2,3
 358 594 358 594 458.5 734 c 128,-1,4
 559 874 559 874 713 874 c 0,5,6
 879 870 879 870 951.5 732 c 128,-1,7
 1024 594 1024 594 1045 457.5 c 128,-1,8
 1066 321 1066 321 1123 321 c 2,9,-1
 1300 322 l 1,10,-1
 1300 0 l 1,11,-1
 1239 0 l 2,12,13
 1106 0 1106 0 1032 88 c 1,14,15
 1004 8 1004 8 922 -38 c 128,-1,16
 840 -84 840 -84 733 -84 c 0,17,18
 653 -84 653 -84 544.5 -14.5 c 128,-1,19
 436 55 436 55 352 127 c 1,20,21
 279 43 279 43 186 16 c 0,22,23
 119 0 119 0 -10 0 c 1,24,-1
 -10 322 l 1,0,1
508 346 m 1,25,26
 606 275 606 275 784 180 c 1,27,28
 804 309 804 309 768.5 437 c 128,-1,29
 733 565 733 565 690 573 c 1,30,31
 645 555 645 555 588 473 c 0,32,33
 547 412 547 412 508 346 c 1,25,26
EndSplineSet
EndChar

StartChar: uni25CC
Encoding: 9676 9676 440
Width: 911
Flags: W
AnchorPoint: "Anchor-3" 405 -540 basechar 0
AnchorPoint: "Anchor-2" 465 930 basechar 0
LayerCount: 2
Fore
SplineSet
771 629 m 256,0,1
 771 592 771 592 734 592 c 0,2,3
 695 592 695 592 695 629 c 256,4,5
 695 666 695 666 734 666 c 0,6,7
 771 666 771 666 771 629 c 256,0,1
658 703 m 0,8,9
 658 666 658 666 621 666 c 0,10,11
 582 666 582 666 582 703 c 0,12,13
 582 742 582 742 621 742 c 0,14,15
 658 742 658 742 658 703 c 0,8,9
847 516 m 0,16,17
 847 477 847 477 808 477 c 0,18,19
 771 477 771 477 771 516 c 0,20,21
 771 553 771 553 810 553 c 0,22,23
 847 553 847 553 847 516 c 0,16,17
873 384 m 256,24,25
 873 347 873 347 836 347 c 0,26,27
 797 347 797 347 797 384 c 256,28,29
 797 421 797 421 836 421 c 0,30,31
 873 421 873 421 873 384 c 256,24,25
525 731 m 0,32,33
 525 692 525 692 488 692 c 256,34,35
 451 692 451 692 451 731 c 0,36,37
 451 768 451 768 488 768 c 256,38,39
 525 768 525 768 525 731 c 0,32,33
847 251 m 0,40,41
 847 214 847 214 808 214 c 0,42,43
 771 214 771 214 771 251 c 0,44,45
 771 290 771 290 808 290 c 0,46,47
 847 290 847 290 847 251 c 0,40,41
394 703 m 0,48,49
 394 666 394 666 356 666 c 0,50,51
 319 666 319 666 319 703 c 0,52,53
 319 742 319 742 356 742 c 0,54,55
 394 742 394 742 394 703 c 0,48,49
282 629 m 256,56,57
 282 592 282 592 243 592 c 0,58,59
 206 592 206 592 206 627 c 0,60,61
 206 666 206 666 243 666 c 0,62,63
 282 666 282 666 282 629 c 256,56,57
771 138 m 0,64,65
 771 101 771 101 734 101 c 256,66,67
 697 101 697 101 697 138 c 0,68,69
 697 177 697 177 734 177 c 256,70,71
 771 177 771 177 771 138 c 0,64,65
658 64 m 0,72,73
 658 27 658 27 621 27 c 256,74,75
 584 27 584 27 584 64 c 0,76,77
 584 103 584 103 621 103 c 256,78,79
 658 103 658 103 658 64 c 0,72,73
206 516 m 0,80,81
 206 477 206 477 171 477 c 0,82,83
 132 477 132 477 132 516 c 0,84,85
 132 553 132 553 169 553 c 256,86,87
 206 553 206 553 206 516 c 0,80,81
180 384 m 256,88,89
 180 347 180 347 143 347 c 0,90,91
 104 347 104 347 104 384 c 256,92,93
 104 421 104 421 143 421 c 0,94,95
 180 421 180 421 180 384 c 256,88,89
525 38 m 0,96,97
 525 -1 525 -1 488 -1 c 256,98,99
 451 -1 451 -1 451 38 c 0,100,101
 451 75 451 75 488 75 c 256,102,103
 525 75 525 75 525 38 c 0,96,97
394 66 m 0,104,105
 394 27 394 27 356 27 c 0,106,107
 319 27 319 27 319 64 c 0,108,109
 319 103 319 103 356 103 c 0,110,111
 394 103 394 103 394 66 c 0,104,105
206 251 m 0,112,113
 206 214 206 214 169 214 c 256,114,115
 132 214 132 214 132 251 c 0,116,117
 132 290 132 290 169 290 c 256,118,119
 206 290 206 290 206 251 c 0,112,113
282 138 m 0,120,121
 282 101 282 101 245 101 c 0,122,123
 206 101 206 101 206 138 c 0,124,125
 206 177 206 177 243 177 c 0,126,127
 282 177 282 177 282 138 c 0,120,121
EndSplineSet
EndChar

StartChar: afii62819
Encoding: 65246 65246 441
Width: 1835
GlyphClass: 2
Flags: W
AnchorPoint: "Anchor-3" 900 -1215 basechar 0
AnchorPoint: "Anchor-2" 1170 1380 basechar 0
LayerCount: 2
Fore
SplineSet
207 -82 m 0,0,1
 207 51 207 51 250 229 c 0,2,3
 289 377 289 377 336 532 c 1,4,-1
 645 432 l 1,5,6
 612 313 612 313 578 195 c 1,7,8
 545 55 545 55 545 -49 c 0,9,10
 545 -160 545 -160 622.5 -232.5 c 128,-1,11
 700 -305 700 -305 817 -305 c 0,12,13
 911 -305 911 -305 1085 -252 c 1,14,15
 1217 -205 1217 -205 1354 -158 c 1,16,-1
 1219 1262 l 1,17,-1
 1520 1288 l 1,18,-1
 1606 416 l 1,19,20
 1620 317 1620 317 1778 322 c 1,21,-1
 1851 322 l 1,22,-1
 1851 0 l 1,23,24
 1667 0 1667 0 1628 49 c 1,25,26
 1657 -229 1657 -229 1683 -371 c 1,27,28
 1018 -639 1018 -639 768 -639 c 0,29,30
 532 -639 532 -639 369.5 -480.5 c 128,-1,31
 207 -322 207 -322 207 -82 c 0,0,1
EndSplineSet
EndChar

StartChar: braceright
Encoding: 125 125 444
Width: 673
GlyphClass: 2
Flags: W
LayerCount: 2
Fore
SplineSet
274 224 m 2,0,1
 274 277 274 277 283 314 c 128,-1,2
 292 351 292 351 314.5 376.5 c 128,-1,3
 337 402 337 402 376 418 c 128,-1,4
 415 434 415 434 474 447 c 1,5,6
 413 460 413 460 374.5 476 c 128,-1,7
 336 492 336 492 314 517 c 128,-1,8
 292 542 292 542 283 579 c 128,-1,9
 274 616 274 616 274 669 c 2,10,-1
 274 961 l 2,11,12
 274 1008 274 1008 264.5 1043 c 128,-1,13
 255 1078 255 1078 233.5 1103 c 128,-1,14
 212 1128 212 1128 177 1143.5 c 128,-1,15
 142 1159 142 1159 92 1170 c 1,16,-1
 92 1191 l 1,17,18
 150 1190 150 1190 192.5 1187.5 c 128,-1,19
 235 1185 235 1185 267 1179.5 c 128,-1,20
 299 1174 299 1174 322.5 1164.5 c 128,-1,21
 346 1155 346 1155 366 1140 c 0,22,23
 453 1088 453 1088 453 951 c 2,24,-1
 453 645 l 2,25,26
 453 599 453 599 461 568 c 128,-1,27
 469 537 469 537 489 514.5 c 128,-1,28
 509 492 509 492 544.5 476.5 c 128,-1,29
 580 461 580 461 635 447 c 1,30,31
 580 433 580 433 544.5 418 c 128,-1,32
 509 403 509 403 489 380.5 c 128,-1,33
 469 358 469 358 461 326 c 128,-1,34
 453 294 453 294 453 249 c 2,35,-1
 453 -57 l 2,36,37
 453 -196 453 -196 366 -249 c 0,38,39
 346 -263 346 -263 321.5 -272.5 c 128,-1,40
 297 -282 297 -282 265.5 -287 c 128,-1,41
 234 -292 234 -292 191.5 -294.5 c 128,-1,42
 149 -297 149 -297 92 -297 c 1,43,-1
 92 -278 l 1,44,45
 143 -267 143 -267 178 -251 c 128,-1,46
 213 -235 213 -235 234 -210 c 128,-1,47
 255 -185 255 -185 264.5 -150.5 c 128,-1,48
 274 -116 274 -116 274 -67 c 2,49,-1
 274 224 l 2,0,1
EndSplineSet
EndChar

StartChar: uni0656
Encoding: 1622 1622 451
Width: 0
GlyphClass: 4
Flags: W
AnchorPoint: "Anchor-3" 0 0 mark 0
AnchorPoint: "Anchor-1" 0 0 mark 0
LayerCount: 2
Fore
SplineSet
63 24 m 1,0,-1
 -13 -11 l 2,1,2
 -21 -11 -21 -11 -26 16 c 0,3,4
 -46 129 -46 129 -87 426 c 1,5,-1
 25 504 l 2,6,7
 35 509 35 509 41 509 c 0,8,9
 49 509 49 509 50 500 c 0,10,11
 50 377 50 377 63 24 c 1,0,-1
EndSplineSet
EndChar

StartChar: E005
Encoding: 65578 -1 469
Width: 295
GlyphClass: 3
Flags: W
LayerCount: 2
Fore
SplineSet
-10 0 m 1,0,-1
 -10 147 l 1,1,-1
 305 147 l 1,2,-1
 305 0 l 1,3,-1
 -10 0 l 1,0,-1
EndSplineSet
EndChar

StartChar: afii57470
Encoding: 1726 1726 479
Width: 1391
Flags: W
AnchorPoint: "Anchor-3" 555 -615 basechar 0
AnchorPoint: "Anchor-2" 615 1395 basechar 0
LayerCount: 2
Fore
SplineSet
-10 322 m 1,0,1
 113 322 113 322 218 344 c 1,2,3
 173 463 173 463 152.5 571.5 c 128,-1,4
 132 680 132 680 130 804 c 0,5,6
 130 937 130 937 223 1036 c 0,7,8
 315 1136 315 1136 442 1136 c 0,9,10
 548 1136 548 1136 715 1059 c 1,11,12
 926 956 926 956 948 870 c 1,13,-1
 1191 936 l 1,14,15
 1299 767 1299 767 1344.5 577.5 c 128,-1,16
 1390 388 1390 388 1390 251 c 1,17,18
 1373 126 1373 126 1300 63 c 128,-1,19
 1227 0 1227 0 1096 0 c 0,20,21
 861 3 861 3 530 103 c 1,22,23
 346 0 346 0 43 0 c 2,24,-1
 -10 0 l 1,25,-1
 -10 322 l 1,0,1
425 778 m 0,26,27
 425 706 425 706 454 598 c 128,-1,28
 483 490 483 490 516 475 c 1,29,30
 601 542 601 542 681 687 c 1,31,32
 677 747 677 747 467 830 c 1,33,34
 427 833 427 833 425 778 c 0,26,27
800 331 m 1,35,36
 1012 289 1012 289 1028 289 c 0,37,38
 1073 289 1073 289 1073 330 c 0,39,40
 1073 379 1073 379 1044 476 c 128,-1,41
 1015 573 1015 573 978 616 c 1,42,43
 920 472 920 472 800 331 c 1,35,36
EndSplineSet
Substitution2: "'medi' Medial Forms in Arabic lookup 3 subtable" afii62827
Substitution2: "'fina' Terminal Forms in Arabic lookup 2 subtable" afii62827
Substitution2: "'init' Initial Forms in Arabic lookup 1 subtable" afii57470
EndChar

StartChar: at
Encoding: 64 64 488
Width: 1587
Flags: W
LayerCount: 2
Fore
SplineSet
1034 863 m 1,0,-1
 1155 863 l 1,1,-1
 1042 420 l 2,2,3
 1041 413 1041 413 1040 405.5 c 128,-1,4
 1039 398 1039 398 1039 390 c 0,5,6
 1039 308 1039 308 1104 308 c 0,7,8
 1146 308 1146 308 1186 336.5 c 128,-1,9
 1226 365 1226 365 1255.5 414 c 128,-1,10
 1285 463 1285 463 1303.5 526 c 128,-1,11
 1322 589 1322 589 1322 657 c 0,12,13
 1322 748 1322 748 1282.5 831 c 128,-1,14
 1243 914 1243 914 1175.5 976.5 c 128,-1,15
 1108 1039 1108 1039 1018.5 1075.5 c 128,-1,16
 929 1112 929 1112 829 1112 c 0,17,18
 723 1112 723 1112 633.5 1070.5 c 128,-1,19
 544 1029 544 1029 478.5 955 c 128,-1,20
 413 881 413 881 377 778.5 c 128,-1,21
 341 676 341 676 341 555 c 0,22,23
 341 443 341 443 379 350 c 128,-1,24
 417 257 417 257 484.5 189.5 c 128,-1,25
 552 122 552 122 646 84 c 128,-1,26
 740 46 740 46 852 46 c 0,27,28
 893 46 893 46 932.5 50.5 c 128,-1,29
 972 55 972 55 1011.5 65 c 128,-1,30
 1051 75 1051 75 1095 91 c 128,-1,31
 1139 107 1139 107 1191 130 c 1,32,-1
 1213 70 l 1,33,34
 1150 40 1150 40 1100.5 20.5 c 128,-1,35
 1051 1 1051 1 1006.5 -11 c 128,-1,36
 962 -23 962 -23 920.5 -27.5 c 128,-1,37
 879 -32 879 -32 830 -32 c 0,38,39
 694 -32 694 -32 576 14 c 128,-1,40
 458 60 458 60 371 140.5 c 128,-1,41
 284 221 284 221 234.5 329.5 c 128,-1,42
 185 438 185 438 185 563 c 0,43,44
 185 693 185 693 234.5 804.5 c 128,-1,45
 284 916 284 916 371 999 c 128,-1,46
 458 1082 458 1082 575.5 1130.5 c 128,-1,47
 693 1179 693 1179 827 1179 c 0,48,49
 949 1179 949 1179 1054 1139 c 128,-1,50
 1159 1099 1159 1099 1237 1030 c 128,-1,51
 1315 961 1315 961 1358.5 867.5 c 128,-1,52
 1402 774 1402 774 1402 666 c 0,53,54
 1402 580 1402 580 1376.5 504 c 128,-1,55
 1351 428 1351 428 1307 370 c 128,-1,56
 1263 312 1263 312 1204 278 c 128,-1,57
 1145 244 1145 244 1080 244 c 0,58,59
 1016 244 1016 244 972 278.5 c 128,-1,60
 928 313 928 313 919 372 c 1,61,62
 874 313 874 313 817.5 279.5 c 128,-1,63
 761 246 761 246 705 246 c 0,64,65
 670 246 670 246 641 260.5 c 128,-1,66
 612 275 612 275 590.5 302 c 128,-1,67
 569 329 569 329 556.5 364.5 c 128,-1,68
 544 400 544 400 544 441 c 0,69,70
 544 489 544 489 553.5 537.5 c 128,-1,71
 563 586 563 586 581.5 631.5 c 128,-1,72
 600 677 600 677 627 719.5 c 128,-1,73
 654 762 654 762 687 796 c 0,74,75
 728 839 728 839 781 862 c 128,-1,76
 834 885 834 885 891 885 c 0,77,78
 914 885 914 885 931.5 882 c 128,-1,79
 949 879 949 879 963 868.5 c 128,-1,80
 977 858 977 858 989 840 c 128,-1,81
 1001 822 1001 822 1016 795 c 1,82,-1
 1034 863 l 1,0,-1
913 804 m 0,83,84
 880 807 880 807 840.5 783.5 c 128,-1,85
 801 760 801 760 765 716 c 0,86,87
 721 667 721 667 698.5 604.5 c 128,-1,88
 676 542 676 542 676 472 c 0,89,90
 676 404 676 404 702.5 365 c 128,-1,91
 729 326 729 326 776 326 c 0,92,93
 814 326 814 326 851.5 356 c 128,-1,94
 889 386 889 386 916 441 c 0,95,96
 930 467 930 467 941.5 499 c 128,-1,97
 953 531 953 531 962.5 564.5 c 128,-1,98
 972 598 972 598 977.5 631 c 128,-1,99
 983 664 983 664 984 693 c 0,100,101
 987 742 987 742 969 772 c 128,-1,102
 951 802 951 802 913 804 c 0,83,84
EndSplineSet
EndChar

StartChar: A
Encoding: 65 65 489
Width: 1232
Flags: W
LayerCount: 2
Fore
SplineSet
1175 0 m 1,0,-1
 624 0 l 1,1,-1
 624 42 l 1,2,3
 641 45 641 45 656 46 c 128,-1,4
 671 47 671 47 677 47 c 0,5,6
 723 50 723 50 740.5 64 c 128,-1,7
 758 78 758 78 758 104 c 0,8,9
 758 117 758 117 754.5 137 c 128,-1,10
 751 157 751 157 741.5 184.5 c 128,-1,11
 732 212 732 212 717 249 c 128,-1,12
 702 286 702 286 680 336 c 1,13,-1
 296 336 l 1,14,-1
 271 269 l 2,15,16
 258 235 258 235 248.5 209.5 c 128,-1,17
 239 184 239 184 233 165 c 128,-1,18
 227 146 227 146 224.5 134 c 128,-1,19
 222 122 222 122 222 113 c 0,20,21
 222 79 222 79 253.5 63 c 128,-1,22
 285 47 285 47 362 42 c 1,23,-1
 362 0 l 1,24,-1
 15 0 l 1,25,-1
 15 42 l 1,26,27
 45 48 45 48 66 58 c 128,-1,28
 87 68 87 68 104.5 88.5 c 128,-1,29
 122 109 122 109 140 146 c 128,-1,30
 158 183 158 183 183 242 c 2,31,-1
 561 1177 l 1,32,-1
 608 1177 l 1,33,-1
 990 280 l 2,34,35
 1021 205 1021 205 1044 157.5 c 128,-1,36
 1067 110 1067 110 1086.5 85 c 128,-1,37
 1106 60 1106 60 1125 51 c 128,-1,38
 1144 42 1144 42 1169 42 c 2,39,-1
 1175 42 l 1,40,-1
 1175 0 l 1,0,-1
655 403 m 1,41,-1
 483 817 l 1,42,-1
 322 403 l 1,43,-1
 655 403 l 1,41,-1
EndSplineSet
EndChar

StartChar: B
Encoding: 66 66 490
Width: 1138
Flags: W
LayerCount: 2
Fore
SplineSet
555 1153 m 2,0,1
 768 1153 768 1153 883 1083 c 128,-1,2
 998 1013 998 1013 998 880 c 0,3,4
 998 831 998 831 983.5 793.5 c 128,-1,5
 969 756 969 756 936 725 c 128,-1,6
 903 694 903 694 852 669.5 c 128,-1,7
 801 645 801 645 727 624 c 1,8,9
 772 614 772 614 806 603.5 c 128,-1,10
 840 593 840 593 867 581 c 128,-1,11
 894 569 894 569 917.5 554 c 128,-1,12
 941 539 941 539 963 520 c 0,13,14
 1009 480 1009 480 1033 429.5 c 128,-1,15
 1057 379 1057 379 1057 321 c 0,16,17
 1057 248 1057 248 1022.5 189 c 128,-1,18
 988 130 988 130 925 88 c 128,-1,19
 862 46 862 46 773 23 c 128,-1,20
 684 0 684 0 577 0 c 2,21,-1
 28 0 l 1,22,-1
 28 42 l 1,23,24
 75 48 75 48 103.5 55 c 128,-1,25
 132 62 132 62 149 75.5 c 128,-1,26
 166 89 166 89 171.5 110 c 128,-1,27
 177 131 177 131 177 164 c 2,28,-1
 177 990 l 2,29,30
 177 1022 177 1022 170.5 1044.5 c 128,-1,31
 164 1067 164 1067 146.5 1080.5 c 128,-1,32
 129 1094 129 1094 100 1100.5 c 128,-1,33
 71 1107 71 1107 28 1111 c 1,34,-1
 28 1153 l 1,35,-1
 555 1153 l 2,0,1
451 158 m 2,36,37
 451 101 451 101 474.5 78 c 128,-1,38
 498 55 498 55 555 55 c 0,39,40
 763 55 763 55 763 305 c 0,41,42
 763 586 763 586 501 586 c 2,43,-1
 451 586 l 1,44,-1
 451 158 l 2,36,37
451 636 m 1,45,46
 529 638 529 638 581 649 c 128,-1,47
 633 660 633 660 663 687 c 128,-1,48
 693 714 693 714 704.5 757.5 c 128,-1,49
 716 801 716 801 716 868 c 0,50,51
 716 990 716 990 674.5 1046 c 128,-1,52
 633 1102 633 1102 542 1102 c 0,53,54
 492 1102 492 1102 471.5 1084 c 128,-1,55
 451 1066 451 1066 451 1019 c 2,56,-1
 451 636 l 1,45,46
EndSplineSet
EndChar

StartChar: C
Encoding: 67 67 491
Width: 1232
Flags: W
LayerCount: 2
Fore
SplineSet
1173 216 m 1,0,1
 1144 185 1144 185 1121 161.5 c 128,-1,2
 1098 138 1098 138 1078.5 119.5 c 128,-1,3
 1059 101 1059 101 1041 87 c 128,-1,4
 1023 73 1023 73 1002 60 c 0,5,6
 932 12 932 12 856 -10 c 128,-1,7
 780 -32 780 -32 687 -32 c 0,8,9
 555 -32 555 -32 444 12.5 c 128,-1,10
 333 57 333 57 253 136 c 128,-1,11
 173 215 173 215 128 326 c 128,-1,12
 83 437 83 437 83 569 c 0,13,14
 83 698 83 698 128.5 810 c 128,-1,15
 174 922 174 922 253 1004 c 128,-1,16
 332 1086 332 1086 441 1132.5 c 128,-1,17
 550 1179 550 1179 677 1179 c 0,18,19
 739 1179 739 1179 802 1164.5 c 128,-1,20
 865 1150 865 1150 941 1119 c 0,21,22
 970 1106 970 1106 989 1101 c 128,-1,23
 1008 1096 1008 1096 1020 1096 c 0,24,25
 1045 1096 1045 1096 1061 1112 c 128,-1,26
 1077 1128 1077 1128 1096 1174 c 1,27,-1
 1140 1174 l 1,28,-1
 1140 774 l 1,29,-1
 1098 774 l 1,30,31
 1076 822 1076 822 1056.5 858 c 128,-1,32
 1037 894 1037 894 1017.5 923.5 c 128,-1,33
 998 953 998 953 975.5 977 c 128,-1,34
 953 1001 953 1001 926 1027 c 0,35,36
 871 1076 871 1076 816 1099.5 c 128,-1,37
 761 1123 761 1123 700 1123 c 0,38,39
 545 1123 545 1123 465.5 985.5 c 128,-1,40
 386 848 386 848 386 581 c 0,41,42
 386 453 386 453 403.5 359.5 c 128,-1,43
 421 266 421 266 458 198 c 0,44,45
 478 165 478 165 506 137 c 128,-1,46
 534 109 534 109 569.5 89.5 c 128,-1,47
 605 70 605 70 645.5 59.5 c 128,-1,48
 686 49 686 49 728 49 c 0,49,50
 765 49 765 49 805 57 c 128,-1,51
 845 65 845 65 882 80 c 0,52,53
 913 92 913 92 940.5 107 c 128,-1,54
 968 122 968 122 995 142.5 c 128,-1,55
 1022 163 1022 163 1052 190.5 c 128,-1,56
 1082 218 1082 218 1121 258 c 1,57,-1
 1173 216 l 1,0,1
EndSplineSet
EndChar

StartChar: D
Encoding: 68 68 492
Width: 1232
Flags: W
LayerCount: 2
Fore
SplineSet
166 997 m 2,0,1
 166 1026 166 1026 158.5 1046 c 128,-1,2
 151 1066 151 1066 135 1078.5 c 128,-1,3
 119 1091 119 1091 92.5 1098.5 c 128,-1,4
 66 1106 66 1106 25 1111 c 1,5,-1
 25 1153 l 1,6,-1
 544 1153 l 2,7,8
 693 1153 693 1153 809.5 1114.5 c 128,-1,9
 926 1076 926 1076 1007.5 1002.5 c 128,-1,10
 1089 929 1089 929 1133 825 c 128,-1,11
 1177 721 1177 721 1177 589 c 256,12,13
 1177 457 1177 457 1133 348 c 128,-1,14
 1089 239 1089 239 1008 162.5 c 128,-1,15
 927 86 927 86 814.5 43 c 128,-1,16
 702 0 702 0 563 0 c 2,17,-1
 25 0 l 1,18,-1
 25 42 l 1,19,20
 98 45 98 45 132 72 c 128,-1,21
 166 99 166 99 166 155 c 2,22,-1
 166 997 l 2,0,1
441 158 m 2,23,24
 441 129 441 129 446 110 c 128,-1,25
 451 91 451 91 462 80 c 128,-1,26
 473 69 473 69 492 64.5 c 128,-1,27
 511 60 511 60 541 60 c 0,28,29
 706 60 706 60 791 177 c 0,30,31
 812 206 812 206 828.5 247 c 128,-1,32
 845 288 845 288 856.5 338.5 c 128,-1,33
 868 389 868 389 874 445.5 c 128,-1,34
 880 502 880 502 880 563 c 0,35,36
 880 671 880 671 862.5 762 c 128,-1,37
 845 853 845 853 811 921 c 0,38,39
 766 1010 766 1010 700.5 1053 c 128,-1,40
 635 1096 635 1096 542 1096 c 0,41,42
 441 1096 441 1096 441 1036 c 2,43,-1
 441 158 l 2,23,24
EndSplineSet
EndChar

StartChar: E
Encoding: 69 69 493
Width: 1138
Flags: W
LayerCount: 2
Fore
SplineSet
1011 811 m 1,0,-1
 970 811 l 1,1,2
 953 895 953 895 927 950.5 c 128,-1,3
 901 1006 901 1006 855.5 1038 c 128,-1,4
 810 1070 810 1070 739 1083 c 128,-1,5
 668 1096 668 1096 565 1096 c 0,6,7
 531 1096 531 1096 509.5 1092.5 c 128,-1,8
 488 1089 488 1089 475.5 1080 c 128,-1,9
 463 1071 463 1071 458.5 1055.5 c 128,-1,10
 454 1040 454 1040 454 1016 c 2,11,-1
 454 620 l 1,12,13
 522 618 522 618 571 630.5 c 128,-1,14
 620 643 620 643 652 673 c 128,-1,15
 684 703 684 703 702.5 752 c 128,-1,16
 721 801 721 801 731 874 c 1,17,-1
 774 874 l 1,18,-1
 774 296 l 1,19,-1
 731 296 l 1,20,21
 723 372 723 372 704.5 422 c 128,-1,22
 686 472 686 472 653.5 503 c 128,-1,23
 621 534 621 534 572 547.5 c 128,-1,24
 523 561 523 561 454 561 c 1,25,-1
 454 148 l 2,26,27
 454 120 454 120 460.5 102.5 c 128,-1,28
 467 85 467 85 483.5 73.5 c 128,-1,29
 500 62 500 62 527.5 57.5 c 128,-1,30
 555 53 555 53 596 53 c 0,31,32
 693 53 693 53 765.5 74.5 c 128,-1,33
 838 96 838 96 897 143 c 0,34,35
 920 162 920 162 938.5 180.5 c 128,-1,36
 957 199 957 199 974 224 c 128,-1,37
 991 249 991 249 1008.5 280.5 c 128,-1,38
 1026 312 1026 312 1046 355 c 1,39,-1
 1094 355 l 1,40,-1
 1025 0 l 1,41,-1
 28 0 l 1,42,-1
 28 42 l 1,43,44
 75 48 75 48 104.5 55 c 128,-1,45
 134 62 134 62 150 75 c 128,-1,46
 166 88 166 88 171.5 109 c 128,-1,47
 177 130 177 130 177 164 c 2,48,-1
 177 990 l 2,49,50
 177 1022 177 1022 170.5 1044.5 c 128,-1,51
 164 1067 164 1067 146.5 1080.5 c 128,-1,52
 129 1094 129 1094 100 1100.5 c 128,-1,53
 71 1107 71 1107 28 1111 c 1,54,-1
 28 1153 l 1,55,-1
 1011 1153 l 1,56,-1
 1011 811 l 1,0,-1
EndSplineSet
EndChar

StartChar: F
Encoding: 70 70 494
Width: 1042
Flags: W
LayerCount: 2
Fore
SplineSet
995 811 m 1,0,-1
 953 811 l 1,1,2
 944 850 944 850 936 880 c 128,-1,3
 928 910 928 910 919 932.5 c 128,-1,4
 910 955 910 955 899.5 972.5 c 128,-1,5
 889 990 889 990 874 1007 c 0,6,7
 833 1051 833 1051 757.5 1073.5 c 128,-1,8
 682 1096 682 1096 563 1096 c 0,9,10
 530 1096 530 1096 509 1092 c 128,-1,11
 488 1088 488 1088 475.5 1079 c 128,-1,12
 463 1070 463 1070 458.5 1054.5 c 128,-1,13
 454 1039 454 1039 454 1016 c 2,14,-1
 454 620 l 1,15,16
 518 620 518 620 562.5 632 c 128,-1,17
 607 644 607 644 637 673.5 c 128,-1,18
 667 703 667 703 685 752 c 128,-1,19
 703 801 703 801 714 874 c 1,20,-1
 757 874 l 1,21,-1
 757 296 l 1,22,-1
 714 296 l 1,23,24
 706 372 706 372 688.5 421.5 c 128,-1,25
 671 471 671 471 641 502 c 128,-1,26
 611 533 611 533 565 546.5 c 128,-1,27
 519 560 519 560 454 561 c 1,28,-1
 454 164 l 2,29,30
 454 128 454 128 461.5 105.5 c 128,-1,31
 469 83 469 83 489 70 c 128,-1,32
 509 57 509 57 545.5 51 c 128,-1,33
 582 45 582 45 641 42 c 1,34,-1
 641 0 l 1,35,-1
 28 0 l 1,36,-1
 28 42 l 1,37,38
 75 48 75 48 104.5 55 c 128,-1,39
 134 62 134 62 150 75 c 128,-1,40
 166 88 166 88 171.5 109 c 128,-1,41
 177 130 177 130 177 164 c 2,42,-1
 177 990 l 2,43,44
 177 1023 177 1023 170.5 1045.5 c 128,-1,45
 164 1068 164 1068 146.5 1081.5 c 128,-1,46
 129 1095 129 1095 100 1101 c 128,-1,47
 71 1107 71 1107 28 1111 c 1,48,-1
 28 1153 l 1,49,-1
 995 1153 l 1,50,-1
 995 811 l 1,0,-1
EndSplineSet
EndChar

StartChar: G
Encoding: 71 71 495
Width: 1327
Flags: W
LayerCount: 2
Fore
SplineSet
1288 447 m 1,0,1
 1239 442 1239 442 1211 434.5 c 128,-1,2
 1183 427 1183 427 1166.5 410 c 128,-1,3
 1150 393 1150 393 1145 364.5 c 128,-1,4
 1140 336 1140 336 1140 291 c 2,5,-1
 1140 73 l 1,6,7
 1099 49 1099 49 1045.5 29.5 c 128,-1,8
 992 10 992 10 931 -4 c 128,-1,9
 870 -18 870 -18 803 -25 c 128,-1,10
 736 -32 736 -32 670 -32 c 0,11,12
 536 -32 536 -32 424.5 12 c 128,-1,13
 313 56 313 56 233 135 c 128,-1,14
 153 214 153 214 108 323.5 c 128,-1,15
 63 433 63 433 63 565 c 256,16,17
 63 697 63 697 108.5 809 c 128,-1,18
 154 921 154 921 233.5 1003.5 c 128,-1,19
 313 1086 313 1086 421 1132.5 c 128,-1,20
 529 1179 529 1179 657 1179 c 0,21,22
 718 1179 718 1179 781.5 1164.5 c 128,-1,23
 845 1150 845 1150 921 1119 c 0,24,25
 950 1106 950 1106 969.5 1101 c 128,-1,26
 989 1096 989 1096 1000 1096 c 0,27,28
 1024 1096 1024 1096 1041 1112 c 128,-1,29
 1058 1128 1058 1128 1075 1174 c 1,30,-1
 1121 1174 l 1,31,-1
 1121 774 l 1,32,-1
 1078 774 l 1,33,34
 1055 822 1055 822 1036 858.5 c 128,-1,35
 1017 895 1017 895 997.5 924.5 c 128,-1,36
 978 954 978 954 955.5 978 c 128,-1,37
 933 1002 933 1002 906 1027 c 0,38,39
 849 1076 849 1076 793.5 1099.5 c 128,-1,40
 738 1123 738 1123 679 1123 c 0,41,42
 523 1123 523 1123 443.5 984.5 c 128,-1,43
 364 846 364 846 364 577 c 0,44,45
 364 271 364 271 475 130 c 0,46,47
 518 75 518 75 574 50 c 128,-1,48
 630 25 630 25 712 25 c 0,49,50
 798 25 798 25 836.5 54 c 128,-1,51
 875 83 875 83 875 148 c 2,52,-1
 875 327 l 2,53,54
 875 362 875 362 869 384 c 128,-1,55
 863 406 863 406 844 418.5 c 128,-1,56
 825 431 825 431 791 437.5 c 128,-1,57
 757 444 757 444 703 447 c 1,58,-1
 703 490 l 1,59,-1
 1288 490 l 1,60,-1
 1288 447 l 1,0,1
EndSplineSet
EndChar

StartChar: H
Encoding: 72 72 496
Width: 1327
Flags: W
LayerCount: 2
Fore
SplineSet
458 556 m 1,0,-1
 458 164 l 2,1,2
 458 132 458 132 464.5 111.5 c 128,-1,3
 471 91 471 91 488 77 c 128,-1,4
 505 63 505 63 534 55.5 c 128,-1,5
 563 48 563 48 611 42 c 1,6,-1
 611 0 l 1,7,-1
 36 0 l 1,8,-1
 36 42 l 1,9,10
 80 48 80 48 108.5 55.5 c 128,-1,11
 137 63 137 63 152.5 77 c 128,-1,12
 168 91 168 91 174 111.5 c 128,-1,13
 180 132 180 132 180 164 c 2,14,-1
 180 990 l 2,15,16
 180 1021 180 1021 174 1042.5 c 128,-1,17
 168 1064 168 1064 151 1077.5 c 128,-1,18
 134 1091 134 1091 106.5 1098.5 c 128,-1,19
 79 1106 79 1106 36 1111 c 1,20,-1
 36 1153 l 1,21,-1
 611 1153 l 1,22,-1
 611 1111 l 1,23,24
 565 1107 565 1107 536 1100 c 128,-1,25
 507 1093 507 1093 489 1078.5 c 128,-1,26
 471 1064 471 1064 464.5 1042.5 c 128,-1,27
 458 1021 458 1021 458 990 c 2,28,-1
 458 636 l 1,29,-1
 868 636 l 1,30,-1
 868 990 l 2,31,32
 868 1021 868 1021 861 1042.5 c 128,-1,33
 854 1064 854 1064 836.5 1078.5 c 128,-1,34
 819 1093 819 1093 789.5 1100 c 128,-1,35
 760 1107 760 1107 714 1111 c 1,36,-1
 714 1153 l 1,37,-1
 1294 1153 l 1,38,-1
 1294 1111 l 1,39,40
 1252 1107 1252 1107 1223 1100 c 128,-1,41
 1194 1093 1194 1093 1176.5 1078.5 c 128,-1,42
 1159 1064 1159 1064 1152 1042.5 c 128,-1,43
 1145 1021 1145 1021 1145 990 c 2,44,-1
 1145 164 l 2,45,46
 1145 132 1145 132 1151 111.5 c 128,-1,47
 1157 91 1157 91 1174 77 c 128,-1,48
 1191 63 1191 63 1219.5 55.5 c 128,-1,49
 1248 48 1248 48 1294 42 c 1,50,-1
 1294 0 l 1,51,-1
 714 0 l 1,52,-1
 714 42 l 1,53,54
 762 48 762 48 791.5 55.5 c 128,-1,55
 821 63 821 63 838 77 c 128,-1,56
 855 91 855 91 861.5 111.5 c 128,-1,57
 868 132 868 132 868 164 c 2,58,-1
 868 556 l 1,59,-1
 458 556 l 1,0,-1
EndSplineSet
EndChar

StartChar: I
Encoding: 73 73 497
Width: 664
Flags: W
LayerCount: 2
Fore
SplineSet
193 990 m 2,0,1
 193 1022 193 1022 185 1044 c 128,-1,2
 177 1066 177 1066 159 1080 c 128,-1,3
 141 1094 141 1094 110.5 1100.5 c 128,-1,4
 80 1107 80 1107 34 1111 c 1,5,-1
 34 1153 l 1,6,-1
 631 1153 l 1,7,-1
 631 1111 l 1,8,9
 585 1108 585 1108 553 1102 c 128,-1,10
 521 1096 521 1096 502.5 1082 c 128,-1,11
 484 1068 484 1068 477 1045.5 c 128,-1,12
 470 1023 470 1023 470 990 c 2,13,-1
 470 164 l 2,14,15
 470 130 470 130 476.5 108.5 c 128,-1,16
 483 87 483 87 501.5 73 c 128,-1,17
 520 59 520 59 551 52 c 128,-1,18
 582 45 582 45 631 42 c 1,19,-1
 631 0 l 1,20,-1
 34 0 l 1,21,-1
 34 42 l 1,22,23
 82 47 82 47 113 54.5 c 128,-1,24
 144 62 144 62 161.5 75.5 c 128,-1,25
 179 89 179 89 186 110 c 128,-1,26
 193 131 193 131 193 164 c 2,27,-1
 193 990 l 2,0,1
EndSplineSet
EndChar

StartChar: J
Encoding: 74 74 498
Width: 853
Flags: W
LayerCount: 2
Fore
SplineSet
666 209 m 2,0,1
 666 26 666 26 573 -69 c 128,-1,2
 480 -164 480 -164 301 -164 c 0,3,4
 249 -164 249 -164 201 -153.5 c 128,-1,5
 153 -143 153 -143 119 -126 c 0,6,7
 95 -110 95 -110 74 -89 c 128,-1,8
 53 -68 53 -68 37 -43.5 c 128,-1,9
 21 -19 21 -19 12.5 8.5 c 128,-1,10
 4 36 4 36 4 62 c 0,11,12
 4 87 4 87 14.5 108.5 c 128,-1,13
 25 130 25 130 41.5 147 c 128,-1,14
 58 164 58 164 79 174.5 c 128,-1,15
 100 185 100 185 125 185 c 0,16,17
 149 185 149 185 172 174.5 c 128,-1,18
 195 164 195 164 211.5 146 c 128,-1,19
 228 128 228 128 238.5 105 c 128,-1,20
 249 82 249 82 249 57 c 0,21,22
 249 37 249 37 244 24 c 128,-1,23
 239 11 239 11 224 -9 c 0,24,25
 212 -25 212 -25 207.5 -33.5 c 128,-1,26
 203 -42 203 -42 203 -53 c 0,27,28
 203 -78 203 -78 224.5 -93 c 128,-1,29
 246 -108 246 -108 280 -108 c 0,30,31
 339 -108 339 -108 364.5 -73 c 128,-1,32
 390 -38 390 -38 390 41 c 2,33,-1
 390 990 l 2,34,35
 390 1024 390 1024 382 1046.5 c 128,-1,36
 374 1069 374 1069 354.5 1082.5 c 128,-1,37
 335 1096 335 1096 301.5 1102 c 128,-1,38
 268 1108 268 1108 216 1111 c 1,39,-1
 216 1153 l 1,40,-1
 817 1153 l 1,41,-1
 817 1111 l 1,42,43
 769 1107 769 1107 739.5 1099 c 128,-1,44
 710 1091 710 1091 693.5 1074.5 c 128,-1,45
 677 1058 677 1058 671.5 1029 c 128,-1,46
 666 1000 666 1000 666 953 c 2,47,-1
 666 209 l 2,0,1
EndSplineSet
EndChar

StartChar: K
Encoding: 75 75 499
Width: 1327
Flags: W
LayerCount: 2
Fore
SplineSet
1312 0 m 1,0,-1
 739 0 l 1,1,-1
 739 42 l 1,2,3
 757 45 757 45 772 45 c 128,-1,4
 787 45 787 45 793 45 c 0,5,6
 836 46 836 46 855 54 c 128,-1,7
 874 62 874 62 874 79 c 0,8,9
 874 92 874 92 865 107 c 128,-1,10
 856 122 856 122 832 153 c 2,11,-1
 522 541 l 1,12,-1
 475 498 l 1,13,-1
 475 164 l 2,14,15
 475 132 475 132 481.5 111.5 c 128,-1,16
 488 91 488 91 504.5 77 c 128,-1,17
 521 63 521 63 550.5 55.5 c 128,-1,18
 580 48 580 48 626 42 c 1,19,-1
 626 0 l 1,20,-1
 51 0 l 1,21,-1
 51 42 l 1,22,23
 97 48 97 48 126.5 55 c 128,-1,24
 156 62 156 62 172 75.5 c 128,-1,25
 188 89 188 89 193.5 110 c 128,-1,26
 199 131 199 131 199 164 c 2,27,-1
 199 990 l 2,28,29
 199 1023 199 1023 193 1045.5 c 128,-1,30
 187 1068 187 1068 170 1081.5 c 128,-1,31
 153 1095 153 1095 124.5 1101 c 128,-1,32
 96 1107 96 1107 51 1111 c 1,33,-1
 51 1153 l 1,34,-1
 629 1153 l 1,35,-1
 629 1111 l 1,36,37
 581 1107 581 1107 551 1099 c 128,-1,38
 521 1091 521 1091 504.5 1074 c 128,-1,39
 488 1057 488 1057 481.5 1028 c 128,-1,40
 475 999 475 999 475 953 c 2,41,-1
 475 589 l 1,42,-1
 846 961 l 2,43,44
 866 980 866 980 878 993.5 c 128,-1,45
 890 1007 890 1007 896.5 1017 c 128,-1,46
 903 1027 903 1027 905.5 1035 c 128,-1,47
 908 1043 908 1043 908 1055 c 0,48,49
 908 1080 908 1080 890 1092 c 128,-1,50
 872 1104 872 1104 825 1106 c 0,51,52
 817 1107 817 1107 800.5 1107.5 c 128,-1,53
 784 1108 784 1108 763 1111 c 1,54,-1
 763 1153 l 1,55,-1
 1255 1153 l 1,56,-1
 1255 1111 l 1,57,58
 1214 1106 1214 1106 1180 1099.5 c 128,-1,59
 1146 1093 1146 1093 1112 1077.5 c 128,-1,60
 1078 1062 1078 1062 1040 1035.5 c 128,-1,61
 1002 1009 1002 1009 955.5 967.5 c 128,-1,62
 909 926 909 926 848 865.5 c 128,-1,63
 787 805 787 805 707 723 c 1,64,-1
 1229 79 l 2,65,66
 1246 59 1246 59 1263.5 52 c 128,-1,67
 1281 45 1281 45 1312 42 c 1,68,-1
 1312 0 l 1,0,-1
EndSplineSet
EndChar

StartChar: L
Encoding: 76 76 500
Width: 1138
Flags: W
LayerCount: 2
Fore
SplineSet
1019 0 m 1,0,-1
 32 0 l 1,1,-1
 32 42 l 1,2,3
 79 48 79 48 107.5 55 c 128,-1,4
 136 62 136 62 152 75.5 c 128,-1,5
 168 89 168 89 173.5 110 c 128,-1,6
 179 131 179 131 179 164 c 2,7,-1
 179 990 l 2,8,9
 179 1022 179 1022 172.5 1044.5 c 128,-1,10
 166 1067 166 1067 149 1080.5 c 128,-1,11
 132 1094 132 1094 104 1100.5 c 128,-1,12
 76 1107 76 1107 32 1111 c 1,13,-1
 32 1153 l 1,14,-1
 629 1153 l 1,15,-1
 629 1111 l 1,16,17
 572 1107 572 1107 538.5 1100.5 c 128,-1,18
 505 1094 505 1094 486 1077 c 128,-1,19
 467 1060 467 1060 461.5 1030.5 c 128,-1,20
 456 1001 456 1001 456 953 c 2,21,-1
 456 148 l 2,22,23
 456 120 456 120 463 102.5 c 128,-1,24
 470 85 470 85 485.5 73.5 c 128,-1,25
 501 62 501 62 526.5 57.5 c 128,-1,26
 552 53 552 53 591 53 c 0,27,28
 692 53 692 53 764 76 c 128,-1,29
 836 99 836 99 889 147 c 0,30,31
 911 168 911 168 929.5 189.5 c 128,-1,32
 948 211 948 211 965.5 238 c 128,-1,33
 983 265 983 265 1000.5 301 c 128,-1,34
 1018 337 1018 337 1039 388 c 1,35,-1
 1089 388 l 1,36,-1
 1019 0 l 1,0,-1
EndSplineSet
EndChar

StartChar: M
Encoding: 77 77 501
Width: 1610
Flags: W
LayerCount: 2
Fore
SplineSet
727 0 m 1,0,-1
 680 0 l 1,1,-1
 251 1013 l 1,2,-1
 251 212 l 2,3,4
 251 165 251 165 258.5 134.5 c 128,-1,5
 266 104 266 104 285 84.5 c 128,-1,6
 304 65 304 65 337.5 55.5 c 128,-1,7
 371 46 371 46 423 42 c 1,8,-1
 423 0 l 1,9,-1
 25 0 l 1,10,-1
 25 42 l 1,11,12
 75 48 75 48 105 55 c 128,-1,13
 135 62 135 62 151.5 77 c 128,-1,14
 168 92 168 92 173.5 116.5 c 128,-1,15
 179 141 179 141 179 179 c 2,16,-1
 179 990 l 2,17,18
 179 1023 179 1023 173 1045 c 128,-1,19
 167 1067 167 1067 150.5 1080 c 128,-1,20
 134 1093 134 1093 104.5 1099.5 c 128,-1,21
 75 1106 75 1106 28 1111 c 1,22,-1
 28 1153 l 1,23,-1
 458 1153 l 1,24,-1
 801 348 l 1,25,-1
 1140 1153 l 1,26,-1
 1571 1153 l 1,27,-1
 1571 1111 l 1,28,29
 1524 1107 1524 1107 1495.5 1099 c 128,-1,30
 1467 1091 1467 1091 1450 1074.5 c 128,-1,31
 1433 1058 1433 1058 1427.5 1029 c 128,-1,32
 1422 1000 1422 1000 1422 953 c 2,33,-1
 1422 199 l 2,34,35
 1422 154 1422 154 1426.5 126.5 c 128,-1,36
 1431 99 1431 99 1446 82.5 c 128,-1,37
 1461 66 1461 66 1491 57.5 c 128,-1,38
 1521 49 1521 49 1571 42 c 1,39,-1
 1571 0 l 1,40,-1
 1004 0 l 1,41,-1
 1004 42 l 1,42,43
 1052 47 1052 47 1082 54 c 128,-1,44
 1112 61 1112 61 1129 75 c 128,-1,45
 1146 89 1146 89 1151.5 111.5 c 128,-1,46
 1157 134 1157 134 1157 170 c 2,47,-1
 1157 1039 l 1,48,-1
 727 0 l 1,0,-1
EndSplineSet
EndChar

StartChar: N
Encoding: 78 78 502
Width: 1232
Flags: W
LayerCount: 2
Fore
SplineSet
988 421 m 1,0,-1
 988 941 l 2,1,2
 988 987 988 987 981 1017.5 c 128,-1,3
 974 1048 974 1048 956 1067 c 128,-1,4
 938 1086 938 1086 907 1096 c 128,-1,5
 876 1106 876 1106 829 1111 c 1,6,-1
 829 1153 l 1,7,-1
 1196 1153 l 1,8,-1
 1196 1111 l 1,9,10
 1156 1105 1156 1105 1130 1096 c 128,-1,11
 1104 1087 1104 1087 1089.5 1072.5 c 128,-1,12
 1075 1058 1075 1058 1069 1034 c 128,-1,13
 1063 1010 1063 1010 1063 974 c 2,14,-1
 1063 -30 l 1,15,-1
 1016 -30 l 1,16,-1
 253 897 l 1,17,-1
 253 212 l 2,18,19
 253 167 253 167 259.5 137 c 128,-1,20
 266 107 266 107 284.5 88 c 128,-1,21
 303 69 303 69 334 58.5 c 128,-1,22
 365 48 365 48 415 42 c 1,23,-1
 415 0 l 1,24,-1
 28 0 l 1,25,-1
 28 42 l 1,26,27
 75 48 75 48 103.5 56.5 c 128,-1,28
 132 65 132 65 149 80.5 c 128,-1,29
 166 96 166 96 171.5 119 c 128,-1,30
 177 142 177 142 177 179 c 2,31,-1
 177 988 l 1,32,33
 147 1024 147 1024 125.5 1048 c 128,-1,34
 104 1072 104 1072 87 1085.5 c 128,-1,35
 70 1099 70 1099 57.5 1105 c 128,-1,36
 45 1111 45 1111 32 1111 c 1,37,-1
 32 1153 l 1,38,-1
 392 1153 l 1,39,-1
 988 421 l 1,0,-1
EndSplineSet
EndChar

StartChar: O
Encoding: 79 79 503
Width: 1327
Flags: W
LayerCount: 2
Fore
SplineSet
670 1179 m 0,0,1
 799 1179 799 1179 908.5 1133.5 c 128,-1,2
 1018 1088 1018 1088 1098 1007 c 128,-1,3
 1178 926 1178 926 1223 815 c 128,-1,4
 1268 704 1268 704 1268 573 c 0,5,6
 1268 441 1268 441 1223.5 329.5 c 128,-1,7
 1179 218 1179 218 1098.5 138 c 128,-1,8
 1018 58 1018 58 906.5 13 c 128,-1,9
 795 -32 795 -32 664 -32 c 0,10,11
 531 -32 531 -32 420.5 12.5 c 128,-1,12
 310 57 310 57 229.5 137 c 128,-1,13
 149 217 149 217 104.5 328 c 128,-1,14
 60 439 60 439 60 571 c 0,15,16
 60 705 60 705 105 816 c 128,-1,17
 150 927 150 927 231.5 1008 c 128,-1,18
 313 1089 313 1089 424.5 1134 c 128,-1,19
 536 1179 536 1179 670 1179 c 0,0,1
669 1123 m 0,20,21
 519 1123 519 1123 440.5 977.5 c 128,-1,22
 362 832 362 832 362 556 c 0,23,24
 362 297 362 297 439.5 161 c 128,-1,25
 517 25 517 25 664 25 c 0,26,27
 812 25 812 25 888.5 161 c 128,-1,28
 965 297 965 297 965 561 c 0,29,30
 965 695 965 695 945 799 c 128,-1,31
 925 903 925 903 887.5 975.5 c 128,-1,32
 850 1048 850 1048 795 1085.5 c 128,-1,33
 740 1123 740 1123 669 1123 c 0,20,21
EndSplineSet
EndChar

StartChar: P
Encoding: 80 80 504
Width: 1042
Flags: W
LayerCount: 2
Fore
SplineSet
447 199 m 2,0,1
 447 153 447 153 451.5 125 c 128,-1,2
 456 97 456 97 472 81 c 128,-1,3
 488 65 488 65 517.5 57 c 128,-1,4
 547 49 547 49 597 42 c 1,5,-1
 597 0 l 1,6,-1
 28 0 l 1,7,-1
 28 42 l 1,8,9
 41 45 41 45 53 47 c 128,-1,10
 65 49 65 49 69 49 c 0,11,12
 98 53 98 53 117.5 62 c 128,-1,13
 137 71 137 71 148.5 88.5 c 128,-1,14
 160 106 160 106 165 133 c 128,-1,15
 170 160 170 160 170 199 c 2,16,-1
 170 953 l 2,17,18
 170 999 170 999 165 1027 c 128,-1,19
 160 1055 160 1055 144 1072.5 c 128,-1,20
 128 1090 128 1090 100 1098 c 128,-1,21
 72 1106 72 1106 28 1111 c 1,22,-1
 28 1153 l 1,23,-1
 577 1153 l 2,24,25
 684 1153 684 1153 767 1132 c 128,-1,26
 850 1111 850 1111 907 1071.5 c 128,-1,27
 964 1032 964 1032 994 975 c 128,-1,28
 1024 918 1024 918 1024 843 c 0,29,30
 1024 744 1024 744 969 669.5 c 128,-1,31
 914 595 914 595 811 555 c 0,32,33
 782 543 782 543 754.5 536 c 128,-1,34
 727 529 727 529 687.5 525 c 128,-1,35
 648 521 648 521 590.5 519.5 c 128,-1,36
 533 518 533 518 447 518 c 1,37,-1
 447 199 l 2,0,1
447 577 m 1,38,39
 492 577 492 577 526.5 579 c 128,-1,40
 561 581 561 581 586.5 587 c 128,-1,41
 612 593 612 593 631 602 c 128,-1,42
 650 611 650 611 666 624 c 0,43,44
 698 653 698 653 714.5 703 c 128,-1,45
 731 753 731 753 731 834 c 0,46,47
 731 903 731 903 720 952 c 128,-1,48
 709 1001 709 1001 684.5 1032.5 c 128,-1,49
 660 1064 660 1064 623 1079 c 128,-1,50
 586 1094 586 1094 532 1094 c 0,51,52
 447 1094 447 1094 447 1034 c 2,53,-1
 447 577 l 1,38,39
EndSplineSet
EndChar

StartChar: Q
Encoding: 81 81 505
Width: 1327
Flags: W
LayerCount: 2
Fore
SplineSet
1255 -241 m 1,0,1
 1208 -258 1208 -258 1169 -269.5 c 128,-1,2
 1130 -281 1130 -281 1094.5 -287.5 c 128,-1,3
 1059 -294 1059 -294 1024.5 -297.5 c 128,-1,4
 990 -301 990 -301 951 -301 c 0,5,6
 838 -301 838 -301 735.5 -262 c 128,-1,7
 633 -223 633 -223 561 -150 c 0,8,9
 547 -135 547 -135 535 -121 c 128,-1,10
 523 -107 523 -107 512 -90.5 c 128,-1,11
 501 -74 501 -74 490.5 -53 c 128,-1,12
 480 -32 480 -32 465 -2 c 1,13,14
 417 15 417 15 381 31 c 128,-1,15
 345 47 345 47 316 65 c 128,-1,16
 287 83 287 83 262.5 105 c 128,-1,17
 238 127 238 127 212 157 c 0,18,19
 137 239 137 239 98.5 343.5 c 128,-1,20
 60 448 60 448 60 565 c 0,21,22
 60 697 60 697 105.5 810 c 128,-1,23
 151 923 151 923 231.5 1005 c 128,-1,24
 312 1087 312 1087 422.5 1133 c 128,-1,25
 533 1179 533 1179 664 1179 c 256,26,27
 795 1179 795 1179 906 1133.5 c 128,-1,28
 1017 1088 1017 1088 1097.5 1007 c 128,-1,29
 1178 926 1178 926 1223 814.5 c 128,-1,30
 1268 703 1268 703 1268 569 c 0,31,32
 1268 444 1268 444 1227 337 c 128,-1,33
 1186 230 1186 230 1107 147 c 0,34,35
 1080 117 1080 117 1053.5 95 c 128,-1,36
 1027 73 1027 73 996 55.5 c 128,-1,37
 965 38 965 38 927 22.5 c 128,-1,38
 889 7 889 7 836 -10 c 1,39,40
 848 -33 848 -33 857 -51 c 128,-1,41
 866 -69 866 -69 875.5 -82.5 c 128,-1,42
 885 -96 885 -96 894.5 -107.5 c 128,-1,43
 904 -119 904 -119 916 -131 c 0,44,45
 961 -176 961 -176 1016 -198 c 128,-1,46
 1071 -220 1071 -220 1131 -220 c 0,47,48
 1156 -220 1156 -220 1180 -215.5 c 128,-1,49
 1204 -211 1204 -211 1246 -199 c 1,50,-1
 1255 -241 l 1,0,1
666 1123 m 0,51,52
 591 1123 591 1123 535.5 1086.5 c 128,-1,53
 480 1050 480 1050 441 979 c 128,-1,54
 402 908 402 908 382 803 c 128,-1,55
 362 698 362 698 362 565 c 0,56,57
 362 296 362 296 438 160.5 c 128,-1,58
 514 25 514 25 664 25 c 0,59,60
 812 25 812 25 888.5 161 c 128,-1,61
 965 297 965 297 965 563 c 0,62,63
 965 697 965 697 945 800.5 c 128,-1,64
 925 904 925 904 887 976 c 128,-1,65
 849 1048 849 1048 793 1085.5 c 128,-1,66
 737 1123 737 1123 666 1123 c 0,51,52
EndSplineSet
EndChar

StartChar: R
Encoding: 82 82 506
Width: 1232
Flags: W
LayerCount: 2
Fore
SplineSet
1219 0 m 1,0,-1
 870 0 l 1,1,-1
 518 534 l 1,2,-1
 471 534 l 1,3,-1
 471 199 l 2,4,5
 471 154 471 154 475.5 126.5 c 128,-1,6
 480 99 480 99 495.5 82.5 c 128,-1,7
 511 66 511 66 540.5 57.5 c 128,-1,8
 570 49 570 49 620 42 c 1,9,-1
 620 0 l 1,10,-1
 45 0 l 1,11,-1
 45 42 l 1,12,13
 95 48 95 48 124.5 55.5 c 128,-1,14
 154 63 154 63 169.5 79.5 c 128,-1,15
 185 96 185 96 189.5 124.5 c 128,-1,16
 194 153 194 153 194 199 c 2,17,-1
 194 953 l 2,18,19
 194 1000 194 1000 188.5 1029 c 128,-1,20
 183 1058 183 1058 166.5 1074.5 c 128,-1,21
 150 1091 150 1091 120.5 1099 c 128,-1,22
 91 1107 91 1107 45 1111 c 1,23,-1
 45 1153 l 1,24,-1
 595 1153 l 2,25,26
 829 1153 829 1153 952 1075.5 c 128,-1,27
 1075 998 1075 998 1075 850 c 0,28,29
 1075 792 1075 792 1055 742.5 c 128,-1,30
 1035 693 1035 693 998 659 c 0,31,32
 980 642 980 642 962 629.5 c 128,-1,33
 944 617 944 617 922.5 606 c 128,-1,34
 901 595 901 595 873 584 c 128,-1,35
 845 573 845 573 808 561 c 1,36,-1
 1149 75 l 2,37,38
 1176 42 1176 42 1219 42 c 1,39,-1
 1219 0 l 1,0,-1
471 589 m 1,40,41
 519 590 519 590 555 592.5 c 128,-1,42
 591 595 591 595 618.5 600.5 c 128,-1,43
 646 606 646 606 666 613 c 128,-1,44
 686 620 686 620 703 631 c 0,45,46
 744 659 744 659 763.5 710 c 128,-1,47
 783 761 783 761 783 843 c 0,48,49
 783 978 783 978 731.5 1037 c 128,-1,50
 680 1096 680 1096 563 1096 c 0,51,52
 498 1096 498 1096 483 1069 c 0,53,54
 479 1061 479 1061 475 1046.5 c 128,-1,55
 471 1032 471 1032 471 1024 c 2,56,-1
 471 589 l 1,40,41
EndSplineSet
EndChar

StartChar: S
Encoding: 83 83 507
Width: 949
Flags: W
LayerCount: 2
Fore
SplineSet
778 811 m 1,0,1
 765 852 765 852 753 883 c 128,-1,2
 741 914 741 914 727.5 939 c 128,-1,3
 714 964 714 964 697 986 c 128,-1,4
 680 1008 680 1008 659 1030 c 0,5,6
 565 1126 565 1126 449 1126 c 0,7,8
 361 1126 361 1126 311 1080.5 c 128,-1,9
 261 1035 261 1035 261 955 c 0,10,11
 261 925 261 925 268.5 900.5 c 128,-1,12
 276 876 276 876 296.5 854 c 128,-1,13
 317 832 317 832 350.5 809.5 c 128,-1,14
 384 787 384 787 437 763 c 2,15,-1
 687 638 l 2,16,17
 728 617 728 617 762 584.5 c 128,-1,18
 796 552 796 552 821 511 c 128,-1,19
 846 470 846 470 860.5 422.5 c 128,-1,20
 875 375 875 375 875 327 c 0,21,22
 875 247 875 247 844.5 181 c 128,-1,23
 814 115 814 115 758.5 67 c 128,-1,24
 703 19 703 19 625 -6.5 c 128,-1,25
 547 -32 547 -32 453 -32 c 0,26,27
 399 -32 399 -32 346.5 -23 c 128,-1,28
 294 -14 294 -14 230 8 c 0,29,30
 202 18 202 18 187 22 c 128,-1,31
 172 26 172 26 160 26 c 0,32,33
 140 26 140 26 128.5 12.5 c 128,-1,34
 117 -1 117 -1 109 -32 c 1,35,-1
 60 -32 l 1,36,-1
 60 390 l 1,37,-1
 109 390 l 1,38,39
 119 344 119 344 130 310 c 128,-1,40
 141 276 141 276 152.5 248.5 c 128,-1,41
 164 221 164 221 178 197.5 c 128,-1,42
 192 174 192 174 207 150 c 0,43,44
 306 25 306 25 458 25 c 0,45,46
 507 25 507 25 546.5 38.5 c 128,-1,47
 586 52 586 52 614 78 c 128,-1,48
 642 104 642 104 657.5 139.5 c 128,-1,49
 673 175 673 175 673 218 c 0,50,51
 673 252 673 252 664 278 c 128,-1,52
 655 304 655 304 633.5 327.5 c 128,-1,53
 612 351 612 351 574.5 374.5 c 128,-1,54
 537 398 537 398 481 423 c 2,55,-1
 366 478 l 2,56,57
 291 514 291 514 235.5 552 c 128,-1,58
 180 590 180 590 144.5 634 c 128,-1,59
 109 678 109 678 92 727 c 128,-1,60
 75 776 75 776 75 832 c 0,61,62
 75 912 75 912 100.5 976.5 c 128,-1,63
 126 1041 126 1041 175 1086 c 128,-1,64
 224 1131 224 1131 293 1155 c 128,-1,65
 362 1179 362 1179 449 1179 c 0,66,67
 473 1179 473 1179 496 1177 c 128,-1,68
 519 1175 519 1175 543 1170.5 c 128,-1,69
 567 1166 567 1166 592.5 1158.5 c 128,-1,70
 618 1151 618 1151 648 1140 c 0,71,72
 676 1131 676 1131 692.5 1127 c 128,-1,73
 709 1123 709 1123 719 1123 c 0,74,75
 742 1123 742 1123 753.5 1135 c 128,-1,76
 765 1147 765 1147 774 1179 c 1,77,-1
 825 1179 l 1,78,-1
 825 811 l 1,79,-1
 778 811 l 1,0,1
EndSplineSet
EndChar

StartChar: T
Encoding: 84 84 508
Width: 1138
Flags: W
LayerCount: 2
Fore
SplineSet
431 1098 m 1,0,1
 352 1096 352 1096 294.5 1079 c 128,-1,2
 237 1062 237 1062 198.5 1027.5 c 128,-1,3
 160 993 160 993 137 940.5 c 128,-1,4
 114 888 114 888 104 811 c 1,5,-1
 53 811 l 1,6,-1
 58 1153 l 1,7,-1
 1081 1153 l 1,8,-1
 1086 811 l 1,9,-1
 1036 811 l 1,10,11
 1025 888 1025 888 1002 940.5 c 128,-1,12
 979 993 979 993 940 1027.5 c 128,-1,13
 901 1062 901 1062 844 1079 c 128,-1,14
 787 1096 787 1096 707 1098 c 1,15,-1
 707 199 l 2,16,17
 707 151 707 151 712.5 121.5 c 128,-1,18
 718 92 718 92 735.5 76 c 128,-1,19
 753 60 753 60 786.5 53 c 128,-1,20
 820 46 820 46 875 42 c 1,21,-1
 875 0 l 1,22,-1
 266 0 l 1,23,-1
 266 42 l 1,24,25
 322 47 322 47 355 54.5 c 128,-1,26
 388 62 388 62 404.5 79 c 128,-1,27
 421 96 421 96 426 124.5 c 128,-1,28
 431 153 431 153 431 199 c 2,29,-1
 431 1098 l 1,0,1
EndSplineSet
EndChar

StartChar: U
Encoding: 85 85 509
Width: 1232
Flags: W
LayerCount: 2
Fore
SplineSet
1063 421 m 2,0,1
 1063 302 1063 302 1031.5 209.5 c 128,-1,2
 1000 117 1000 117 941 69 c 0,3,4
 885 20 885 20 801.5 -6 c 128,-1,5
 718 -32 718 -32 624 -32 c 0,6,7
 528 -32 528 -32 449 -10 c 128,-1,8
 370 12 370 12 308 58 c 0,9,10
 268 87 268 87 241.5 117.5 c 128,-1,11
 215 148 215 148 199 186 c 128,-1,12
 183 224 183 224 175.5 273 c 128,-1,13
 168 322 168 322 168 384 c 2,14,-1
 168 953 l 2,15,16
 168 1000 168 1000 163 1028.5 c 128,-1,17
 158 1057 158 1057 142.5 1073.5 c 128,-1,18
 127 1090 127 1090 99.5 1098 c 128,-1,19
 72 1106 72 1106 28 1111 c 1,20,-1
 28 1153 l 1,21,-1
 604 1153 l 1,22,-1
 604 1111 l 1,23,24
 573 1109 573 1109 552 1107.5 c 128,-1,25
 531 1106 531 1106 516 1102 c 128,-1,26
 501 1098 501 1098 491.5 1093.5 c 128,-1,27
 482 1089 482 1089 474 1082 c 0,28,29
 454 1066 454 1066 446 1036 c 128,-1,30
 438 1006 438 1006 438 953 c 2,31,-1
 438 384 l 2,32,33
 438 209 438 209 498 130 c 128,-1,34
 558 51 558 51 688 51 c 0,35,36
 841 51 841 51 914.5 141.5 c 128,-1,37
 988 232 988 232 988 421 c 2,38,-1
 988 941 l 2,39,40
 988 988 988 988 980.5 1019 c 128,-1,41
 973 1050 973 1050 954 1069 c 128,-1,42
 935 1088 935 1088 903 1097 c 128,-1,43
 871 1106 871 1106 821 1111 c 1,44,-1
 821 1153 l 1,45,-1
 1196 1153 l 1,46,-1
 1196 1111 l 1,47,48
 1156 1105 1156 1105 1130 1095.5 c 128,-1,49
 1104 1086 1104 1086 1089.5 1069.5 c 128,-1,50
 1075 1053 1075 1053 1069 1028.5 c 128,-1,51
 1063 1004 1063 1004 1063 965 c 2,52,-1
 1063 421 l 2,0,1
EndSplineSet
EndChar

StartChar: V
Encoding: 86 86 510
Width: 1232
Flags: W
LayerCount: 2
Fore
SplineSet
1196 1111 m 1,0,1
 1164 1106 1164 1106 1141 1098 c 128,-1,2
 1118 1090 1118 1090 1101.5 1075 c 128,-1,3
 1085 1060 1085 1060 1071.5 1034.5 c 128,-1,4
 1058 1009 1058 1009 1042 970 c 2,5,-1
 653 -30 l 1,6,-1
 607 -30 l 1,7,-1
 170 991 l 2,8,9
 155 1026 155 1026 142.5 1047.5 c 128,-1,10
 130 1069 130 1069 115 1082 c 128,-1,11
 100 1095 100 1095 80 1100.5 c 128,-1,12
 60 1106 60 1106 28 1111 c 1,13,-1
 28 1153 l 1,14,-1
 600 1153 l 1,15,-1
 600 1111 l 1,16,17
 581 1108 581 1108 566 1107.5 c 128,-1,18
 551 1107 551 1107 544 1107 c 0,19,20
 494 1105 494 1105 474 1090.5 c 128,-1,21
 454 1076 454 1076 454 1046 c 0,22,23
 454 1036 454 1036 455.5 1026.5 c 128,-1,24
 457 1017 457 1017 461 1003.5 c 128,-1,25
 465 990 465 990 473 971 c 128,-1,26
 481 952 481 952 492 923 c 2,27,-1
 728 353 l 1,28,-1
 945 914 l 2,29,30
 957 942 957 942 963.5 960.5 c 128,-1,31
 970 979 970 979 974 992.5 c 128,-1,32
 978 1006 978 1006 979 1015.5 c 128,-1,33
 980 1025 980 1025 980 1036 c 0,34,35
 980 1057 980 1057 974.5 1069.5 c 128,-1,36
 969 1082 969 1082 952 1090 c 128,-1,37
 935 1098 935 1098 906 1102.5 c 128,-1,38
 877 1107 877 1107 832 1111 c 1,39,-1
 832 1153 l 1,40,-1
 1196 1153 l 1,41,-1
 1196 1111 l 1,0,1
EndSplineSet
EndChar

StartChar: W
Encoding: 87 87 511
Width: 1706
Flags: W
LayerCount: 2
Fore
SplineSet
1674 1111 m 1,0,1
 1588 1102 1588 1102 1557 1001 c 2,2,-1
 1214 -26 l 1,3,-1
 1169 -26 l 1,4,-1
 877 787 l 1,5,-1
 560 -26 l 1,6,-1
 511 -26 l 1,7,-1
 150 1001 l 2,8,9
 139 1033 139 1033 129 1052.5 c 128,-1,10
 119 1072 119 1072 107 1084 c 128,-1,11
 95 1096 95 1096 77 1101 c 128,-1,12
 59 1106 59 1106 32 1111 c 1,13,-1
 32 1153 l 1,14,-1
 534 1153 l 1,15,-1
 534 1111 l 1,16,17
 501 1107 501 1107 479.5 1102.5 c 128,-1,18
 458 1098 458 1098 446 1090 c 128,-1,19
 434 1082 434 1082 429 1070 c 128,-1,20
 424 1058 424 1058 424 1039 c 0,21,22
 424 1028 424 1028 427 1015 c 128,-1,23
 430 1002 430 1002 437 983 c 2,24,-1
 641 362 l 1,25,-1
 843 888 l 1,26,-1
 783 1051 l 2,27,28
 769 1081 769 1081 741.5 1094.5 c 128,-1,29
 714 1108 714 1108 660 1111 c 1,30,-1
 660 1153 l 1,31,-1
 1193 1153 l 1,32,-1
 1193 1111 l 1,33,34
 1185 1108 1185 1108 1179.5 1108 c 128,-1,35
 1174 1108 1174 1108 1170 1108 c 0,36,37
 1115 1105 1115 1105 1092 1091.5 c 128,-1,38
 1069 1078 1069 1078 1069 1047 c 0,39,40
 1069 1036 1069 1036 1074.5 1014.5 c 128,-1,41
 1080 993 1080 993 1094 953 c 2,42,-1
 1277 380 l 1,43,-1
 1469 963 l 2,44,45
 1477 982 1477 982 1479 1000.5 c 128,-1,46
 1481 1019 1481 1019 1481 1036 c 0,47,48
 1481 1055 1481 1055 1475.5 1068.5 c 128,-1,49
 1470 1082 1470 1082 1456.5 1090.5 c 128,-1,50
 1443 1099 1443 1099 1420.5 1103.5 c 128,-1,51
 1398 1108 1398 1108 1363 1111 c 1,52,-1
 1363 1153 l 1,53,-1
 1674 1153 l 1,54,-1
 1674 1111 l 1,0,1
EndSplineSet
EndChar

StartChar: X
Encoding: 88 88 512
Width: 1232
Flags: W
LayerCount: 2
Fore
SplineSet
1174 1111 m 1,0,1
 1126 1106 1126 1106 1091.5 1095.5 c 128,-1,2
 1057 1085 1057 1085 1022.5 1058.5 c 128,-1,3
 988 1032 988 1032 948.5 985 c 128,-1,4
 909 938 909 938 853 862 c 2,5,-1
 716 673 l 1,6,-1
 1027 189 l 2,7,8
 1058 143 1058 143 1079 115 c 128,-1,9
 1100 87 1100 87 1118.5 71 c 128,-1,10
 1137 55 1137 55 1153.5 49 c 128,-1,11
 1170 43 1170 43 1193 42 c 1,12,-1
 1193 0 l 1,13,-1
 612 0 l 1,14,-1
 612 42 l 1,15,16
 629 45 629 45 642 45.5 c 128,-1,17
 655 46 655 46 660 46 c 0,18,19
 748 50 748 50 748 95 c 0,20,21
 748 108 748 108 738.5 134 c 128,-1,22
 729 160 729 160 714 186 c 2,23,-1
 541 463 l 1,24,-1
 475 375 l 2,25,26
 428 312 428 312 397 268 c 128,-1,27
 366 224 366 224 348 194.5 c 128,-1,28
 330 165 330 165 322.5 145.5 c 128,-1,29
 315 126 315 126 315 113 c 0,30,31
 315 96 315 96 322.5 84.5 c 128,-1,32
 330 73 330 73 346 65 c 128,-1,33
 362 57 362 57 388.5 51.5 c 128,-1,34
 415 46 415 46 454 42 c 1,35,-1
 454 0 l 1,36,-1
 28 0 l 1,37,-1
 28 42 l 1,38,39
 60 46 60 46 84 52.5 c 128,-1,40
 108 59 108 59 128.5 70 c 128,-1,41
 149 81 149 81 167 98 c 128,-1,42
 185 115 185 115 205 138 c 2,43,-1
 502 514 l 1,44,-1
 166 1011 l 2,45,46
 146 1041 146 1041 131 1059 c 128,-1,47
 116 1077 116 1077 101.5 1087.5 c 128,-1,48
 87 1098 87 1098 70 1103 c 128,-1,49
 53 1108 53 1108 29 1111 c 1,50,-1
 29 1153 l 1,51,-1
 620 1153 l 1,52,-1
 620 1111 l 1,53,54
 602 1108 602 1108 587 1107.5 c 128,-1,55
 572 1107 572 1107 567 1107 c 0,56,57
 519 1105 519 1105 501.5 1093 c 128,-1,58
 484 1081 484 1081 484 1055 c 0,59,60
 484 1047 484 1047 486 1041 c 128,-1,61
 488 1035 488 1035 490 1028 c 128,-1,62
 492 1021 492 1021 496.5 1012.5 c 128,-1,63
 501 1004 501 1004 509 991 c 2,64,-1
 676 736 l 1,65,66
 707 781 707 781 734 817.5 c 128,-1,67
 761 854 761 854 772 866 c 0,68,69
 802 908 802 908 821 935.5 c 128,-1,70
 840 963 840 963 851 983.5 c 128,-1,71
 862 1004 862 1004 866 1018.5 c 128,-1,72
 870 1033 870 1033 870 1047 c 0,73,74
 870 1078 870 1078 851 1091.5 c 128,-1,75
 832 1105 832 1105 782 1107 c 0,76,77
 777 1108 777 1108 767.5 1108 c 128,-1,78
 758 1108 758 1108 747 1111 c 1,79,-1
 747 1153 l 1,80,-1
 1174 1153 l 1,81,-1
 1174 1111 l 1,0,1
EndSplineSet
EndChar

StartChar: Y
Encoding: 89 89 513
Width: 1232
Flags: W
LayerCount: 2
Fore
SplineSet
1193 1111 m 1,0,1
 1149 1105 1149 1105 1122.5 1088.5 c 128,-1,2
 1096 1072 1096 1072 1076 1043 c 2,3,-1
 751 514 l 1,4,-1
 751 199 l 2,5,6
 751 153 751 153 756 124.5 c 128,-1,7
 761 96 761 96 777 79 c 128,-1,8
 793 62 793 62 824 55 c 128,-1,9
 855 48 855 48 908 42 c 1,10,-1
 908 0 l 1,11,-1
 315 0 l 1,12,-1
 315 42 l 1,13,14
 369 48 369 48 400 55 c 128,-1,15
 431 62 431 62 447.5 79 c 128,-1,16
 464 96 464 96 469 124.5 c 128,-1,17
 474 153 474 153 474 199 c 2,18,-1
 474 451 l 1,19,-1
 163 1017 l 2,20,21
 137 1060 137 1060 103.5 1084 c 128,-1,22
 70 1108 70 1108 26 1111 c 1,23,-1
 26 1153 l 1,24,-1
 597 1153 l 1,25,-1
 597 1111 l 1,26,-1
 555 1108 l 2,27,28
 501 1108 501 1108 479.5 1097 c 128,-1,29
 458 1086 458 1086 458 1058 c 0,30,31
 458 1043 458 1043 464.5 1026 c 128,-1,32
 471 1009 471 1009 490 978 c 0,33,34
 492 973 492 973 493 970 c 0,35,36
 497 965 497 965 498 962.5 c 128,-1,37
 499 960 499 960 500 957 c 2,38,-1
 705 561 l 1,39,-1
 893 877 l 2,40,41
 925 930 925 930 943 972 c 128,-1,42
 961 1014 961 1014 961 1039 c 0,43,44
 961 1058 961 1058 954.5 1069.5 c 128,-1,45
 948 1081 948 1081 931.5 1089.5 c 128,-1,46
 915 1098 915 1098 887 1102.5 c 128,-1,47
 859 1107 859 1107 817 1111 c 1,48,-1
 817 1153 l 1,49,-1
 1193 1153 l 1,50,-1
 1193 1111 l 1,0,1
EndSplineSet
EndChar

StartChar: Z
Encoding: 90 90 514
Width: 1138
Flags: W
LayerCount: 2
Fore
SplineSet
1037 0 m 1,0,-1
 47 0 l 1,1,-1
 47 28 l 1,2,-1
 700 1094 l 1,3,4
 652 1091 652 1091 612.5 1090.5 c 128,-1,5
 573 1090 573 1090 558 1089 c 0,6,7
 463 1089 463 1089 399 1078.5 c 128,-1,8
 335 1068 335 1068 289.5 1036 c 128,-1,9
 244 1004 244 1004 211 947.5 c 128,-1,10
 178 891 178 891 148 803 c 1,11,-1
 100 803 l 1,12,-1
 136 1153 l 1,13,-1
 1030 1153 l 1,14,-1
 1030 1126 l 1,15,-1
 384 60 l 1,16,-1
 509 60 l 2,17,18
 571 60 571 60 627.5 64.5 c 128,-1,19
 684 69 684 69 730.5 78 c 128,-1,20
 777 87 777 87 813.5 98.5 c 128,-1,21
 850 110 850 110 872 126 c 0,22,23
 902 147 902 147 925.5 172 c 128,-1,24
 949 197 949 197 968 229.5 c 128,-1,25
 987 262 987 262 1003 306.5 c 128,-1,26
 1019 351 1019 351 1037 411 c 1,27,-1
 1081 411 l 1,28,-1
 1037 0 l 1,0,-1
EndSplineSet
EndChar

StartChar: a
Encoding: 97 97 515
Width: 853
Flags: W
LayerCount: 2
Fore
SplineSet
832 73 m 1,0,1
 784 20 784 20 740 -2.5 c 128,-1,2
 696 -25 696 -25 641 -25 c 0,3,4
 578 -25 578 -25 547 2 c 128,-1,5
 516 29 516 29 501 96 c 1,6,7
 431 31 431 31 368 3 c 128,-1,8
 305 -25 305 -25 232 -25 c 0,9,10
 192 -25 192 -25 157 -11.5 c 128,-1,11
 122 2 122 2 96 26.5 c 128,-1,12
 70 51 70 51 56 84 c 128,-1,13
 42 117 42 117 42 157 c 0,14,15
 42 213 42 213 69 257 c 128,-1,16
 96 301 96 301 151 340 c 0,17,18
 176 356 176 356 204.5 370.5 c 128,-1,19
 233 385 233 385 273.5 401.5 c 128,-1,20
 314 418 314 418 369.5 436 c 128,-1,21
 425 454 425 454 501 478 c 1,22,-1
 501 603 l 2,23,24
 501 682 501 682 467 717.5 c 128,-1,25
 433 753 433 753 358 753 c 0,26,27
 313 753 313 753 282 734 c 128,-1,28
 251 715 251 715 251 688 c 0,29,30
 251 682 251 682 255 674 c 128,-1,31
 259 666 259 666 271 652 c 0,32,33
 286 631 286 631 294 614 c 128,-1,34
 302 597 302 597 302 578 c 0,35,36
 302 534 302 534 269.5 507 c 128,-1,37
 237 480 237 480 186 480 c 0,38,39
 134 480 134 480 104.5 509.5 c 128,-1,40
 75 539 75 539 75 591 c 0,41,42
 75 640 75 640 98.5 679.5 c 128,-1,43
 122 719 122 719 164 747.5 c 128,-1,44
 206 776 206 776 265 792 c 128,-1,45
 324 808 324 808 398 808 c 0,46,47
 475 808 475 808 537.5 791 c 128,-1,48
 600 774 600 774 644 744 c 128,-1,49
 688 714 688 714 712 670.5 c 128,-1,50
 736 627 736 627 736 573 c 2,51,-1
 736 128 l 2,52,53
 736 86 736 86 772 86 c 0,54,55
 784 86 784 86 791 92 c 2,56,-1
 808 109 l 1,57,-1
 832 73 l 1,0,1
500 419 m 1,58,59
 398 391 398 391 345 338.5 c 128,-1,60
 292 286 292 286 292 212 c 0,61,62
 292 160 292 160 316 128.5 c 128,-1,63
 340 97 340 97 380 97 c 0,64,65
 410 97 410 97 437.5 113.5 c 128,-1,66
 465 130 465 130 500 170 c 1,67,-1
 500 419 l 1,58,59
EndSplineSet
EndChar

StartChar: b
Encoding: 98 98 516
Width: 949
Flags: W
LayerCount: 2
Fore
SplineSet
360 712 m 1,0,1
 408 762 408 762 457.5 785 c 128,-1,2
 507 808 507 808 569 808 c 0,3,4
 639 808 639 808 698 778 c 128,-1,5
 757 748 757 748 799.5 695.5 c 128,-1,6
 842 643 842 643 865.5 570 c 128,-1,7
 889 497 889 497 889 408 c 0,8,9
 889 312 889 312 860.5 232.5 c 128,-1,10
 832 153 832 153 781.5 96 c 128,-1,11
 731 39 731 39 659.5 7 c 128,-1,12
 588 -25 588 -25 502 -25 c 0,13,14
 471 -25 471 -25 443.5 -19.5 c 128,-1,15
 416 -14 416 -14 389 -2 c 128,-1,16
 362 10 362 10 335 28.5 c 128,-1,17
 308 47 308 47 278 73 c 1,18,-1
 143 -23 l 1,19,-1
 122 -23 l 1,20,-1
 122 1013 l 2,21,22
 122 1039 122 1039 119 1055 c 128,-1,23
 116 1071 116 1071 106 1082 c 128,-1,24
 96 1093 96 1093 77.5 1099.5 c 128,-1,25
 59 1106 59 1106 29 1112 c 1,26,-1
 29 1153 l 1,27,-1
 360 1153 l 1,28,-1
 360 712 l 1,0,1
360 166 m 2,29,30
 360 104 360 104 391.5 67 c 128,-1,31
 423 30 423 30 478 30 c 0,32,33
 561 30 561 30 599.5 114 c 128,-1,34
 638 198 638 198 638 377 c 0,35,36
 638 714 638 714 480 714 c 0,37,38
 437 714 437 714 409.5 691 c 128,-1,39
 382 668 382 668 360 614 c 1,40,-1
 360 166 l 2,29,30
EndSplineSet
EndChar

StartChar: c
Encoding: 99 99 517
Width: 757
Flags: W
LayerCount: 2
Fore
SplineSet
734 155 m 1,0,1
 697 108 697 108 659.5 74 c 128,-1,2
 622 40 622 40 582.5 18.5 c 128,-1,3
 543 -3 543 -3 500 -14 c 128,-1,4
 457 -25 457 -25 408 -25 c 0,5,6
 329 -25 329 -25 262 5.5 c 128,-1,7
 195 36 195 36 146 89.5 c 128,-1,8
 97 143 97 143 69.5 217.5 c 128,-1,9
 42 292 42 292 42 381 c 0,10,11
 42 472 42 472 73 550.5 c 128,-1,12
 104 629 104 629 157.5 686 c 128,-1,13
 211 743 211 743 285 775.5 c 128,-1,14
 359 808 359 808 446 808 c 0,15,16
 501 808 501 808 550 793 c 128,-1,17
 599 778 599 778 634 752.5 c 128,-1,18
 669 727 669 727 689.5 693 c 128,-1,19
 710 659 710 659 710 620 c 0,20,21
 710 569 710 569 679 540 c 128,-1,22
 648 511 648 511 595 511 c 0,23,24
 501 511 501 511 498 635 c 0,25,26
 498 662 498 662 498 677 c 128,-1,27
 498 692 498 692 497.5 699.5 c 128,-1,28
 497 707 497 707 494.5 711 c 128,-1,29
 492 715 492 715 490 722 c 0,30,31
 482 736 482 736 464.5 745 c 128,-1,32
 447 754 447 754 427 754 c 0,33,34
 393 754 393 754 366.5 734 c 128,-1,35
 340 714 340 714 321.5 678 c 128,-1,36
 303 642 303 642 293 589 c 128,-1,37
 283 536 283 536 283 471 c 0,38,39
 283 383 283 383 300.5 313 c 128,-1,40
 318 243 318 243 349.5 194 c 128,-1,41
 381 145 381 145 425.5 118 c 128,-1,42
 470 91 470 91 526 91 c 0,43,44
 552 91 552 91 574 95.5 c 128,-1,45
 596 100 596 100 617 111 c 128,-1,46
 638 122 638 122 658.5 140.5 c 128,-1,47
 679 159 679 159 703 186 c 1,48,-1
 734 155 l 1,0,1
EndSplineSet
EndChar

StartChar: d
Encoding: 100 100 518
Width: 949
Flags: W
LayerCount: 2
Fore
SplineSet
578 88 m 1,0,1
 548 56 548 56 521 34 c 128,-1,2
 494 12 494 12 468 -1 c 128,-1,3
 442 -14 442 -14 413.5 -19.5 c 128,-1,4
 385 -25 385 -25 352 -25 c 0,5,6
 284 -25 284 -25 227 5.5 c 128,-1,7
 170 36 170 36 129 89.5 c 128,-1,8
 88 143 88 143 65 217 c 128,-1,9
 42 291 42 291 42 377 c 0,10,11
 42 470 42 470 67 548.5 c 128,-1,12
 92 627 92 627 135.5 685 c 128,-1,13
 179 743 179 743 239 775.5 c 128,-1,14
 299 808 299 808 370 808 c 0,15,16
 399 808 399 808 424.5 802 c 128,-1,17
 450 796 450 796 474 784 c 128,-1,18
 498 772 498 772 522 751.5 c 128,-1,19
 546 731 546 731 573 702 c 1,20,-1
 573 1013 l 2,21,22
 573 1042 573 1042 569 1060.5 c 128,-1,23
 565 1079 565 1079 551 1089 c 128,-1,24
 537 1099 537 1099 512 1104 c 128,-1,25
 487 1109 487 1109 443 1112 c 1,26,-1
 443 1153 l 1,27,-1
 811 1153 l 1,28,-1
 811 173 l 2,29,30
 811 146 811 146 815.5 127.5 c 128,-1,31
 820 109 820 109 831.5 98 c 128,-1,32
 843 87 843 87 862.5 81.5 c 128,-1,33
 882 76 882 76 911 73 c 1,34,-1
 911 34 l 1,35,-1
 805 20 l 2,36,37
 765 16 765 16 735.5 12 c 128,-1,38
 706 8 706 8 681.5 3 c 128,-1,39
 657 -2 657 -2 632 -8 c 128,-1,40
 607 -14 607 -14 578 -23 c 1,41,-1
 578 88 l 1,0,1
573 606 m 1,42,43
 555 655 555 655 519 683.5 c 128,-1,44
 483 712 483 712 440 712 c 0,45,46
 365 712 365 712 330 634 c 128,-1,47
 295 556 295 556 295 391 c 0,48,49
 295 227 295 227 328 149 c 128,-1,50
 361 71 361 71 428 71 c 0,51,52
 484 71 484 71 536 130 c 0,53,54
 552 147 552 147 562.5 165.5 c 128,-1,55
 573 184 573 184 573 192 c 2,56,-1
 573 606 l 1,42,43
EndSplineSet
EndChar

StartChar: e
Encoding: 101 101 519
Width: 757
Flags: W
LayerCount: 2
Fore
SplineSet
727 189 m 1,0,1
 685 129 685 129 647 88.5 c 128,-1,2
 609 48 609 48 570 23 c 128,-1,3
 531 -2 531 -2 488.5 -13.5 c 128,-1,4
 446 -25 446 -25 394 -25 c 0,5,6
 314 -25 314 -25 249.5 4.5 c 128,-1,7
 185 34 185 34 138.5 88.5 c 128,-1,8
 92 143 92 143 67 219.5 c 128,-1,9
 42 296 42 296 42 390 c 0,10,11
 42 482 42 482 68.5 559 c 128,-1,12
 95 636 95 636 141.5 691.5 c 128,-1,13
 188 747 188 747 254 777.5 c 128,-1,14
 320 808 320 808 399 808 c 0,15,16
 542 808 542 808 629 706 c 0,17,18
 649 683 649 683 663.5 654.5 c 128,-1,19
 678 626 678 626 689.5 591 c 128,-1,20
 701 556 701 556 707.5 514 c 128,-1,21
 714 472 714 472 718 419 c 1,22,-1
 288 419 l 1,23,24
 292 374 292 374 295.5 340 c 128,-1,25
 299 306 299 306 305 279.5 c 128,-1,26
 311 253 311 253 320 231 c 128,-1,27
 329 209 329 209 340 189 c 0,28,29
 366 145 366 145 403.5 122 c 128,-1,30
 441 99 441 99 491 99 c 0,31,32
 518 99 518 99 543 105 c 128,-1,33
 568 111 568 111 591 125 c 128,-1,34
 614 139 614 139 637 161 c 128,-1,35
 660 183 660 183 686 214 c 1,36,-1
 727 189 l 1,0,1
508 481 m 1,37,-1
 508 507 l 2,38,39
 506 572 506 572 503 610.5 c 128,-1,40
 500 649 500 649 492 675 c 0,41,42
 472 754 472 754 399 754 c 0,43,44
 368 754 368 754 346 740.5 c 128,-1,45
 324 727 324 727 310 695 c 128,-1,46
 296 663 296 663 289.5 610.5 c 128,-1,47
 283 558 283 558 280 481 c 1,48,-1
 508 481 l 1,37,-1
EndSplineSet
EndChar

StartChar: f
Encoding: 102 102 520
Width: 569
Flags: W
LayerCount: 2
Fore
SplineSet
25 712 m 1,0,-1
 25 786 l 1,1,-1
 120 786 l 1,2,3
 120 841 120 841 123 882.5 c 128,-1,4
 126 924 126 924 131.5 957 c 128,-1,5
 137 990 137 990 147 1015.5 c 128,-1,6
 157 1041 157 1041 170 1063 c 0,7,8
 205 1119 205 1119 269 1149 c 128,-1,9
 333 1179 333 1179 420 1179 c 0,10,11
 473 1179 473 1179 518 1166.5 c 128,-1,12
 563 1154 563 1154 596 1131 c 128,-1,13
 629 1108 629 1108 646.5 1077 c 128,-1,14
 664 1046 664 1046 664 1008 c 0,15,16
 664 961 664 961 634.5 931.5 c 128,-1,17
 605 902 605 902 558 902 c 0,18,19
 514 902 514 902 485 929.5 c 128,-1,20
 456 957 456 957 456 997 c 0,21,22
 456 1020 456 1020 478 1058 c 0,23,24
 492 1081 492 1081 492 1094 c 0,25,26
 492 1108 492 1108 479.5 1117 c 128,-1,27
 467 1126 467 1126 443 1126 c 0,28,29
 399 1126 399 1126 378.5 1096 c 128,-1,30
 358 1066 358 1066 358 995 c 2,31,-1
 358 786 l 1,32,-1
 507 786 l 1,33,-1
 507 712 l 1,34,-1
 358 712 l 1,35,-1
 358 176 l 2,36,37
 358 134 358 134 363.5 108 c 128,-1,38
 369 82 369 82 384 67.5 c 128,-1,39
 399 53 399 53 426.5 47.5 c 128,-1,40
 454 42 454 42 498 41 c 1,41,-1
 498 0 l 1,42,-1
 25 0 l 1,43,-1
 25 41 l 1,44,45
 54 45 54 45 72.5 50.5 c 128,-1,46
 91 56 91 56 102 67.5 c 128,-1,47
 113 79 113 79 116.5 97.5 c 128,-1,48
 120 116 120 116 120 143 c 2,49,-1
 120 712 l 1,50,-1
 25 712 l 1,0,-1
EndSplineSet
EndChar

